<svg xmlns="http://www.w3.org/2000/svg" viewBox="0 0 1500 1500" width="512" height="512" role="img" aria-label="Mandi">
  <g fill="#61c2a2"><circle cx="749.2" cy="39.9" r="37.2"></circle><circle cx="479" cy="94" r="37.2"></circle><circle cx="1018.8" cy="94" r="37.2"></circle><circle cx="249.4" cy="249.4" r="37.2"></circle><circle cx="1249.1" cy="249.4" r="37.2"></circle><circle cx="94" cy="479" r="37.2"></circle><circle cx="1403.8" cy="479" r="37.2"></circle><circle cx="39.9" cy="749.3" r="37.2"></circle><circle cx="1458.6" cy="749.2" r="37.2"></circle><circle cx="93.9" cy="1018.8" r="37.2"></circle><circle cx="1403.8" cy="1018.8" r="37.2"></circle><circle cx="249.4" cy="1249.1" r="37.2"></circle><circle cx="1249.1" cy="1249.1" r="37.2"></circle><circle cx="479" cy="1403.8" r="37.2"></circle><circle cx="1018.8" cy="1403.8" r="37.2"></circle><circle cx="749.3" cy="1458.6" r="37.2"></circle></g>
  <g fill="#66c8ba"><circle cx="749.3" cy="268.6" r="48.8"></circle><circle cx="508.9" cy="333.5" r="48.8"></circle><circle cx="987.3" cy="333.5" r="48.8"></circle><circle cx="1164.2" cy="508.9" r="48.8"></circle><circle cx="333.5" cy="510.4" r="48.8"></circle><circle cx="268.6" cy="749.3" r="48.8"></circle><circle cx="1229.2" cy="749.3" r="48.8"></circle><circle cx="1164.2" cy="987.3" r="48.8"></circle><circle cx="333.5" cy="988.8" r="48.8"></circle><circle cx="510.4" cy="1164.2" r="48.8"></circle><circle cx="988.8" cy="1164.2" r="48.8"></circle><circle cx="749.3" cy="1229.2" r="48.8"></circle></g>
  <g fill="#007868"><circle cx="749.3" cy="509.1" r="69"></circle><circle cx="581.1" cy="581.1" r="69"></circle><circle cx="917.4" cy="581.1" r="69"></circle><circle cx="509.1" cy="749.3" r="69"></circle><circle cx="989.4" cy="749.3" r="69"></circle><circle cx="581.1" cy="917.4" r="69"></circle><circle cx="917.4" cy="917.4" r="69"></circle><circle cx="749.3" cy="989.4" r="69"></circle></g>
  <circle cx="750" cy="750" r="103.4" fill="#007868"></circle>
</svg>