<svg xmlns="http://www.w3.org/2000/svg" xmlns:xlink="http://www.w3.org/1999/xlink" width="2000" viewBox="0 0 1500 1499.999933" height="2000" preserveAspectRatio="xMidYMid meet"><defs><clipPath id="d67e77df43"><path d="M 1425.59375 712.796875 L 1500 712.796875 L 1500 787.203125 L 1425.59375 787.203125 Z M 1425.59375 712.796875" clip-rule="nonzero"/></clipPath><clipPath id="fecc5fb206"><path d="M 1462.796875 712.796875 C 1442.25 712.796875 1425.59375 729.453125 1425.59375 750 C 1425.59375 770.546875 1442.25 787.203125 1462.796875 787.203125 C 1483.34375 787.203125 1500 770.546875 1500 750 C 1500 729.453125 1483.34375 712.796875 1462.796875 712.796875 Z M 1462.796875 712.796875" clip-rule="nonzero"/></clipPath><clipPath id="0743a339a2"><path d="M 0.59375 0.796875 L 75 0.796875 L 75 75.203125 L 0.59375 75.203125 Z M 0.59375 0.796875" clip-rule="nonzero"/></clipPath><clipPath id="8b55e0f240"><path d="M 37.796875 0.796875 C 17.25 0.796875 0.59375 17.453125 0.59375 38 C 0.59375 58.546875 17.25 75.203125 37.796875 75.203125 C 58.34375 75.203125 75 58.546875 75 38 C 75 17.453125 58.34375 0.796875 37.796875 0.796875 Z M 37.796875 0.796875" clip-rule="nonzero"/></clipPath><clipPath id="038af721fd"><rect x="0" width="75" y="0" height="76"/></clipPath><clipPath id="9ede611c60"><path d="M 1370.535156 983.628906 L 1444.941406 983.628906 L 1444.941406 1058.035156 L 1370.535156 1058.035156 Z M 1370.535156 983.628906" clip-rule="nonzero"/></clipPath><clipPath id="d5ab7dc499"><path d="M 1407.738281 983.628906 C 1387.191406 983.628906 1370.535156 1000.285156 1370.535156 1020.832031 C 1370.535156 1041.378906 1387.191406 1058.035156 1407.738281 1058.035156 C 1428.285156 1058.035156 1444.941406 1041.378906 1444.941406 1020.832031 C 1444.941406 1000.285156 1428.285156 983.628906 1407.738281 983.628906 Z M 1407.738281 983.628906" clip-rule="nonzero"/></clipPath><clipPath id="7357cabe2f"><path d="M 0.535156 0.628906 L 74.941406 0.628906 L 74.941406 75.035156 L 0.535156 75.035156 Z M 0.535156 0.628906" clip-rule="nonzero"/></clipPath><clipPath id="7edf9981d9"><path d="M 37.738281 0.628906 C 17.191406 0.628906 0.535156 17.285156 0.535156 37.832031 C 0.535156 58.378906 17.191406 75.035156 37.738281 75.035156 C 58.285156 75.035156 74.941406 58.378906 74.941406 37.832031 C 74.941406 17.285156 58.285156 0.628906 37.738281 0.628906 Z M 37.738281 0.628906" clip-rule="nonzero"/></clipPath><clipPath id="e908b4455b"><rect x="0" width="75" y="0" height="76"/></clipPath><clipPath id="fec7458a98"><path d="M 1215.03125 1215.03125 L 1289.433594 1215.03125 L 1289.433594 1289.433594 L 1215.03125 1289.433594 Z M 1215.03125 1215.03125" clip-rule="nonzero"/></clipPath><clipPath id="695709bafc"><path d="M 1252.230469 1215.03125 C 1231.6875 1215.03125 1215.03125 1231.6875 1215.03125 1252.230469 C 1215.03125 1272.777344 1231.6875 1289.433594 1252.230469 1289.433594 C 1272.777344 1289.433594 1289.433594 1272.777344 1289.433594 1252.230469 C 1289.433594 1231.6875 1272.777344 1215.03125 1252.230469 1215.03125 Z M 1252.230469 1215.03125" clip-rule="nonzero"/></clipPath><clipPath id="810bc4a7c9"><path d="M 0.03125 0.03125 L 74.433594 0.03125 L 74.433594 74.433594 L 0.03125 74.433594 Z M 0.03125 0.03125" clip-rule="nonzero"/></clipPath><clipPath id="c377ccd4a9"><path d="M 37.230469 0.03125 C 16.6875 0.03125 0.03125 16.6875 0.03125 37.230469 C 0.03125 57.777344 16.6875 74.433594 37.230469 74.433594 C 57.777344 74.433594 74.433594 57.777344 74.433594 37.230469 C 74.433594 16.6875 57.777344 0.03125 37.230469 0.03125 Z M 37.230469 0.03125" clip-rule="nonzero"/></clipPath><clipPath id="85983780b6"><rect x="0" width="75" y="0" height="75"/></clipPath><clipPath id="2192b2900f"><path d="M 983.628906 1370.535156 L 1058.035156 1370.535156 L 1058.035156 1444.941406 L 983.628906 1444.941406 Z M 983.628906 1370.535156" clip-rule="nonzero"/></clipPath><clipPath id="d546245eaa"><path d="M 1020.832031 1370.535156 C 1000.285156 1370.535156 983.628906 1387.191406 983.628906 1407.738281 C 983.628906 1428.285156 1000.285156 1444.941406 1020.832031 1444.941406 C 1041.378906 1444.941406 1058.035156 1428.285156 1058.035156 1407.738281 C 1058.035156 1387.191406 1041.378906 1370.535156 1020.832031 1370.535156 Z M 1020.832031 1370.535156" clip-rule="nonzero"/></clipPath><clipPath id="8e3727080b"><path d="M 0.628906 0.535156 L 75.035156 0.535156 L 75.035156 74.941406 L 0.628906 74.941406 Z M 0.628906 0.535156" clip-rule="nonzero"/></clipPath><clipPath id="03d1e9d4c1"><path d="M 37.832031 0.535156 C 17.285156 0.535156 0.628906 17.191406 0.628906 37.738281 C 0.628906 58.285156 17.285156 74.941406 37.832031 74.941406 C 58.378906 74.941406 75.035156 58.285156 75.035156 37.738281 C 75.035156 17.191406 58.378906 0.535156 37.832031 0.535156 Z M 37.832031 0.535156" clip-rule="nonzero"/></clipPath><clipPath id="22c4621e19"><rect x="0" width="76" y="0" height="75"/></clipPath><clipPath id="7ab7413f16"><path d="M 712.796875 1425.59375 L 787.203125 1425.59375 L 787.203125 1500 L 712.796875 1500 Z M 712.796875 1425.59375" clip-rule="nonzero"/></clipPath><clipPath id="b9c6944fb8"><path d="M 750 1425.59375 C 729.453125 1425.59375 712.796875 1442.25 712.796875 1462.796875 C 712.796875 1483.34375 729.453125 1500 750 1500 C 770.546875 1500 787.203125 1483.34375 787.203125 1462.796875 C 787.203125 1442.25 770.546875 1425.59375 750 1425.59375 Z M 750 1425.59375" clip-rule="nonzero"/></clipPath><clipPath id="46abe442fd"><path d="M 0.796875 0.59375 L 75.203125 0.59375 L 75.203125 75 L 0.796875 75 Z M 0.796875 0.59375" clip-rule="nonzero"/></clipPath><clipPath id="7cb1c54f70"><path d="M 38 0.59375 C 17.453125 0.59375 0.796875 17.25 0.796875 37.796875 C 0.796875 58.34375 17.453125 75 38 75 C 58.546875 75 75.203125 58.34375 75.203125 37.796875 C 75.203125 17.25 58.546875 0.59375 38 0.59375 Z M 38 0.59375" clip-rule="nonzero"/></clipPath><clipPath id="bb280b3423"><rect x="0" width="76" y="0" height="75"/></clipPath><clipPath id="4880d3b852"><path d="M 441.21875 1370.535156 L 515.625 1370.535156 L 515.625 1444.941406 L 441.21875 1444.941406 Z M 441.21875 1370.535156" clip-rule="nonzero"/></clipPath><clipPath id="e9348787b6"><path d="M 478.421875 1370.535156 C 457.875 1370.535156 441.21875 1387.191406 441.21875 1407.738281 C 441.21875 1428.285156 457.875 1444.941406 478.421875 1444.941406 C 498.96875 1444.941406 515.625 1428.285156 515.625 1407.738281 C 515.625 1387.191406 498.96875 1370.535156 478.421875 1370.535156 Z M 478.421875 1370.535156" clip-rule="nonzero"/></clipPath><clipPath id="1b81625531"><path d="M 0.21875 0.535156 L 74.625 0.535156 L 74.625 74.941406 L 0.21875 74.941406 Z M 0.21875 0.535156" clip-rule="nonzero"/></clipPath><clipPath id="575a0d7428"><path d="M 37.421875 0.535156 C 16.875 0.535156 0.21875 17.191406 0.21875 37.738281 C 0.21875 58.285156 16.875 74.941406 37.421875 74.941406 C 57.96875 74.941406 74.625 58.285156 74.625 37.738281 C 74.625 17.191406 57.96875 0.535156 37.421875 0.535156 Z M 37.421875 0.535156" clip-rule="nonzero"/></clipPath><clipPath id="98f6c349fa"><rect x="0" width="75" y="0" height="75"/></clipPath><clipPath id="da4ea6bf20"><path d="M 210.566406 1215.03125 L 284.96875 1215.03125 L 284.96875 1289.433594 L 210.566406 1289.433594 Z M 210.566406 1215.03125" clip-rule="nonzero"/></clipPath><clipPath id="9cbee8d518"><path d="M 247.769531 1215.03125 C 227.222656 1215.03125 210.566406 1231.6875 210.566406 1252.230469 C 210.566406 1272.777344 227.222656 1289.433594 247.769531 1289.433594 C 268.3125 1289.433594 284.96875 1272.777344 284.96875 1252.230469 C 284.96875 1231.6875 268.3125 1215.03125 247.769531 1215.03125 Z M 247.769531 1215.03125" clip-rule="nonzero"/></clipPath><clipPath id="17514abf6f"><path d="M 0.566406 0.03125 L 74.96875 0.03125 L 74.96875 74.433594 L 0.566406 74.433594 Z M 0.566406 0.03125" clip-rule="nonzero"/></clipPath><clipPath id="2d6773918e"><path d="M 37.769531 0.03125 C 17.222656 0.03125 0.566406 16.6875 0.566406 37.230469 C 0.566406 57.777344 17.222656 74.433594 37.769531 74.433594 C 58.3125 74.433594 74.96875 57.777344 74.96875 37.230469 C 74.96875 16.6875 58.3125 0.03125 37.769531 0.03125 Z M 37.769531 0.03125" clip-rule="nonzero"/></clipPath><clipPath id="60923f964d"><rect x="0" width="75" y="0" height="75"/></clipPath><clipPath id="c27bd640b8"><path d="M 54.316406 983.628906 L 128.71875 983.628906 L 128.71875 1058.035156 L 54.316406 1058.035156 Z M 54.316406 983.628906" clip-rule="nonzero"/></clipPath><clipPath id="fea3feb985"><path d="M 91.519531 983.628906 C 70.972656 983.628906 54.316406 1000.285156 54.316406 1020.832031 C 54.316406 1041.378906 70.972656 1058.035156 91.519531 1058.035156 C 112.0625 1058.035156 128.71875 1041.378906 128.71875 1020.832031 C 128.71875 1000.285156 112.0625 983.628906 91.519531 983.628906 Z M 91.519531 983.628906" clip-rule="nonzero"/></clipPath><clipPath id="c4a9886a71"><path d="M 0.316406 0.628906 L 74.71875 0.628906 L 74.71875 75.035156 L 0.316406 75.035156 Z M 0.316406 0.628906" clip-rule="nonzero"/></clipPath><clipPath id="62900280e5"><path d="M 37.519531 0.628906 C 16.972656 0.628906 0.316406 17.285156 0.316406 37.832031 C 0.316406 58.378906 16.972656 75.035156 37.519531 75.035156 C 58.0625 75.035156 74.71875 58.378906 74.71875 37.832031 C 74.71875 17.285156 58.0625 0.628906 37.519531 0.628906 Z M 37.519531 0.628906" clip-rule="nonzero"/></clipPath><clipPath id="0dae9b5110"><rect x="0" width="75" y="0" height="76"/></clipPath><clipPath id="96337f881a"><path d="M 0 712.796875 L 74.40625 712.796875 L 74.40625 787.203125 L 0 787.203125 Z M 0 712.796875" clip-rule="nonzero"/></clipPath><clipPath id="e0d7c19aa8"><path d="M 37.203125 712.796875 C 16.65625 712.796875 0 729.453125 0 750 C 0 770.546875 16.65625 787.203125 37.203125 787.203125 C 57.75 787.203125 74.40625 770.546875 74.40625 750 C 74.40625 729.453125 57.75 712.796875 37.203125 712.796875 Z M 37.203125 712.796875" clip-rule="nonzero"/></clipPath><clipPath id="6ee34177a5"><path d="M 0 0.796875 L 74.40625 0.796875 L 74.40625 75.203125 L 0 75.203125 Z M 0 0.796875" clip-rule="nonzero"/></clipPath><clipPath id="317515523f"><path d="M 37.203125 0.796875 C 16.65625 0.796875 0 17.453125 0 38 C 0 58.546875 16.65625 75.203125 37.203125 75.203125 C 57.75 75.203125 74.40625 58.546875 74.40625 38 C 74.40625 17.453125 57.75 0.796875 37.203125 0.796875 Z M 37.203125 0.796875" clip-rule="nonzero"/></clipPath><clipPath id="762c607143"><rect x="0" width="75" y="0" height="76"/></clipPath><clipPath id="72ec78f9c0"><path d="M 54.316406 441.21875 L 128.71875 441.21875 L 128.71875 515.625 L 54.316406 515.625 Z M 54.316406 441.21875" clip-rule="nonzero"/></clipPath><clipPath id="9d630461f6"><path d="M 91.519531 441.21875 C 70.972656 441.21875 54.316406 457.875 54.316406 478.421875 C 54.316406 498.96875 70.972656 515.625 91.519531 515.625 C 112.0625 515.625 128.71875 498.96875 128.71875 478.421875 C 128.71875 457.875 112.0625 441.21875 91.519531 441.21875 Z M 91.519531 441.21875" clip-rule="nonzero"/></clipPath><clipPath id="f8cf1b2e7e"><path d="M 0.316406 0.21875 L 74.71875 0.21875 L 74.71875 74.625 L 0.316406 74.625 Z M 0.316406 0.21875" clip-rule="nonzero"/></clipPath><clipPath id="8426eac16b"><path d="M 37.519531 0.21875 C 16.972656 0.21875 0.316406 16.875 0.316406 37.421875 C 0.316406 57.96875 16.972656 74.625 37.519531 74.625 C 58.0625 74.625 74.71875 57.96875 74.71875 37.421875 C 74.71875 16.875 58.0625 0.21875 37.519531 0.21875 Z M 37.519531 0.21875" clip-rule="nonzero"/></clipPath><clipPath id="5413a0e1ed"><rect x="0" width="75" y="0" height="75"/></clipPath><clipPath id="be9a7b4232"><path d="M 210.566406 210.566406 L 284.96875 210.566406 L 284.96875 284.96875 L 210.566406 284.96875 Z M 210.566406 210.566406" clip-rule="nonzero"/></clipPath><clipPath id="1e921624fc"><path d="M 247.769531 210.566406 C 227.222656 210.566406 210.566406 227.222656 210.566406 247.769531 C 210.566406 268.3125 227.222656 284.96875 247.769531 284.96875 C 268.3125 284.96875 284.96875 268.3125 284.96875 247.769531 C 284.96875 227.222656 268.3125 210.566406 247.769531 210.566406 Z M 247.769531 210.566406" clip-rule="nonzero"/></clipPath><clipPath id="099f7e4ffc"><path d="M 0.566406 0.566406 L 74.96875 0.566406 L 74.96875 74.96875 L 0.566406 74.96875 Z M 0.566406 0.566406" clip-rule="nonzero"/></clipPath><clipPath id="58b01c6c89"><path d="M 37.769531 0.566406 C 17.222656 0.566406 0.566406 17.222656 0.566406 37.769531 C 0.566406 58.3125 17.222656 74.96875 37.769531 74.96875 C 58.3125 74.96875 74.96875 58.3125 74.96875 37.769531 C 74.96875 17.222656 58.3125 0.566406 37.769531 0.566406 Z M 37.769531 0.566406" clip-rule="nonzero"/></clipPath><clipPath id="5311eff1b9"><rect x="0" width="75" y="0" height="75"/></clipPath><clipPath id="583a215432"><path d="M 441.21875 54.316406 L 515.625 54.316406 L 515.625 128.71875 L 441.21875 128.71875 Z M 441.21875 54.316406" clip-rule="nonzero"/></clipPath><clipPath id="5f89d82228"><path d="M 478.421875 54.316406 C 457.875 54.316406 441.21875 70.972656 441.21875 91.519531 C 441.21875 112.0625 457.875 128.71875 478.421875 128.71875 C 498.96875 128.71875 515.625 112.0625 515.625 91.519531 C 515.625 70.972656 498.96875 54.316406 478.421875 54.316406 Z M 478.421875 54.316406" clip-rule="nonzero"/></clipPath><clipPath id="fb7c99f6ad"><path d="M 0.21875 0.316406 L 74.625 0.316406 L 74.625 74.71875 L 0.21875 74.71875 Z M 0.21875 0.316406" clip-rule="nonzero"/></clipPath><clipPath id="479010f74a"><path d="M 37.421875 0.316406 C 16.875 0.316406 0.21875 16.972656 0.21875 37.519531 C 0.21875 58.0625 16.875 74.71875 37.421875 74.71875 C 57.96875 74.71875 74.625 58.0625 74.625 37.519531 C 74.625 16.972656 57.96875 0.316406 37.421875 0.316406 Z M 37.421875 0.316406" clip-rule="nonzero"/></clipPath><clipPath id="7d92dad26f"><rect x="0" width="75" y="0" height="75"/></clipPath><clipPath id="ad0dd29350"><path d="M 712.796875 0 L 787.203125 0 L 787.203125 74.40625 L 712.796875 74.40625 Z M 712.796875 0" clip-rule="nonzero"/></clipPath><clipPath id="adc0a2b5fe"><path d="M 750 0 C 729.453125 0 712.796875 16.65625 712.796875 37.203125 C 712.796875 57.75 729.453125 74.40625 750 74.40625 C 770.546875 74.40625 787.203125 57.75 787.203125 37.203125 C 787.203125 16.65625 770.546875 0 750 0 Z M 750 0" clip-rule="nonzero"/></clipPath><clipPath id="4403a024c4"><path d="M 0.796875 0 L 75.203125 0 L 75.203125 74.40625 L 0.796875 74.40625 Z M 0.796875 0" clip-rule="nonzero"/></clipPath><clipPath id="ae63cefb01"><path d="M 38 0 C 17.453125 0 0.796875 16.65625 0.796875 37.203125 C 0.796875 57.75 17.453125 74.40625 38 74.40625 C 58.546875 74.40625 75.203125 57.75 75.203125 37.203125 C 75.203125 16.65625 58.546875 0 38 0 Z M 38 0" clip-rule="nonzero"/></clipPath><clipPath id="954d6170fb"><rect x="0" width="76" y="0" height="75"/></clipPath><clipPath id="6b3c39c152"><path d="M 983.628906 54.316406 L 1058.035156 54.316406 L 1058.035156 128.71875 L 983.628906 128.71875 Z M 983.628906 54.316406" clip-rule="nonzero"/></clipPath><clipPath id="701d76b771"><path d="M 1020.832031 54.316406 C 1000.285156 54.316406 983.628906 70.972656 983.628906 91.519531 C 983.628906 112.0625 1000.285156 128.71875 1020.832031 128.71875 C 1041.378906 128.71875 1058.035156 112.0625 1058.035156 91.519531 C 1058.035156 70.972656 1041.378906 54.316406 1020.832031 54.316406 Z M 1020.832031 54.316406" clip-rule="nonzero"/></clipPath><clipPath id="8b654b2cbb"><path d="M 0.628906 0.316406 L 75.035156 0.316406 L 75.035156 74.71875 L 0.628906 74.71875 Z M 0.628906 0.316406" clip-rule="nonzero"/></clipPath><clipPath id="2800da4520"><path d="M 37.832031 0.316406 C 17.285156 0.316406 0.628906 16.972656 0.628906 37.519531 C 0.628906 58.0625 17.285156 74.71875 37.832031 74.71875 C 58.378906 74.71875 75.035156 58.0625 75.035156 37.519531 C 75.035156 16.972656 58.378906 0.316406 37.832031 0.316406 Z M 37.832031 0.316406" clip-rule="nonzero"/></clipPath><clipPath id="71aa35296c"><rect x="0" width="76" y="0" height="75"/></clipPath><clipPath id="7ba0718540"><path d="M 1215.03125 210.566406 L 1289.433594 210.566406 L 1289.433594 284.96875 L 1215.03125 284.96875 Z M 1215.03125 210.566406" clip-rule="nonzero"/></clipPath><clipPath id="ec9950a6a5"><path d="M 1252.230469 210.566406 C 1231.6875 210.566406 1215.03125 227.222656 1215.03125 247.769531 C 1215.03125 268.3125 1231.6875 284.96875 1252.230469 284.96875 C 1272.777344 284.96875 1289.433594 268.3125 1289.433594 247.769531 C 1289.433594 227.222656 1272.777344 210.566406 1252.230469 210.566406 Z M 1252.230469 210.566406" clip-rule="nonzero"/></clipPath><clipPath id="f28d4acc52"><path d="M 0.03125 0.566406 L 74.433594 0.566406 L 74.433594 74.96875 L 0.03125 74.96875 Z M 0.03125 0.566406" clip-rule="nonzero"/></clipPath><clipPath id="6b7b460881"><path d="M 37.230469 0.566406 C 16.6875 0.566406 0.03125 17.222656 0.03125 37.769531 C 0.03125 58.3125 16.6875 74.96875 37.230469 74.96875 C 57.777344 74.96875 74.433594 58.3125 74.433594 37.769531 C 74.433594 17.222656 57.777344 0.566406 37.230469 0.566406 Z M 37.230469 0.566406" clip-rule="nonzero"/></clipPath><clipPath id="d0e0e2021b"><rect x="0" width="75" y="0" height="75"/></clipPath><clipPath id="916dbbfc94"><path d="M 1370.535156 441.21875 L 1444.941406 441.21875 L 1444.941406 515.625 L 1370.535156 515.625 Z M 1370.535156 441.21875" clip-rule="nonzero"/></clipPath><clipPath id="c1c0ffd5d2"><path d="M 1407.738281 441.21875 C 1387.191406 441.21875 1370.535156 457.875 1370.535156 478.421875 C 1370.535156 498.96875 1387.191406 515.625 1407.738281 515.625 C 1428.285156 515.625 1444.941406 498.96875 1444.941406 478.421875 C 1444.941406 457.875 1428.285156 441.21875 1407.738281 441.21875 Z M 1407.738281 441.21875" clip-rule="nonzero"/></clipPath><clipPath id="deceb75165"><path d="M 0.535156 0.21875 L 74.941406 0.21875 L 74.941406 74.625 L 0.535156 74.625 Z M 0.535156 0.21875" clip-rule="nonzero"/></clipPath><clipPath id="0ba943f583"><path d="M 37.738281 0.21875 C 17.191406 0.21875 0.535156 16.875 0.535156 37.421875 C 0.535156 57.96875 17.191406 74.625 37.738281 74.625 C 58.285156 74.625 74.941406 57.96875 74.941406 37.421875 C 74.941406 16.875 58.285156 0.21875 37.738281 0.21875 Z M 37.738281 0.21875" clip-rule="nonzero"/></clipPath><clipPath id="0ce007f2f0"><rect x="0" width="75" y="0" height="75"/></clipPath><clipPath id="6b315a9586"><rect x="0" width="1500" y="0" height="1500"/></clipPath><clipPath id="efac2e220c"><path d="M 965.5 483.25 L 1063 483.25 L 1063 580.75 L 965.5 580.75 Z M 965.5 483.25" clip-rule="nonzero"/></clipPath><clipPath id="f065070c06"><path d="M 1014.25 483.25 C 987.324219 483.25 965.5 505.074219 965.5 532 C 965.5 558.921875 987.324219 580.75 1014.25 580.75 C 1041.171875 580.75 1063 558.921875 1063 532 C 1063 505.074219 1041.171875 483.25 1014.25 483.25 Z M 1014.25 483.25" clip-rule="nonzero"/></clipPath><clipPath id="8f5a517815"><path d="M 0.5 0.25 L 98 0.25 L 98 97.75 L 0.5 97.75 Z M 0.5 0.25" clip-rule="nonzero"/></clipPath><clipPath id="33059565c1"><path d="M 49.25 0.25 C 22.324219 0.25 0.5 22.074219 0.5 49 C 0.5 75.921875 22.324219 97.75 49.25 97.75 C 76.171875 97.75 98 75.921875 98 49 C 98 22.074219 76.171875 0.25 49.25 0.25 Z M 49.25 0.25" clip-rule="nonzero"/></clipPath><clipPath id="e6bb7808b2"><rect x="0" width="98" y="0" height="98"/></clipPath><clipPath id="c5fa6acfe3"><path d="M 900.25 722.5 L 997.75 722.5 L 997.75 820 L 900.25 820 Z M 900.25 722.5" clip-rule="nonzero"/></clipPath><clipPath id="196d1b5e43"><path d="M 949 722.5 C 922.074219 722.5 900.25 744.324219 900.25 771.25 C 900.25 798.171875 922.074219 820 949 820 C 975.921875 820 997.75 798.171875 997.75 771.25 C 997.75 744.324219 975.921875 722.5 949 722.5 Z M 949 722.5" clip-rule="nonzero"/></clipPath><clipPath id="c796e094d0"><path d="M 0.25 0.5 L 97.75 0.5 L 97.75 98 L 0.25 98 Z M 0.25 0.5" clip-rule="nonzero"/></clipPath><clipPath id="f12d2d0464"><path d="M 49 0.5 C 22.074219 0.5 0.25 22.324219 0.25 49.25 C 0.25 76.171875 22.074219 98 49 98 C 75.921875 98 97.75 76.171875 97.75 49.25 C 97.75 22.324219 75.921875 0.5 49 0.5 Z M 49 0.5" clip-rule="nonzero"/></clipPath><clipPath id="5070eb130b"><rect x="0" width="98" y="0" height="98"/></clipPath><clipPath id="b853f8f3ad"><path d="M 724 900.25 L 821.5 900.25 L 821.5 997.75 L 724 997.75 Z M 724 900.25" clip-rule="nonzero"/></clipPath><clipPath id="cbdd0c6933"><path d="M 772.75 900.25 C 745.824219 900.25 724 922.074219 724 949 C 724 975.921875 745.824219 997.75 772.75 997.75 C 799.675781 997.75 821.5 975.921875 821.5 949 C 821.5 922.074219 799.675781 900.25 772.75 900.25 Z M 772.75 900.25" clip-rule="nonzero"/></clipPath><clipPath id="4c5505224c"><path d="M 0 0.25 L 97.5 0.25 L 97.5 97.75 L 0 97.75 Z M 0 0.25" clip-rule="nonzero"/></clipPath><clipPath id="f5df638882"><path d="M 48.75 0.25 C 21.824219 0.25 0 22.074219 0 49 C 0 75.921875 21.824219 97.75 48.75 97.75 C 75.675781 97.75 97.5 75.921875 97.5 49 C 97.5 22.074219 75.675781 0.25 48.75 0.25 Z M 48.75 0.25" clip-rule="nonzero"/></clipPath><clipPath id="ebacbf2fc2"><rect x="0" width="98" y="0" height="98"/></clipPath><clipPath id="85ace96730"><path d="M 483.25 965.5 L 580.75 965.5 L 580.75 1063 L 483.25 1063 Z M 483.25 965.5" clip-rule="nonzero"/></clipPath><clipPath id="8e1a3003b7"><path d="M 532 965.5 C 505.074219 965.5 483.25 987.324219 483.25 1014.25 C 483.25 1041.171875 505.074219 1063 532 1063 C 558.925781 1063 580.75 1041.171875 580.75 1014.25 C 580.75 987.324219 558.925781 965.5 532 965.5 Z M 532 965.5" clip-rule="nonzero"/></clipPath><clipPath id="31f737ce28"><path d="M 0.25 0.5 L 97.75 0.5 L 97.75 98 L 0.25 98 Z M 0.25 0.5" clip-rule="nonzero"/></clipPath><clipPath id="b4811d8c48"><path d="M 49 0.5 C 22.074219 0.5 0.25 22.324219 0.25 49.25 C 0.25 76.171875 22.074219 98 49 98 C 75.925781 98 97.75 76.171875 97.75 49.25 C 97.75 22.324219 75.925781 0.5 49 0.5 Z M 49 0.5" clip-rule="nonzero"/></clipPath><clipPath id="55873ea5f5"><rect x="0" width="98" y="0" height="98"/></clipPath><clipPath id="b9f4b061f9"><path d="M 243.25 900.25 L 340.75 900.25 L 340.75 997.75 L 243.25 997.75 Z M 243.25 900.25" clip-rule="nonzero"/></clipPath><clipPath id="20182a721c"><path d="M 292 900.25 C 265.074219 900.25 243.25 922.074219 243.25 949 C 243.25 975.921875 265.074219 997.75 292 997.75 C 318.925781 997.75 340.75 975.921875 340.75 949 C 340.75 922.074219 318.925781 900.25 292 900.25 Z M 292 900.25" clip-rule="nonzero"/></clipPath><clipPath id="74419fc84e"><path d="M 0.25 0.25 L 97.75 0.25 L 97.75 97.75 L 0.25 97.75 Z M 0.25 0.25" clip-rule="nonzero"/></clipPath><clipPath id="a836a4ed79"><path d="M 49 0.25 C 22.074219 0.25 0.25 22.074219 0.25 49 C 0.25 75.921875 22.074219 97.75 49 97.75 C 75.925781 97.75 97.75 75.921875 97.75 49 C 97.75 22.074219 75.925781 0.25 49 0.25 Z M 49 0.25" clip-rule="nonzero"/></clipPath><clipPath id="b0dde38003"><rect x="0" width="98" y="0" height="98"/></clipPath><clipPath id="9b044f36ae"><path d="M 65.5 724 L 163 724 L 163 821.5 L 65.5 821.5 Z M 65.5 724" clip-rule="nonzero"/></clipPath><clipPath id="b3b962271e"><path d="M 114.25 724 C 87.324219 724 65.5 745.824219 65.5 772.75 C 65.5 799.671875 87.324219 821.5 114.25 821.5 C 141.175781 821.5 163 799.671875 163 772.75 C 163 745.824219 141.175781 724 114.25 724 Z M 114.25 724" clip-rule="nonzero"/></clipPath><clipPath id="5292da6c8a"><path d="M 0.5 0 L 98 0 L 98 97.5 L 0.5 97.5 Z M 0.5 0" clip-rule="nonzero"/></clipPath><clipPath id="9f5944ec18"><path d="M 49.25 0 C 22.324219 0 0.5 21.824219 0.5 48.75 C 0.5 75.671875 22.324219 97.5 49.25 97.5 C 76.175781 97.5 98 75.671875 98 48.75 C 98 21.824219 76.175781 0 49.25 0 Z M 49.25 0" clip-rule="nonzero"/></clipPath><clipPath id="d3f059d2b3"><rect x="0" width="98" y="0" height="98"/></clipPath><clipPath id="6c0715e66b"><path d="M 0.25 483.25 L 97.75 483.25 L 97.75 580.75 L 0.25 580.75 Z M 0.25 483.25" clip-rule="nonzero"/></clipPath><clipPath id="ea966be6f3"><path d="M 49 483.25 C 22.074219 483.25 0.25 505.074219 0.25 532 C 0.25 558.921875 22.074219 580.75 49 580.75 C 75.925781 580.75 97.75 558.921875 97.75 532 C 97.75 505.074219 75.925781 483.25 49 483.25 Z M 49 483.25" clip-rule="nonzero"/></clipPath><clipPath id="bf5f54e9c9"><path d="M 0.25 0.25 L 97.75 0.25 L 97.75 97.75 L 0.25 97.75 Z M 0.25 0.25" clip-rule="nonzero"/></clipPath><clipPath id="d3174796ce"><path d="M 49 0.25 C 22.074219 0.25 0.25 22.074219 0.25 49 C 0.25 75.921875 22.074219 97.75 49 97.75 C 75.925781 97.75 97.75 75.921875 97.75 49 C 97.75 22.074219 75.925781 0.25 49 0.25 Z M 49 0.25" clip-rule="nonzero"/></clipPath><clipPath id="6219083ba6"><rect x="0" width="98" y="0" height="98"/></clipPath><clipPath id="9c0201bf75"><path d="M 65.5 243.25 L 163 243.25 L 163 340.75 L 65.5 340.75 Z M 65.5 243.25" clip-rule="nonzero"/></clipPath><clipPath id="e195f3dfea"><path d="M 114.25 243.25 C 87.324219 243.25 65.5 265.074219 65.5 292 C 65.5 318.921875 87.324219 340.75 114.25 340.75 C 141.175781 340.75 163 318.921875 163 292 C 163 265.074219 141.175781 243.25 114.25 243.25 Z M 114.25 243.25" clip-rule="nonzero"/></clipPath><clipPath id="4e4eaa3947"><path d="M 0.5 0.25 L 98 0.25 L 98 97.75 L 0.5 97.75 Z M 0.5 0.25" clip-rule="nonzero"/></clipPath><clipPath id="7682d1e035"><path d="M 49.25 0.25 C 22.324219 0.25 0.5 22.074219 0.5 49 C 0.5 75.921875 22.324219 97.75 49.25 97.75 C 76.175781 97.75 98 75.921875 98 49 C 98 22.074219 76.175781 0.25 49.25 0.25 Z M 49.25 0.25" clip-rule="nonzero"/></clipPath><clipPath id="a7af4d75d6"><rect x="0" width="98" y="0" height="98"/></clipPath><clipPath id="a7f181878e"><path d="M 241.75 65.5 L 339.25 65.5 L 339.25 163 L 241.75 163 Z M 241.75 65.5" clip-rule="nonzero"/></clipPath><clipPath id="b01a3bdff7"><path d="M 290.5 65.5 C 263.574219 65.5 241.75 87.324219 241.75 114.25 C 241.75 141.175781 263.574219 163 290.5 163 C 317.425781 163 339.25 141.175781 339.25 114.25 C 339.25 87.324219 317.425781 65.5 290.5 65.5 Z M 290.5 65.5" clip-rule="nonzero"/></clipPath><clipPath id="b74aa367d6"><path d="M 0.75 0.5 L 98.25 0.5 L 98.25 98 L 0.75 98 Z M 0.75 0.5" clip-rule="nonzero"/></clipPath><clipPath id="85946928d4"><path d="M 49.5 0.5 C 22.574219 0.5 0.75 22.324219 0.75 49.25 C 0.75 76.175781 22.574219 98 49.5 98 C 76.425781 98 98.25 76.175781 98.25 49.25 C 98.25 22.324219 76.425781 0.5 49.5 0.5 Z M 49.5 0.5" clip-rule="nonzero"/></clipPath><clipPath id="5a87fd082e"><rect x="0" width="99" y="0" height="98"/></clipPath><clipPath id="2b9e0756b5"><path d="M 483.25 0.25 L 580.75 0.25 L 580.75 97.75 L 483.25 97.75 Z M 483.25 0.25" clip-rule="nonzero"/></clipPath><clipPath id="736482741d"><path d="M 532 0.25 C 505.074219 0.25 483.25 22.074219 483.25 49 C 483.25 75.925781 505.074219 97.75 532 97.75 C 558.925781 97.75 580.75 75.925781 580.75 49 C 580.75 22.074219 558.925781 0.25 532 0.25 Z M 532 0.25" clip-rule="nonzero"/></clipPath><clipPath id="e56fef5ff6"><path d="M 0.25 0.25 L 97.75 0.25 L 97.75 97.75 L 0.25 97.75 Z M 0.25 0.25" clip-rule="nonzero"/></clipPath><clipPath id="f188e9f467"><path d="M 49 0.25 C 22.074219 0.25 0.25 22.074219 0.25 49 C 0.25 75.925781 22.074219 97.75 49 97.75 C 75.925781 97.75 97.75 75.925781 97.75 49 C 97.75 22.074219 75.925781 0.25 49 0.25 Z M 49 0.25" clip-rule="nonzero"/></clipPath><clipPath id="1603da4362"><rect x="0" width="98" y="0" height="98"/></clipPath><clipPath id="df9c1700a8"><path d="M 722.5 65.5 L 820 65.5 L 820 163 L 722.5 163 Z M 722.5 65.5" clip-rule="nonzero"/></clipPath><clipPath id="2e6c8b9d9e"><path d="M 771.25 65.5 C 744.324219 65.5 722.5 87.324219 722.5 114.25 C 722.5 141.175781 744.324219 163 771.25 163 C 798.175781 163 820 141.175781 820 114.25 C 820 87.324219 798.175781 65.5 771.25 65.5 Z M 771.25 65.5" clip-rule="nonzero"/></clipPath><clipPath id="4e28b4457a"><path d="M 0.5 0.5 L 98 0.5 L 98 98 L 0.5 98 Z M 0.5 0.5" clip-rule="nonzero"/></clipPath><clipPath id="cda2b89c2d"><path d="M 49.25 0.5 C 22.324219 0.5 0.5 22.324219 0.5 49.25 C 0.5 76.175781 22.324219 98 49.25 98 C 76.175781 98 98 76.175781 98 49.25 C 98 22.324219 76.175781 0.5 49.25 0.5 Z M 49.25 0.5" clip-rule="nonzero"/></clipPath><clipPath id="9b4706c4a8"><rect x="0" width="98" y="0" height="98"/></clipPath><clipPath id="539d9f0267"><path d="M 900.25 241.75 L 997.75 241.75 L 997.75 339.25 L 900.25 339.25 Z M 900.25 241.75" clip-rule="nonzero"/></clipPath><clipPath id="6b3f7e2848"><path d="M 949 241.75 C 922.074219 241.75 900.25 263.574219 900.25 290.5 C 900.25 317.421875 922.074219 339.25 949 339.25 C 975.921875 339.25 997.75 317.421875 997.75 290.5 C 997.75 263.574219 975.921875 241.75 949 241.75 Z M 949 241.75" clip-rule="nonzero"/></clipPath><clipPath id="af7ab97a7d"><path d="M 0.25 0.75 L 97.75 0.75 L 97.75 98.25 L 0.25 98.25 Z M 0.25 0.75" clip-rule="nonzero"/></clipPath><clipPath id="07f549615d"><path d="M 49 0.75 C 22.074219 0.75 0.25 22.574219 0.25 49.5 C 0.25 76.421875 22.074219 98.25 49 98.25 C 75.921875 98.25 97.75 76.421875 97.75 49.5 C 97.75 22.574219 75.921875 0.75 49 0.75 Z M 49 0.75" clip-rule="nonzero"/></clipPath><clipPath id="7b4f28b79b"><rect x="0" width="98" y="0" height="99"/></clipPath><clipPath id="fd1b5596bc"><rect x="0" width="1064" y="0" height="1064"/></clipPath><clipPath id="658e80cbe6"><path d="M 646.550781 646.550781 L 853.449219 646.550781 L 853.449219 853.449219 L 646.550781 853.449219 Z M 646.550781 646.550781" clip-rule="nonzero"/></clipPath><clipPath id="9d0208067c"><path d="M 750 646.550781 C 692.867188 646.550781 646.550781 692.867188 646.550781 750 C 646.550781 807.132812 692.867188 853.449219 750 853.449219 C 807.132812 853.449219 853.449219 807.132812 853.449219 750 C 853.449219 692.867188 807.132812 646.550781 750 646.550781 Z M 750 646.550781" clip-rule="nonzero"/></clipPath><clipPath id="1f2b5753e2"><path d="M 0.550781 0.550781 L 207.449219 0.550781 L 207.449219 207.449219 L 0.550781 207.449219 Z M 0.550781 0.550781" clip-rule="nonzero"/></clipPath><clipPath id="8a6fab9910"><path d="M 104 0.550781 C 46.867188 0.550781 0.550781 46.867188 0.550781 104 C 0.550781 161.132812 46.867188 207.449219 104 207.449219 C 161.132812 207.449219 207.449219 161.132812 207.449219 104 C 207.449219 46.867188 161.132812 0.550781 104 0.550781 Z M 104 0.550781" clip-rule="nonzero"/></clipPath><clipPath id="9459b92a79"><rect x="0" width="208" y="0" height="208"/></clipPath><clipPath id="36156a4f44"><path d="M 922.414062 681.035156 L 1060.34375 681.035156 L 1060.34375 818.964844 L 922.414062 818.964844 Z M 922.414062 681.035156" clip-rule="nonzero"/></clipPath><clipPath id="def845ecb6"><path d="M 991.378906 681.035156 C 953.289062 681.035156 922.414062 711.910156 922.414062 750 C 922.414062 788.089844 953.289062 818.964844 991.378906 818.964844 C 1029.46875 818.964844 1060.34375 788.089844 1060.34375 750 C 1060.34375 711.910156 1029.46875 681.035156 991.378906 681.035156 Z M 991.378906 681.035156" clip-rule="nonzero"/></clipPath><clipPath id="28ef482907"><path d="M 0.414062 0.0351562 L 138.34375 0.0351562 L 138.34375 137.964844 L 0.414062 137.964844 Z M 0.414062 0.0351562" clip-rule="nonzero"/></clipPath><clipPath id="9ba39f0e07"><path d="M 69.378906 0.0351562 C 31.289062 0.0351562 0.414062 30.910156 0.414062 69 C 0.414062 107.089844 31.289062 137.964844 69.378906 137.964844 C 107.46875 137.964844 138.34375 107.089844 138.34375 69 C 138.34375 30.910156 107.46875 0.0351562 69.378906 0.0351562 Z M 69.378906 0.0351562" clip-rule="nonzero"/></clipPath><clipPath id="92a09770e0"><rect x="0" width="139" y="0" height="138"/></clipPath><clipPath id="6a8d045081"><path d="M 850 850 L 987.929688 850 L 987.929688 987.929688 L 850 987.929688 Z M 850 850" clip-rule="nonzero"/></clipPath><clipPath id="aadd22e6c8"><path d="M 918.964844 850 C 880.875 850 850 880.875 850 918.964844 C 850 957.054688 880.875 987.929688 918.964844 987.929688 C 957.054688 987.929688 987.929688 957.054688 987.929688 918.964844 C 987.929688 880.875 957.054688 850 918.964844 850 Z M 918.964844 850" clip-rule="nonzero"/></clipPath><clipPath id="5c971ec44d"><path d="M 0 0 L 137.929688 0 L 137.929688 137.929688 L 0 137.929688 Z M 0 0" clip-rule="nonzero"/></clipPath><clipPath id="8c8405857d"><path d="M 68.964844 0 C 30.875 0 0 30.875 0 68.964844 C 0 107.054688 30.875 137.929688 68.964844 137.929688 C 107.054688 137.929688 137.929688 107.054688 137.929688 68.964844 C 137.929688 30.875 107.054688 0 68.964844 0 Z M 68.964844 0" clip-rule="nonzero"/></clipPath><clipPath id="5fbffb0b5e"><rect x="0" width="138" y="0" height="138"/></clipPath><clipPath id="198b012c52"><path d="M 681.035156 922.414062 L 818.964844 922.414062 L 818.964844 1060.34375 L 681.035156 1060.34375 Z M 681.035156 922.414062" clip-rule="nonzero"/></clipPath><clipPath id="ae1fbb2a9e"><path d="M 750 922.414062 C 711.910156 922.414062 681.035156 953.289062 681.035156 991.378906 C 681.035156 1029.46875 711.910156 1060.34375 750 1060.34375 C 788.089844 1060.34375 818.964844 1029.46875 818.964844 991.378906 C 818.964844 953.289062 788.089844 922.414062 750 922.414062 Z M 750 922.414062" clip-rule="nonzero"/></clipPath><clipPath id="fa0e88b45b"><path d="M 0.0351562 0.414062 L 137.964844 0.414062 L 137.964844 138.34375 L 0.0351562 138.34375 Z M 0.0351562 0.414062" clip-rule="nonzero"/></clipPath><clipPath id="254b2adafa"><path d="M 69 0.414062 C 30.910156 0.414062 0.0351562 31.289062 0.0351562 69.378906 C 0.0351562 107.46875 30.910156 138.34375 69 138.34375 C 107.089844 138.34375 137.964844 107.46875 137.964844 69.378906 C 137.964844 31.289062 107.089844 0.414062 69 0.414062 Z M 69 0.414062" clip-rule="nonzero"/></clipPath><clipPath id="c0860a0066"><rect x="0" width="138" y="0" height="139"/></clipPath><clipPath id="4508565395"><path d="M 512.070312 850 L 650 850 L 650 987.929688 L 512.070312 987.929688 Z M 512.070312 850" clip-rule="nonzero"/></clipPath><clipPath id="7cd3a43ad8"><path d="M 581.035156 850 C 542.945312 850 512.070312 880.875 512.070312 918.964844 C 512.070312 957.054688 542.945312 987.929688 581.035156 987.929688 C 619.121094 987.929688 650 957.054688 650 918.964844 C 650 880.875 619.121094 850 581.035156 850 Z M 581.035156 850" clip-rule="nonzero"/></clipPath><clipPath id="079e979f8b"><path d="M 0.0703125 0 L 138 0 L 138 137.929688 L 0.0703125 137.929688 Z M 0.0703125 0" clip-rule="nonzero"/></clipPath><clipPath id="24d33a5ce1"><path d="M 69.035156 0 C 30.945312 0 0.0703125 30.875 0.0703125 68.964844 C 0.0703125 107.054688 30.945312 137.929688 69.035156 137.929688 C 107.121094 137.929688 138 107.054688 138 68.964844 C 138 30.875 107.121094 0 69.035156 0 Z M 69.035156 0" clip-rule="nonzero"/></clipPath><clipPath id="032cda9910"><rect x="0" width="138" y="0" height="138"/></clipPath><clipPath id="495ab4851b"><path d="M 439.65625 681.035156 L 577.585938 681.035156 L 577.585938 818.964844 L 439.65625 818.964844 Z M 439.65625 681.035156" clip-rule="nonzero"/></clipPath><clipPath id="854fc8f434"><path d="M 508.621094 681.035156 C 470.53125 681.035156 439.65625 711.910156 439.65625 750 C 439.65625 788.089844 470.53125 818.964844 508.621094 818.964844 C 546.710938 818.964844 577.585938 788.089844 577.585938 750 C 577.585938 711.910156 546.710938 681.035156 508.621094 681.035156 Z M 508.621094 681.035156" clip-rule="nonzero"/></clipPath><clipPath id="5ef90d9574"><path d="M 0.65625 0.0351562 L 138.585938 0.0351562 L 138.585938 137.964844 L 0.65625 137.964844 Z M 0.65625 0.0351562" clip-rule="nonzero"/></clipPath><clipPath id="83857ee9c8"><path d="M 69.621094 0.0351562 C 31.53125 0.0351562 0.65625 30.910156 0.65625 69 C 0.65625 107.089844 31.53125 137.964844 69.621094 137.964844 C 107.710938 137.964844 138.585938 107.089844 138.585938 69 C 138.585938 30.910156 107.710938 0.0351562 69.621094 0.0351562 Z M 69.621094 0.0351562" clip-rule="nonzero"/></clipPath><clipPath id="a5cb0c3ad4"><rect x="0" width="139" y="0" height="138"/></clipPath><clipPath id="110347a4fe"><path d="M 512.070312 512.070312 L 650 512.070312 L 650 650 L 512.070312 650 Z M 512.070312 512.070312" clip-rule="nonzero"/></clipPath><clipPath id="7f451b9943"><path d="M 581.035156 512.070312 C 542.945312 512.070312 512.070312 542.945312 512.070312 581.035156 C 512.070312 619.121094 542.945312 650 581.035156 650 C 619.121094 650 650 619.121094 650 581.035156 C 650 542.945312 619.121094 512.070312 581.035156 512.070312 Z M 581.035156 512.070312" clip-rule="nonzero"/></clipPath><clipPath id="9efb16c49e"><path d="M 0.0703125 0.0703125 L 138 0.0703125 L 138 138 L 0.0703125 138 Z M 0.0703125 0.0703125" clip-rule="nonzero"/></clipPath><clipPath id="585ddd3e9a"><path d="M 69.035156 0.0703125 C 30.945312 0.0703125 0.0703125 30.945312 0.0703125 69.035156 C 0.0703125 107.121094 30.945312 138 69.035156 138 C 107.121094 138 138 107.121094 138 69.035156 C 138 30.945312 107.121094 0.0703125 69.035156 0.0703125 Z M 69.035156 0.0703125" clip-rule="nonzero"/></clipPath><clipPath id="bbb5d4052a"><rect x="0" width="138" y="0" height="138"/></clipPath><clipPath id="abe67a6507"><path d="M 681.035156 439.65625 L 818.964844 439.65625 L 818.964844 577.585938 L 681.035156 577.585938 Z M 681.035156 439.65625" clip-rule="nonzero"/></clipPath><clipPath id="b62f95a4b3"><path d="M 750 439.65625 C 711.910156 439.65625 681.035156 470.53125 681.035156 508.621094 C 681.035156 546.710938 711.910156 577.585938 750 577.585938 C 788.089844 577.585938 818.964844 546.710938 818.964844 508.621094 C 818.964844 470.53125 788.089844 439.65625 750 439.65625 Z M 750 439.65625" clip-rule="nonzero"/></clipPath><clipPath id="a3a5e76a54"><path d="M 0.0351562 0.65625 L 137.964844 0.65625 L 137.964844 138.585938 L 0.0351562 138.585938 Z M 0.0351562 0.65625" clip-rule="nonzero"/></clipPath><clipPath id="cfd92cbf1e"><path d="M 69 0.65625 C 30.910156 0.65625 0.0351562 31.53125 0.0351562 69.621094 C 0.0351562 107.710938 30.910156 138.585938 69 138.585938 C 107.089844 138.585938 137.964844 107.710938 137.964844 69.621094 C 137.964844 31.53125 107.089844 0.65625 69 0.65625 Z M 69 0.65625" clip-rule="nonzero"/></clipPath><clipPath id="ee8b28d1ef"><rect x="0" width="138" y="0" height="139"/></clipPath><clipPath id="767436f55c"><path d="M 850 512.070312 L 987.929688 512.070312 L 987.929688 650 L 850 650 Z M 850 512.070312" clip-rule="nonzero"/></clipPath><clipPath id="cfcc3890c0"><path d="M 918.964844 512.070312 C 880.875 512.070312 850 542.945312 850 581.035156 C 850 619.121094 880.875 650 918.964844 650 C 957.054688 650 987.929688 619.121094 987.929688 581.035156 C 987.929688 542.945312 957.054688 512.070312 918.964844 512.070312 Z M 918.964844 512.070312" clip-rule="nonzero"/></clipPath><clipPath id="68a7738e35"><path d="M 0 0.0703125 L 137.929688 0.0703125 L 137.929688 138 L 0 138 Z M 0 0.0703125" clip-rule="nonzero"/></clipPath><clipPath id="b6671fd55b"><path d="M 68.964844 0.0703125 C 30.875 0.0703125 0 30.945312 0 69.035156 C 0 107.121094 30.875 138 68.964844 138 C 107.054688 138 137.929688 107.121094 137.929688 69.035156 C 137.929688 30.945312 107.054688 0.0703125 68.964844 0.0703125 Z M 68.964844 0.0703125" clip-rule="nonzero"/></clipPath><clipPath id="1d7b08d1af"><rect x="0" width="138" y="0" height="138"/></clipPath></defs><g transform="matrix(1, 0, 0, 1, 0, 0.000000000000112861)"><g clip-path="url(#6b315a9586)"><g clip-path="url(#d67e77df43)"><g clip-path="url(#fecc5fb206)"><g transform="matrix(1, 0, 0, 1, 1425, 712)"><g clip-path="url(#038af721fd)"><g clip-path="url(#0743a339a2)"><g clip-path="url(#8b55e0f240)"><path fill="#61c2a2" d="M 0.59375 0.796875 L 75 0.796875 L 75 75.203125 L 0.59375 75.203125 Z M 0.59375 0.796875" fill-opacity="1" fill-rule="nonzero"/></g></g></g></g></g></g><g clip-path="url(#9ede611c60)"><g clip-path="url(#d5ab7dc499)"><g transform="matrix(1, 0, 0, 1, 1370, 983)"><g clip-path="url(#e908b4455b)"><g clip-path="url(#7357cabe2f)"><g clip-path="url(#7edf9981d9)"><path fill="#61c2a2" d="M 0.535156 0.628906 L 74.941406 0.628906 L 74.941406 75.035156 L 0.535156 75.035156 Z M 0.535156 0.628906" fill-opacity="1" fill-rule="nonzero"/></g></g></g></g></g></g><g clip-path="url(#fec7458a98)"><g clip-path="url(#695709bafc)"><g transform="matrix(1, 0, 0, 1, 1215, 1215)"><g clip-path="url(#85983780b6)"><g clip-path="url(#810bc4a7c9)"><g clip-path="url(#c377ccd4a9)"><path fill="#61c2a2" d="M 0.03125 0.03125 L 74.433594 0.03125 L 74.433594 74.433594 L 0.03125 74.433594 Z M 0.03125 0.03125" fill-opacity="1" fill-rule="nonzero"/></g></g></g></g></g></g><g clip-path="url(#2192b2900f)"><g clip-path="url(#d546245eaa)"><g transform="matrix(1, 0, 0, 1, 983, 1370)"><g clip-path="url(#22c4621e19)"><g clip-path="url(#8e3727080b)"><g clip-path="url(#03d1e9d4c1)"><path fill="#61c2a2" d="M 0.628906 0.535156 L 75.035156 0.535156 L 75.035156 74.941406 L 0.628906 74.941406 Z M 0.628906 0.535156" fill-opacity="1" fill-rule="nonzero"/></g></g></g></g></g></g><g clip-path="url(#7ab7413f16)"><g clip-path="url(#b9c6944fb8)"><g transform="matrix(1, 0, 0, 1, 712, 1425)"><g clip-path="url(#bb280b3423)"><g clip-path="url(#46abe442fd)"><g clip-path="url(#7cb1c54f70)"><path fill="#61c2a2" d="M 0.796875 0.59375 L 75.203125 0.59375 L 75.203125 75 L 0.796875 75 Z M 0.796875 0.59375" fill-opacity="1" fill-rule="nonzero"/></g></g></g></g></g></g><g clip-path="url(#4880d3b852)"><g clip-path="url(#e9348787b6)"><g transform="matrix(1, 0, 0, 1, 441, 1370)"><g clip-path="url(#98f6c349fa)"><g clip-path="url(#1b81625531)"><g clip-path="url(#575a0d7428)"><path fill="#61c2a2" d="M 0.21875 0.535156 L 74.625 0.535156 L 74.625 74.941406 L 0.21875 74.941406 Z M 0.21875 0.535156" fill-opacity="1" fill-rule="nonzero"/></g></g></g></g></g></g><g clip-path="url(#da4ea6bf20)"><g clip-path="url(#9cbee8d518)"><g transform="matrix(1, 0, 0, 1, 210, 1215)"><g clip-path="url(#60923f964d)"><g clip-path="url(#17514abf6f)"><g clip-path="url(#2d6773918e)"><path fill="#61c2a2" d="M 0.566406 0.03125 L 74.96875 0.03125 L 74.96875 74.433594 L 0.566406 74.433594 Z M 0.566406 0.03125" fill-opacity="1" fill-rule="nonzero"/></g></g></g></g></g></g><g clip-path="url(#c27bd640b8)"><g clip-path="url(#fea3feb985)"><g transform="matrix(1, 0, 0, 1, 54, 983)"><g clip-path="url(#0dae9b5110)"><g clip-path="url(#c4a9886a71)"><g clip-path="url(#62900280e5)"><path fill="#61c2a2" d="M 0.316406 0.628906 L 74.71875 0.628906 L 74.71875 75.035156 L 0.316406 75.035156 Z M 0.316406 0.628906" fill-opacity="1" fill-rule="nonzero"/></g></g></g></g></g></g><g clip-path="url(#96337f881a)"><g clip-path="url(#e0d7c19aa8)"><g transform="matrix(1, 0, 0, 1, 0, 712)"><g clip-path="url(#762c607143)"><g clip-path="url(#6ee34177a5)"><g clip-path="url(#317515523f)"><path fill="#61c2a2" d="M 0 0.796875 L 74.40625 0.796875 L 74.40625 75.203125 L 0 75.203125 Z M 0 0.796875" fill-opacity="1" fill-rule="nonzero"/></g></g></g></g></g></g><g clip-path="url(#72ec78f9c0)"><g clip-path="url(#9d630461f6)"><g transform="matrix(1, 0, 0, 1, 54, 441)"><g clip-path="url(#5413a0e1ed)"><g clip-path="url(#f8cf1b2e7e)"><g clip-path="url(#8426eac16b)"><path fill="#61c2a2" d="M 0.316406 0.21875 L 74.71875 0.21875 L 74.71875 74.625 L 0.316406 74.625 Z M 0.316406 0.21875" fill-opacity="1" fill-rule="nonzero"/></g></g></g></g></g></g><g clip-path="url(#be9a7b4232)"><g clip-path="url(#1e921624fc)"><g transform="matrix(1, 0, 0, 1, 210, 210)"><g clip-path="url(#5311eff1b9)"><g clip-path="url(#099f7e4ffc)"><g clip-path="url(#58b01c6c89)"><path fill="#61c2a2" d="M 0.566406 0.566406 L 74.96875 0.566406 L 74.96875 74.96875 L 0.566406 74.96875 Z M 0.566406 0.566406" fill-opacity="1" fill-rule="nonzero"/></g></g></g></g></g></g><g clip-path="url(#583a215432)"><g clip-path="url(#5f89d82228)"><g transform="matrix(1, 0, 0, 1, 441, 54)"><g clip-path="url(#7d92dad26f)"><g clip-path="url(#fb7c99f6ad)"><g clip-path="url(#479010f74a)"><path fill="#61c2a2" d="M 0.21875 0.316406 L 74.625 0.316406 L 74.625 74.71875 L 0.21875 74.71875 Z M 0.21875 0.316406" fill-opacity="1" fill-rule="nonzero"/></g></g></g></g></g></g><g clip-path="url(#ad0dd29350)"><g clip-path="url(#adc0a2b5fe)"><g transform="matrix(1, 0, 0, 1, 712, 0.000000000000112861)"><g clip-path="url(#954d6170fb)"><g clip-path="url(#4403a024c4)"><g clip-path="url(#ae63cefb01)"><path fill="#61c2a2" d="M 0.796875 0 L 75.203125 0 L 75.203125 74.40625 L 0.796875 74.40625 Z M 0.796875 0" fill-opacity="1" fill-rule="nonzero"/></g></g></g></g></g></g><g clip-path="url(#6b3c39c152)"><g clip-path="url(#701d76b771)"><g transform="matrix(1, 0, 0, 1, 983, 54)"><g clip-path="url(#71aa35296c)"><g clip-path="url(#8b654b2cbb)"><g clip-path="url(#2800da4520)"><path fill="#61c2a2" d="M 0.628906 0.316406 L 75.035156 0.316406 L 75.035156 74.71875 L 0.628906 74.71875 Z M 0.628906 0.316406" fill-opacity="1" fill-rule="nonzero"/></g></g></g></g></g></g><g clip-path="url(#7ba0718540)"><g clip-path="url(#ec9950a6a5)"><g transform="matrix(1, 0, 0, 1, 1215, 210)"><g clip-path="url(#d0e0e2021b)"><g clip-path="url(#f28d4acc52)"><g clip-path="url(#6b7b460881)"><path fill="#61c2a2" d="M 0.03125 0.566406 L 74.433594 0.566406 L 74.433594 74.96875 L 0.03125 74.96875 Z M 0.03125 0.566406" fill-opacity="1" fill-rule="nonzero"/></g></g></g></g></g></g><g clip-path="url(#916dbbfc94)"><g clip-path="url(#c1c0ffd5d2)"><g transform="matrix(1, 0, 0, 1, 1370, 441)"><g clip-path="url(#0ce007f2f0)"><g clip-path="url(#deceb75165)"><g clip-path="url(#0ba943f583)"><path fill="#61c2a2" d="M 0.535156 0.21875 L 74.941406 0.21875 L 74.941406 74.625 L 0.535156 74.625 Z M 0.535156 0.21875" fill-opacity="1" fill-rule="nonzero"/></g></g></g></g></g></g></g></g><g transform="matrix(1, 0, 0, 1, 218, 218)"><g clip-path="url(#fd1b5596bc)"><g clip-path="url(#efac2e220c)"><g clip-path="url(#f065070c06)"><g transform="matrix(1, 0, 0, 1, 965, 483)"><g clip-path="url(#e6bb7808b2)"><g clip-path="url(#8f5a517815)"><g clip-path="url(#33059565c1)"><path fill="#66c8ba" d="M 0.5 0.25 L 98 0.25 L 98 97.75 L 0.5 97.75 Z M 0.5 0.25" fill-opacity="1" fill-rule="nonzero"/></g></g></g></g></g></g><g clip-path="url(#c5fa6acfe3)"><g clip-path="url(#196d1b5e43)"><g transform="matrix(1, 0, 0, 1, 900, 722)"><g clip-path="url(#5070eb130b)"><g clip-path="url(#c796e094d0)"><g clip-path="url(#f12d2d0464)"><path fill="#66c8ba" d="M 0.25 0.5 L 97.75 0.5 L 97.75 98 L 0.25 98 Z M 0.25 0.5" fill-opacity="1" fill-rule="nonzero"/></g></g></g></g></g></g><g clip-path="url(#b853f8f3ad)"><g clip-path="url(#cbdd0c6933)"><g transform="matrix(1, 0, 0, 1, 724, 900)"><g clip-path="url(#ebacbf2fc2)"><g clip-path="url(#4c5505224c)"><g clip-path="url(#f5df638882)"><path fill="#66c8ba" d="M 0 0.25 L 97.5 0.25 L 97.5 97.75 L 0 97.75 Z M 0 0.25" fill-opacity="1" fill-rule="nonzero"/></g></g></g></g></g></g><g clip-path="url(#85ace96730)"><g clip-path="url(#8e1a3003b7)"><g transform="matrix(1, 0, 0, 1, 483, 965)"><g clip-path="url(#55873ea5f5)"><g clip-path="url(#31f737ce28)"><g clip-path="url(#b4811d8c48)"><path fill="#66c8ba" d="M 0.25 0.5 L 97.75 0.5 L 97.75 98 L 0.25 98 Z M 0.25 0.5" fill-opacity="1" fill-rule="nonzero"/></g></g></g></g></g></g><g clip-path="url(#b9f4b061f9)"><g clip-path="url(#20182a721c)"><g transform="matrix(1, 0, 0, 1, 243, 900)"><g clip-path="url(#b0dde38003)"><g clip-path="url(#74419fc84e)"><g clip-path="url(#a836a4ed79)"><path fill="#66c8ba" d="M 0.25 0.25 L 97.75 0.25 L 97.75 97.75 L 0.25 97.75 Z M 0.25 0.25" fill-opacity="1" fill-rule="nonzero"/></g></g></g></g></g></g><g clip-path="url(#9b044f36ae)"><g clip-path="url(#b3b962271e)"><g transform="matrix(1, 0, 0, 1, 65, 724)"><g clip-path="url(#d3f059d2b3)"><g clip-path="url(#5292da6c8a)"><g clip-path="url(#9f5944ec18)"><path fill="#66c8ba" d="M 0.5 0 L 98 0 L 98 97.5 L 0.5 97.5 Z M 0.5 0" fill-opacity="1" fill-rule="nonzero"/></g></g></g></g></g></g><g clip-path="url(#6c0715e66b)"><g clip-path="url(#ea966be6f3)"><g transform="matrix(1, 0, 0, 1, 0, 483)"><g clip-path="url(#6219083ba6)"><g clip-path="url(#bf5f54e9c9)"><g clip-path="url(#d3174796ce)"><path fill="#66c8ba" d="M 0.25 0.25 L 97.75 0.25 L 97.75 97.75 L 0.25 97.75 Z M 0.25 0.25" fill-opacity="1" fill-rule="nonzero"/></g></g></g></g></g></g><g clip-path="url(#9c0201bf75)"><g clip-path="url(#e195f3dfea)"><g transform="matrix(1, 0, 0, 1, 65, 243)"><g clip-path="url(#a7af4d75d6)"><g clip-path="url(#4e4eaa3947)"><g clip-path="url(#7682d1e035)"><path fill="#66c8ba" d="M 0.5 0.25 L 98 0.25 L 98 97.75 L 0.5 97.75 Z M 0.5 0.25" fill-opacity="1" fill-rule="nonzero"/></g></g></g></g></g></g><g clip-path="url(#a7f181878e)"><g clip-path="url(#b01a3bdff7)"><g transform="matrix(1, 0, 0, 1, 241, 65)"><g clip-path="url(#5a87fd082e)"><g clip-path="url(#b74aa367d6)"><g clip-path="url(#85946928d4)"><path fill="#66c8ba" d="M 0.75 0.5 L 98.25 0.5 L 98.25 98 L 0.75 98 Z M 0.75 0.5" fill-opacity="1" fill-rule="nonzero"/></g></g></g></g></g></g><g clip-path="url(#2b9e0756b5)"><g clip-path="url(#736482741d)"><g transform="matrix(1, 0, 0, 1, 483, 0.000000000000113687)"><g clip-path="url(#1603da4362)"><g clip-path="url(#e56fef5ff6)"><g clip-path="url(#f188e9f467)"><path fill="#66c8ba" d="M 0.25 0.25 L 97.75 0.25 L 97.75 97.75 L 0.25 97.75 Z M 0.25 0.25" fill-opacity="1" fill-rule="nonzero"/></g></g></g></g></g></g><g clip-path="url(#df9c1700a8)"><g clip-path="url(#2e6c8b9d9e)"><g transform="matrix(1, 0, 0, 1, 722, 65)"><g clip-path="url(#9b4706c4a8)"><g clip-path="url(#4e28b4457a)"><g clip-path="url(#cda2b89c2d)"><path fill="#66c8ba" d="M 0.5 0.5 L 98 0.5 L 98 98 L 0.5 98 Z M 0.5 0.5" fill-opacity="1" fill-rule="nonzero"/></g></g></g></g></g></g><g clip-path="url(#539d9f0267)"><g clip-path="url(#6b3f7e2848)"><g transform="matrix(1, 0, 0, 1, 900, 241)"><g clip-path="url(#7b4f28b79b)"><g clip-path="url(#af7ab97a7d)"><g clip-path="url(#07f549615d)"><path fill="#66c8ba" d="M 0.25 0.75 L 97.75 0.75 L 97.75 98.25 L 0.25 98.25 Z M 0.25 0.75" fill-opacity="1" fill-rule="nonzero"/></g></g></g></g></g></g></g></g><g clip-path="url(#658e80cbe6)"><g clip-path="url(#9d0208067c)"><g transform="matrix(1, 0, 0, 1, 646, 646)"><g clip-path="url(#9459b92a79)"><g clip-path="url(#1f2b5753e2)"><g clip-path="url(#8a6fab9910)"><path fill="#007868" d="M 0.550781 0.550781 L 207.449219 0.550781 L 207.449219 207.449219 L 0.550781 207.449219 Z M 0.550781 0.550781" fill-opacity="1" fill-rule="nonzero"/></g></g></g></g></g></g><g clip-path="url(#36156a4f44)"><g clip-path="url(#def845ecb6)"><g transform="matrix(1, 0, 0, 1, 922, 681)"><g clip-path="url(#92a09770e0)"><g clip-path="url(#28ef482907)"><g clip-path="url(#9ba39f0e07)"><path fill="#007868" d="M 0.414062 0.0351562 L 138.34375 0.0351562 L 138.34375 137.964844 L 0.414062 137.964844 Z M 0.414062 0.0351562" fill-opacity="1" fill-rule="nonzero"/></g></g></g></g></g></g><g clip-path="url(#6a8d045081)"><g clip-path="url(#aadd22e6c8)"><g transform="matrix(1, 0, 0, 1, 850, 850)"><g clip-path="url(#5fbffb0b5e)"><g clip-path="url(#5c971ec44d)"><g clip-path="url(#8c8405857d)"><path fill="#007868" d="M 0 0 L 137.929688 0 L 137.929688 137.929688 L 0 137.929688 Z M 0 0" fill-opacity="1" fill-rule="nonzero"/></g></g></g></g></g></g><g clip-path="url(#198b012c52)"><g clip-path="url(#ae1fbb2a9e)"><g transform="matrix(1, 0, 0, 1, 681, 922)"><g clip-path="url(#c0860a0066)"><g clip-path="url(#fa0e88b45b)"><g clip-path="url(#254b2adafa)"><path fill="#007868" d="M 0.0351562 0.414062 L 137.964844 0.414062 L 137.964844 138.34375 L 0.0351562 138.34375 Z M 0.0351562 0.414062" fill-opacity="1" fill-rule="nonzero"/></g></g></g></g></g></g><g clip-path="url(#4508565395)"><g clip-path="url(#7cd3a43ad8)"><g transform="matrix(1, 0, 0, 1, 512, 850)"><g clip-path="url(#032cda9910)"><g clip-path="url(#079e979f8b)"><g clip-path="url(#24d33a5ce1)"><path fill="#007868" d="M 0.0703125 0 L 138 0 L 138 137.929688 L 0.0703125 137.929688 Z M 0.0703125 0" fill-opacity="1" fill-rule="nonzero"/></g></g></g></g></g></g><g clip-path="url(#495ab4851b)"><g clip-path="url(#854fc8f434)"><g transform="matrix(1, 0, 0, 1, 439, 681)"><g clip-path="url(#a5cb0c3ad4)"><g clip-path="url(#5ef90d9574)"><g clip-path="url(#83857ee9c8)"><path fill="#007868" d="M 0.65625 0.0351562 L 138.585938 0.0351562 L 138.585938 137.964844 L 0.65625 137.964844 Z M 0.65625 0.0351562" fill-opacity="1" fill-rule="nonzero"/></g></g></g></g></g></g><g clip-path="url(#110347a4fe)"><g clip-path="url(#7f451b9943)"><g transform="matrix(1, 0, 0, 1, 512, 512)"><g clip-path="url(#bbb5d4052a)"><g clip-path="url(#9efb16c49e)"><g clip-path="url(#585ddd3e9a)"><path fill="#007868" d="M 0.0703125 0.0703125 L 138 0.0703125 L 138 138 L 0.0703125 138 Z M 0.0703125 0.0703125" fill-opacity="1" fill-rule="nonzero"/></g></g></g></g></g></g><g clip-path="url(#abe67a6507)"><g clip-path="url(#b62f95a4b3)"><g transform="matrix(1, 0, 0, 1, 681, 439)"><g clip-path="url(#ee8b28d1ef)"><g clip-path="url(#a3a5e76a54)"><g clip-path="url(#cfd92cbf1e)"><path fill="#007868" d="M 0.0351562 0.65625 L 137.964844 0.65625 L 137.964844 138.585938 L 0.0351562 138.585938 Z M 0.0351562 0.65625" fill-opacity="1" fill-rule="nonzero"/></g></g></g></g></g></g><g clip-path="url(#767436f55c)"><g clip-path="url(#cfcc3890c0)"><g transform="matrix(1, 0, 0, 1, 850, 512)"><g clip-path="url(#1d7b08d1af)"><g clip-path="url(#68a7738e35)"><g clip-path="url(#b6671fd55b)"><path fill="#007868" d="M 0 0.0703125 L 137.929688 0.0703125 L 137.929688 138 L 0 138 Z M 0 0.0703125" fill-opacity="1" fill-rule="nonzero"/></g></g></g></g></g></g></svg>