<svg xmlns="http://www.w3.org/2000/svg" xmlns:xlink="http://www.w3.org/1999/xlink" width="2000" viewBox="0 0 1500 1499.999933" height="2000" preserveAspectRatio="xMidYMid meet"><defs><clipPath id="a46b98f0af"><path d="M 1448.277344 724.136719 L 1500 724.136719 L 1500 775.863281 L 1448.277344 775.863281 Z M 1448.277344 724.136719" clip-rule="nonzero"/></clipPath><clipPath id="fff2e981eb"><path d="M 1474.136719 724.136719 C 1459.855469 724.136719 1448.277344 735.714844 1448.277344 750 C 1448.277344 764.28125 1459.855469 775.863281 1474.136719 775.863281 C 1488.421875 775.863281 1500 764.28125 1500 750 C 1500 735.714844 1488.421875 724.136719 1474.136719 724.136719 Z M 1474.136719 724.136719" clip-rule="nonzero"/></clipPath><clipPath id="6c3289d3da"><path d="M 0.277344 0.136719 L 52 0.136719 L 52 51.863281 L 0.277344 51.863281 Z M 0.277344 0.136719" clip-rule="nonzero"/></clipPath><clipPath id="a4ff50d452"><path d="M 26.136719 0.136719 C 11.855469 0.136719 0.277344 11.714844 0.277344 26 C 0.277344 40.28125 11.855469 51.863281 26.136719 51.863281 C 40.421875 51.863281 52 40.28125 52 26 C 52 11.714844 40.421875 0.136719 26.136719 0.136719 Z M 26.136719 0.136719" clip-rule="nonzero"/></clipPath><clipPath id="35479c85a1"><rect x="0" width="52" y="0" height="52"/></clipPath><clipPath id="426c5639e8"><path d="M 1393.101562 1000 L 1444.828125 1000 L 1444.828125 1051.722656 L 1393.101562 1051.722656 Z M 1393.101562 1000" clip-rule="nonzero"/></clipPath><clipPath id="14020f4a2e"><path d="M 1418.964844 1000 C 1404.683594 1000 1393.101562 1011.578125 1393.101562 1025.863281 C 1393.101562 1040.144531 1404.683594 1051.722656 1418.964844 1051.722656 C 1433.25 1051.722656 1444.828125 1040.144531 1444.828125 1025.863281 C 1444.828125 1011.578125 1433.25 1000 1418.964844 1000 Z M 1418.964844 1000" clip-rule="nonzero"/></clipPath><clipPath id="175191ea5d"><path d="M 0.101562 0 L 51.828125 0 L 51.828125 51.722656 L 0.101562 51.722656 Z M 0.101562 0" clip-rule="nonzero"/></clipPath><clipPath id="1386a24c23"><path d="M 25.964844 0 C 11.683594 0 0.101562 11.578125 0.101562 25.863281 C 0.101562 40.144531 11.683594 51.722656 25.964844 51.722656 C 40.25 51.722656 51.828125 40.144531 51.828125 25.863281 C 51.828125 11.578125 40.25 0 25.964844 0 Z M 25.964844 0" clip-rule="nonzero"/></clipPath><clipPath id="ef92f61d7c"><rect x="0" width="52" y="0" height="52"/></clipPath><clipPath id="5163242f36"><path d="M 1234.484375 1234.484375 L 1286.207031 1234.484375 L 1286.207031 1286.207031 L 1234.484375 1286.207031 Z M 1234.484375 1234.484375" clip-rule="nonzero"/></clipPath><clipPath id="76a69f39ff"><path d="M 1260.34375 1234.484375 C 1246.0625 1234.484375 1234.484375 1246.0625 1234.484375 1260.34375 C 1234.484375 1274.628906 1246.0625 1286.207031 1260.34375 1286.207031 C 1274.628906 1286.207031 1286.207031 1274.628906 1286.207031 1260.34375 C 1286.207031 1246.0625 1274.628906 1234.484375 1260.34375 1234.484375 Z M 1260.34375 1234.484375" clip-rule="nonzero"/></clipPath><clipPath id="b0c35f61f9"><path d="M 0.484375 0.484375 L 52.207031 0.484375 L 52.207031 52.207031 L 0.484375 52.207031 Z M 0.484375 0.484375" clip-rule="nonzero"/></clipPath><clipPath id="f60355e062"><path d="M 26.34375 0.484375 C 12.0625 0.484375 0.484375 12.0625 0.484375 26.34375 C 0.484375 40.628906 12.0625 52.207031 26.34375 52.207031 C 40.628906 52.207031 52.207031 40.628906 52.207031 26.34375 C 52.207031 12.0625 40.628906 0.484375 26.34375 0.484375 Z M 26.34375 0.484375" clip-rule="nonzero"/></clipPath><clipPath id="664280f0cc"><rect x="0" width="53" y="0" height="53"/></clipPath><clipPath id="011d4371c1"><path d="M 1000 1393.101562 L 1051.722656 1393.101562 L 1051.722656 1444.828125 L 1000 1444.828125 Z M 1000 1393.101562" clip-rule="nonzero"/></clipPath><clipPath id="44158fb70b"><path d="M 1025.863281 1393.101562 C 1011.578125 1393.101562 1000 1404.683594 1000 1418.964844 C 1000 1433.25 1011.578125 1444.828125 1025.863281 1444.828125 C 1040.144531 1444.828125 1051.722656 1433.25 1051.722656 1418.964844 C 1051.722656 1404.683594 1040.144531 1393.101562 1025.863281 1393.101562 Z M 1025.863281 1393.101562" clip-rule="nonzero"/></clipPath><clipPath id="926570aa61"><path d="M 0 0.101562 L 51.722656 0.101562 L 51.722656 51.828125 L 0 51.828125 Z M 0 0.101562" clip-rule="nonzero"/></clipPath><clipPath id="a257970b03"><path d="M 25.863281 0.101562 C 11.578125 0.101562 0 11.683594 0 25.964844 C 0 40.25 11.578125 51.828125 25.863281 51.828125 C 40.144531 51.828125 51.722656 40.25 51.722656 25.964844 C 51.722656 11.683594 40.144531 0.101562 25.863281 0.101562 Z M 25.863281 0.101562" clip-rule="nonzero"/></clipPath><clipPath id="006cd604b4"><rect x="0" width="52" y="0" height="52"/></clipPath><clipPath id="4d5f92808c"><path d="M 724.136719 1448.277344 L 775.863281 1448.277344 L 775.863281 1500 L 724.136719 1500 Z M 724.136719 1448.277344" clip-rule="nonzero"/></clipPath><clipPath id="ec4c70455e"><path d="M 750 1448.277344 C 735.714844 1448.277344 724.136719 1459.855469 724.136719 1474.136719 C 724.136719 1488.421875 735.714844 1500 750 1500 C 764.28125 1500 775.863281 1488.421875 775.863281 1474.136719 C 775.863281 1459.855469 764.28125 1448.277344 750 1448.277344 Z M 750 1448.277344" clip-rule="nonzero"/></clipPath><clipPath id="888a5fa90d"><path d="M 0.136719 0.277344 L 51.863281 0.277344 L 51.863281 52 L 0.136719 52 Z M 0.136719 0.277344" clip-rule="nonzero"/></clipPath><clipPath id="812ed2fae7"><path d="M 26 0.277344 C 11.714844 0.277344 0.136719 11.855469 0.136719 26.136719 C 0.136719 40.421875 11.714844 52 26 52 C 40.28125 52 51.863281 40.421875 51.863281 26.136719 C 51.863281 11.855469 40.28125 0.277344 26 0.277344 Z M 26 0.277344" clip-rule="nonzero"/></clipPath><clipPath id="c42916c395"><rect x="0" width="52" y="0" height="52"/></clipPath><clipPath id="b35768e8cf"><path d="M 448.277344 1393.101562 L 500 1393.101562 L 500 1444.828125 L 448.277344 1444.828125 Z M 448.277344 1393.101562" clip-rule="nonzero"/></clipPath><clipPath id="8994112a01"><path d="M 474.136719 1393.101562 C 459.855469 1393.101562 448.277344 1404.683594 448.277344 1418.964844 C 448.277344 1433.25 459.855469 1444.828125 474.136719 1444.828125 C 488.421875 1444.828125 500 1433.25 500 1418.964844 C 500 1404.683594 488.421875 1393.101562 474.136719 1393.101562 Z M 474.136719 1393.101562" clip-rule="nonzero"/></clipPath><clipPath id="efd15f5698"><path d="M 0.277344 0.101562 L 52 0.101562 L 52 51.828125 L 0.277344 51.828125 Z M 0.277344 0.101562" clip-rule="nonzero"/></clipPath><clipPath id="2b50043d64"><path d="M 26.136719 0.101562 C 11.855469 0.101562 0.277344 11.683594 0.277344 25.964844 C 0.277344 40.25 11.855469 51.828125 26.136719 51.828125 C 40.421875 51.828125 52 40.25 52 25.964844 C 52 11.683594 40.421875 0.101562 26.136719 0.101562 Z M 26.136719 0.101562" clip-rule="nonzero"/></clipPath><clipPath id="31cfdfacb1"><rect x="0" width="52" y="0" height="52"/></clipPath><clipPath id="5cc369b78b"><path d="M 213.792969 1234.484375 L 265.515625 1234.484375 L 265.515625 1286.207031 L 213.792969 1286.207031 Z M 213.792969 1234.484375" clip-rule="nonzero"/></clipPath><clipPath id="941c8faddf"><path d="M 239.65625 1234.484375 C 225.371094 1234.484375 213.792969 1246.0625 213.792969 1260.34375 C 213.792969 1274.628906 225.371094 1286.207031 239.65625 1286.207031 C 253.9375 1286.207031 265.515625 1274.628906 265.515625 1260.34375 C 265.515625 1246.0625 253.9375 1234.484375 239.65625 1234.484375 Z M 239.65625 1234.484375" clip-rule="nonzero"/></clipPath><clipPath id="b55dad27a6"><path d="M 0.792969 0.484375 L 52.515625 0.484375 L 52.515625 52.207031 L 0.792969 52.207031 Z M 0.792969 0.484375" clip-rule="nonzero"/></clipPath><clipPath id="ee854f77b1"><path d="M 26.65625 0.484375 C 12.371094 0.484375 0.792969 12.0625 0.792969 26.34375 C 0.792969 40.628906 12.371094 52.207031 26.65625 52.207031 C 40.9375 52.207031 52.515625 40.628906 52.515625 26.34375 C 52.515625 12.0625 40.9375 0.484375 26.65625 0.484375 Z M 26.65625 0.484375" clip-rule="nonzero"/></clipPath><clipPath id="13ace68435"><rect x="0" width="53" y="0" height="53"/></clipPath><clipPath id="7167b7c5f6"><path d="M 55.171875 1000 L 106.898438 1000 L 106.898438 1051.722656 L 55.171875 1051.722656 Z M 55.171875 1000" clip-rule="nonzero"/></clipPath><clipPath id="5077f57065"><path d="M 81.035156 1000 C 66.75 1000 55.171875 1011.578125 55.171875 1025.863281 C 55.171875 1040.144531 66.75 1051.722656 81.035156 1051.722656 C 95.316406 1051.722656 106.898438 1040.144531 106.898438 1025.863281 C 106.898438 1011.578125 95.316406 1000 81.035156 1000 Z M 81.035156 1000" clip-rule="nonzero"/></clipPath><clipPath id="a11ee1182a"><path d="M 0.171875 0 L 51.898438 0 L 51.898438 51.722656 L 0.171875 51.722656 Z M 0.171875 0" clip-rule="nonzero"/></clipPath><clipPath id="b458ac9f50"><path d="M 26.035156 0 C 11.75 0 0.171875 11.578125 0.171875 25.863281 C 0.171875 40.144531 11.75 51.722656 26.035156 51.722656 C 40.316406 51.722656 51.898438 40.144531 51.898438 25.863281 C 51.898438 11.578125 40.316406 0 26.035156 0 Z M 26.035156 0" clip-rule="nonzero"/></clipPath><clipPath id="5aa0d0a95b"><rect x="0" width="52" y="0" height="52"/></clipPath><clipPath id="3f01260288"><path d="M 0 724.136719 L 51.722656 724.136719 L 51.722656 775.863281 L 0 775.863281 Z M 0 724.136719" clip-rule="nonzero"/></clipPath><clipPath id="54c4596159"><path d="M 25.863281 724.136719 C 11.578125 724.136719 0 735.714844 0 750 C 0 764.28125 11.578125 775.863281 25.863281 775.863281 C 40.144531 775.863281 51.722656 764.28125 51.722656 750 C 51.722656 735.714844 40.144531 724.136719 25.863281 724.136719 Z M 25.863281 724.136719" clip-rule="nonzero"/></clipPath><clipPath id="c32f7c5ed6"><path d="M 0 0.136719 L 51.722656 0.136719 L 51.722656 51.863281 L 0 51.863281 Z M 0 0.136719" clip-rule="nonzero"/></clipPath><clipPath id="25f2ecdbfd"><path d="M 25.863281 0.136719 C 11.578125 0.136719 0 11.714844 0 26 C 0 40.28125 11.578125 51.863281 25.863281 51.863281 C 40.144531 51.863281 51.722656 40.28125 51.722656 26 C 51.722656 11.714844 40.144531 0.136719 25.863281 0.136719 Z M 25.863281 0.136719" clip-rule="nonzero"/></clipPath><clipPath id="4d49397e31"><rect x="0" width="52" y="0" height="52"/></clipPath><clipPath id="bacd0cbfca"><path d="M 55.171875 448.277344 L 106.898438 448.277344 L 106.898438 500 L 55.171875 500 Z M 55.171875 448.277344" clip-rule="nonzero"/></clipPath><clipPath id="3d4df5062d"><path d="M 81.035156 448.277344 C 66.75 448.277344 55.171875 459.855469 55.171875 474.136719 C 55.171875 488.421875 66.75 500 81.035156 500 C 95.316406 500 106.898438 488.421875 106.898438 474.136719 C 106.898438 459.855469 95.316406 448.277344 81.035156 448.277344 Z M 81.035156 448.277344" clip-rule="nonzero"/></clipPath><clipPath id="69dd8345f0"><path d="M 0.171875 0.277344 L 51.898438 0.277344 L 51.898438 52 L 0.171875 52 Z M 0.171875 0.277344" clip-rule="nonzero"/></clipPath><clipPath id="7f08cf93d2"><path d="M 26.035156 0.277344 C 11.75 0.277344 0.171875 11.855469 0.171875 26.136719 C 0.171875 40.421875 11.75 52 26.035156 52 C 40.316406 52 51.898438 40.421875 51.898438 26.136719 C 51.898438 11.855469 40.316406 0.277344 26.035156 0.277344 Z M 26.035156 0.277344" clip-rule="nonzero"/></clipPath><clipPath id="908b6dc2d6"><rect x="0" width="52" y="0" height="52"/></clipPath><clipPath id="25bf64faf0"><path d="M 213.792969 213.792969 L 265.515625 213.792969 L 265.515625 265.515625 L 213.792969 265.515625 Z M 213.792969 213.792969" clip-rule="nonzero"/></clipPath><clipPath id="b15e5e6885"><path d="M 239.65625 213.792969 C 225.371094 213.792969 213.792969 225.371094 213.792969 239.65625 C 213.792969 253.9375 225.371094 265.515625 239.65625 265.515625 C 253.9375 265.515625 265.515625 253.9375 265.515625 239.65625 C 265.515625 225.371094 253.9375 213.792969 239.65625 213.792969 Z M 239.65625 213.792969" clip-rule="nonzero"/></clipPath><clipPath id="809488bcc3"><path d="M 0.792969 0.792969 L 52.515625 0.792969 L 52.515625 52.515625 L 0.792969 52.515625 Z M 0.792969 0.792969" clip-rule="nonzero"/></clipPath><clipPath id="134288cc9c"><path d="M 26.65625 0.792969 C 12.371094 0.792969 0.792969 12.371094 0.792969 26.65625 C 0.792969 40.9375 12.371094 52.515625 26.65625 52.515625 C 40.9375 52.515625 52.515625 40.9375 52.515625 26.65625 C 52.515625 12.371094 40.9375 0.792969 26.65625 0.792969 Z M 26.65625 0.792969" clip-rule="nonzero"/></clipPath><clipPath id="a91d79c8d2"><rect x="0" width="53" y="0" height="53"/></clipPath><clipPath id="0ce8fcad17"><path d="M 448.277344 55.171875 L 500 55.171875 L 500 106.898438 L 448.277344 106.898438 Z M 448.277344 55.171875" clip-rule="nonzero"/></clipPath><clipPath id="102e8055b3"><path d="M 474.136719 55.171875 C 459.855469 55.171875 448.277344 66.75 448.277344 81.035156 C 448.277344 95.316406 459.855469 106.898438 474.136719 106.898438 C 488.421875 106.898438 500 95.316406 500 81.035156 C 500 66.75 488.421875 55.171875 474.136719 55.171875 Z M 474.136719 55.171875" clip-rule="nonzero"/></clipPath><clipPath id="368057edae"><path d="M 0.277344 0.171875 L 52 0.171875 L 52 51.898438 L 0.277344 51.898438 Z M 0.277344 0.171875" clip-rule="nonzero"/></clipPath><clipPath id="6fde6fd03b"><path d="M 26.136719 0.171875 C 11.855469 0.171875 0.277344 11.75 0.277344 26.035156 C 0.277344 40.316406 11.855469 51.898438 26.136719 51.898438 C 40.421875 51.898438 52 40.316406 52 26.035156 C 52 11.75 40.421875 0.171875 26.136719 0.171875 Z M 26.136719 0.171875" clip-rule="nonzero"/></clipPath><clipPath id="009341b2f4"><rect x="0" width="52" y="0" height="52"/></clipPath><clipPath id="66c5bdb6d4"><path d="M 724.136719 0 L 775.863281 0 L 775.863281 51.722656 L 724.136719 51.722656 Z M 724.136719 0" clip-rule="nonzero"/></clipPath><clipPath id="5e5a2531a5"><path d="M 750 0 C 735.714844 0 724.136719 11.578125 724.136719 25.863281 C 724.136719 40.144531 735.714844 51.722656 750 51.722656 C 764.28125 51.722656 775.863281 40.144531 775.863281 25.863281 C 775.863281 11.578125 764.28125 0 750 0 Z M 750 0" clip-rule="nonzero"/></clipPath><clipPath id="0e607e6304"><path d="M 0.136719 0 L 51.863281 0 L 51.863281 51.722656 L 0.136719 51.722656 Z M 0.136719 0" clip-rule="nonzero"/></clipPath><clipPath id="18e997065e"><path d="M 26 0 C 11.714844 0 0.136719 11.578125 0.136719 25.863281 C 0.136719 40.144531 11.714844 51.722656 26 51.722656 C 40.28125 51.722656 51.863281 40.144531 51.863281 25.863281 C 51.863281 11.578125 40.28125 0 26 0 Z M 26 0" clip-rule="nonzero"/></clipPath><clipPath id="ee2417babf"><rect x="0" width="52" y="0" height="52"/></clipPath><clipPath id="fe937c4cc8"><path d="M 1000 55.171875 L 1051.722656 55.171875 L 1051.722656 106.898438 L 1000 106.898438 Z M 1000 55.171875" clip-rule="nonzero"/></clipPath><clipPath id="840447aa3e"><path d="M 1025.863281 55.171875 C 1011.578125 55.171875 1000 66.75 1000 81.035156 C 1000 95.316406 1011.578125 106.898438 1025.863281 106.898438 C 1040.144531 106.898438 1051.722656 95.316406 1051.722656 81.035156 C 1051.722656 66.75 1040.144531 55.171875 1025.863281 55.171875 Z M 1025.863281 55.171875" clip-rule="nonzero"/></clipPath><clipPath id="63d2cce49a"><path d="M 0 0.171875 L 51.722656 0.171875 L 51.722656 51.898438 L 0 51.898438 Z M 0 0.171875" clip-rule="nonzero"/></clipPath><clipPath id="196de6d7d1"><path d="M 25.863281 0.171875 C 11.578125 0.171875 0 11.75 0 26.035156 C 0 40.316406 11.578125 51.898438 25.863281 51.898438 C 40.144531 51.898438 51.722656 40.316406 51.722656 26.035156 C 51.722656 11.75 40.144531 0.171875 25.863281 0.171875 Z M 25.863281 0.171875" clip-rule="nonzero"/></clipPath><clipPath id="7b8e377101"><rect x="0" width="52" y="0" height="52"/></clipPath><clipPath id="ce09250dd1"><path d="M 1234.484375 213.792969 L 1286.207031 213.792969 L 1286.207031 265.515625 L 1234.484375 265.515625 Z M 1234.484375 213.792969" clip-rule="nonzero"/></clipPath><clipPath id="9f2015f418"><path d="M 1260.34375 213.792969 C 1246.0625 213.792969 1234.484375 225.371094 1234.484375 239.65625 C 1234.484375 253.9375 1246.0625 265.515625 1260.34375 265.515625 C 1274.628906 265.515625 1286.207031 253.9375 1286.207031 239.65625 C 1286.207031 225.371094 1274.628906 213.792969 1260.34375 213.792969 Z M 1260.34375 213.792969" clip-rule="nonzero"/></clipPath><clipPath id="9c56d7abaf"><path d="M 0.484375 0.792969 L 52.207031 0.792969 L 52.207031 52.515625 L 0.484375 52.515625 Z M 0.484375 0.792969" clip-rule="nonzero"/></clipPath><clipPath id="0a9ff6b272"><path d="M 26.34375 0.792969 C 12.0625 0.792969 0.484375 12.371094 0.484375 26.65625 C 0.484375 40.9375 12.0625 52.515625 26.34375 52.515625 C 40.628906 52.515625 52.207031 40.9375 52.207031 26.65625 C 52.207031 12.371094 40.628906 0.792969 26.34375 0.792969 Z M 26.34375 0.792969" clip-rule="nonzero"/></clipPath><clipPath id="80245a2ca6"><rect x="0" width="53" y="0" height="53"/></clipPath><clipPath id="d3cc1421ca"><path d="M 1393.101562 448.277344 L 1444.828125 448.277344 L 1444.828125 500 L 1393.101562 500 Z M 1393.101562 448.277344" clip-rule="nonzero"/></clipPath><clipPath id="dc3d9e9993"><path d="M 1418.964844 448.277344 C 1404.683594 448.277344 1393.101562 459.855469 1393.101562 474.136719 C 1393.101562 488.421875 1404.683594 500 1418.964844 500 C 1433.25 500 1444.828125 488.421875 1444.828125 474.136719 C 1444.828125 459.855469 1433.25 448.277344 1418.964844 448.277344 Z M 1418.964844 448.277344" clip-rule="nonzero"/></clipPath><clipPath id="6ad57a402d"><path d="M 0.101562 0.277344 L 51.828125 0.277344 L 51.828125 52 L 0.101562 52 Z M 0.101562 0.277344" clip-rule="nonzero"/></clipPath><clipPath id="cd734976b6"><path d="M 25.964844 0.277344 C 11.683594 0.277344 0.101562 11.855469 0.101562 26.136719 C 0.101562 40.421875 11.683594 52 25.964844 52 C 40.25 52 51.828125 40.421875 51.828125 26.136719 C 51.828125 11.855469 40.25 0.277344 25.964844 0.277344 Z M 25.964844 0.277344" clip-rule="nonzero"/></clipPath><clipPath id="2c805d5489"><rect x="0" width="52" y="0" height="52"/></clipPath><clipPath id="23e0092fc1"><rect x="0" width="1500" y="0" height="1500"/></clipPath><clipPath id="91a40b3f39"><path d="M 646.550781 646.550781 L 853.449219 646.550781 L 853.449219 853.449219 L 646.550781 853.449219 Z M 646.550781 646.550781" clip-rule="nonzero"/></clipPath><clipPath id="df61becfab"><path d="M 750 646.550781 C 692.867188 646.550781 646.550781 692.867188 646.550781 750 C 646.550781 807.132812 692.867188 853.449219 750 853.449219 C 807.132812 853.449219 853.449219 807.132812 853.449219 750 C 853.449219 692.867188 807.132812 646.550781 750 646.550781 Z M 750 646.550781" clip-rule="nonzero"/></clipPath><clipPath id="5d5c6fe61c"><path d="M 0.550781 0.550781 L 207.449219 0.550781 L 207.449219 207.449219 L 0.550781 207.449219 Z M 0.550781 0.550781" clip-rule="nonzero"/></clipPath><clipPath id="b7b2e62346"><path d="M 104 0.550781 C 46.867188 0.550781 0.550781 46.867188 0.550781 104 C 0.550781 161.132812 46.867188 207.449219 104 207.449219 C 161.132812 207.449219 207.449219 161.132812 207.449219 104 C 207.449219 46.867188 161.132812 0.550781 104 0.550781 Z M 104 0.550781" clip-rule="nonzero"/></clipPath><clipPath id="66602a42e8"><rect x="0" width="208" y="0" height="208"/></clipPath><clipPath id="a75f614ebe"><path d="M 922.414062 681.035156 L 1060.34375 681.035156 L 1060.34375 818.964844 L 922.414062 818.964844 Z M 922.414062 681.035156" clip-rule="nonzero"/></clipPath><clipPath id="d31f7c2304"><path d="M 991.378906 681.035156 C 953.289062 681.035156 922.414062 711.910156 922.414062 750 C 922.414062 788.089844 953.289062 818.964844 991.378906 818.964844 C 1029.46875 818.964844 1060.34375 788.089844 1060.34375 750 C 1060.34375 711.910156 1029.46875 681.035156 991.378906 681.035156 Z M 991.378906 681.035156" clip-rule="nonzero"/></clipPath><clipPath id="c572638cd9"><path d="M 0.414062 0.0351562 L 138.34375 0.0351562 L 138.34375 137.964844 L 0.414062 137.964844 Z M 0.414062 0.0351562" clip-rule="nonzero"/></clipPath><clipPath id="266e1d22e8"><path d="M 69.378906 0.0351562 C 31.289062 0.0351562 0.414062 30.910156 0.414062 69 C 0.414062 107.089844 31.289062 137.964844 69.378906 137.964844 C 107.46875 137.964844 138.34375 107.089844 138.34375 69 C 138.34375 30.910156 107.46875 0.0351562 69.378906 0.0351562 Z M 69.378906 0.0351562" clip-rule="nonzero"/></clipPath><clipPath id="66edc0f09b"><rect x="0" width="139" y="0" height="138"/></clipPath><clipPath id="6e2d37e162"><path d="M 850 850 L 987.929688 850 L 987.929688 987.929688 L 850 987.929688 Z M 850 850" clip-rule="nonzero"/></clipPath><clipPath id="26c2fef836"><path d="M 918.964844 850 C 880.875 850 850 880.875 850 918.964844 C 850 957.054688 880.875 987.929688 918.964844 987.929688 C 957.054688 987.929688 987.929688 957.054688 987.929688 918.964844 C 987.929688 880.875 957.054688 850 918.964844 850 Z M 918.964844 850" clip-rule="nonzero"/></clipPath><clipPath id="8e4320ffec"><path d="M 0 0 L 137.929688 0 L 137.929688 137.929688 L 0 137.929688 Z M 0 0" clip-rule="nonzero"/></clipPath><clipPath id="8c9b8ef5f4"><path d="M 68.964844 0 C 30.875 0 0 30.875 0 68.964844 C 0 107.054688 30.875 137.929688 68.964844 137.929688 C 107.054688 137.929688 137.929688 107.054688 137.929688 68.964844 C 137.929688 30.875 107.054688 0 68.964844 0 Z M 68.964844 0" clip-rule="nonzero"/></clipPath><clipPath id="ccbbf0431f"><rect x="0" width="138" y="0" height="138"/></clipPath><clipPath id="203c79cf92"><path d="M 681.035156 922.414062 L 818.964844 922.414062 L 818.964844 1060.34375 L 681.035156 1060.34375 Z M 681.035156 922.414062" clip-rule="nonzero"/></clipPath><clipPath id="643b1c95f9"><path d="M 750 922.414062 C 711.910156 922.414062 681.035156 953.289062 681.035156 991.378906 C 681.035156 1029.46875 711.910156 1060.34375 750 1060.34375 C 788.089844 1060.34375 818.964844 1029.46875 818.964844 991.378906 C 818.964844 953.289062 788.089844 922.414062 750 922.414062 Z M 750 922.414062" clip-rule="nonzero"/></clipPath><clipPath id="b9d3964607"><path d="M 0.0351562 0.414062 L 137.964844 0.414062 L 137.964844 138.34375 L 0.0351562 138.34375 Z M 0.0351562 0.414062" clip-rule="nonzero"/></clipPath><clipPath id="055427da8a"><path d="M 69 0.414062 C 30.910156 0.414062 0.0351562 31.289062 0.0351562 69.378906 C 0.0351562 107.46875 30.910156 138.34375 69 138.34375 C 107.089844 138.34375 137.964844 107.46875 137.964844 69.378906 C 137.964844 31.289062 107.089844 0.414062 69 0.414062 Z M 69 0.414062" clip-rule="nonzero"/></clipPath><clipPath id="bef0706f27"><rect x="0" width="138" y="0" height="139"/></clipPath><clipPath id="4292ae115c"><path d="M 512.070312 850 L 650 850 L 650 987.929688 L 512.070312 987.929688 Z M 512.070312 850" clip-rule="nonzero"/></clipPath><clipPath id="fdce88e3e7"><path d="M 581.035156 850 C 542.945312 850 512.070312 880.875 512.070312 918.964844 C 512.070312 957.054688 542.945312 987.929688 581.035156 987.929688 C 619.121094 987.929688 650 957.054688 650 918.964844 C 650 880.875 619.121094 850 581.035156 850 Z M 581.035156 850" clip-rule="nonzero"/></clipPath><clipPath id="8d096eb49a"><path d="M 0.0703125 0 L 138 0 L 138 137.929688 L 0.0703125 137.929688 Z M 0.0703125 0" clip-rule="nonzero"/></clipPath><clipPath id="468d4b9e3c"><path d="M 69.035156 0 C 30.945312 0 0.0703125 30.875 0.0703125 68.964844 C 0.0703125 107.054688 30.945312 137.929688 69.035156 137.929688 C 107.121094 137.929688 138 107.054688 138 68.964844 C 138 30.875 107.121094 0 69.035156 0 Z M 69.035156 0" clip-rule="nonzero"/></clipPath><clipPath id="4ff4922eb9"><rect x="0" width="138" y="0" height="138"/></clipPath><clipPath id="1fdfea66c9"><path d="M 439.65625 681.035156 L 577.585938 681.035156 L 577.585938 818.964844 L 439.65625 818.964844 Z M 439.65625 681.035156" clip-rule="nonzero"/></clipPath><clipPath id="431be0595b"><path d="M 508.621094 681.035156 C 470.53125 681.035156 439.65625 711.910156 439.65625 750 C 439.65625 788.089844 470.53125 818.964844 508.621094 818.964844 C 546.710938 818.964844 577.585938 788.089844 577.585938 750 C 577.585938 711.910156 546.710938 681.035156 508.621094 681.035156 Z M 508.621094 681.035156" clip-rule="nonzero"/></clipPath><clipPath id="ad08b431d0"><path d="M 0.65625 0.0351562 L 138.585938 0.0351562 L 138.585938 137.964844 L 0.65625 137.964844 Z M 0.65625 0.0351562" clip-rule="nonzero"/></clipPath><clipPath id="77381c8bdf"><path d="M 69.621094 0.0351562 C 31.53125 0.0351562 0.65625 30.910156 0.65625 69 C 0.65625 107.089844 31.53125 137.964844 69.621094 137.964844 C 107.710938 137.964844 138.585938 107.089844 138.585938 69 C 138.585938 30.910156 107.710938 0.0351562 69.621094 0.0351562 Z M 69.621094 0.0351562" clip-rule="nonzero"/></clipPath><clipPath id="45c88ba4ef"><rect x="0" width="139" y="0" height="138"/></clipPath><clipPath id="1c6510f157"><path d="M 512.070312 512.070312 L 650 512.070312 L 650 650 L 512.070312 650 Z M 512.070312 512.070312" clip-rule="nonzero"/></clipPath><clipPath id="0262ff2287"><path d="M 581.035156 512.070312 C 542.945312 512.070312 512.070312 542.945312 512.070312 581.035156 C 512.070312 619.121094 542.945312 650 581.035156 650 C 619.121094 650 650 619.121094 650 581.035156 C 650 542.945312 619.121094 512.070312 581.035156 512.070312 Z M 581.035156 512.070312" clip-rule="nonzero"/></clipPath><clipPath id="90c68fa7e2"><path d="M 0.0703125 0.0703125 L 138 0.0703125 L 138 138 L 0.0703125 138 Z M 0.0703125 0.0703125" clip-rule="nonzero"/></clipPath><clipPath id="19480f2b95"><path d="M 69.035156 0.0703125 C 30.945312 0.0703125 0.0703125 30.945312 0.0703125 69.035156 C 0.0703125 107.121094 30.945312 138 69.035156 138 C 107.121094 138 138 107.121094 138 69.035156 C 138 30.945312 107.121094 0.0703125 69.035156 0.0703125 Z M 69.035156 0.0703125" clip-rule="nonzero"/></clipPath><clipPath id="e9630090bd"><rect x="0" width="138" y="0" height="138"/></clipPath><clipPath id="0f4aac1410"><path d="M 681.035156 439.65625 L 818.964844 439.65625 L 818.964844 577.585938 L 681.035156 577.585938 Z M 681.035156 439.65625" clip-rule="nonzero"/></clipPath><clipPath id="b215481548"><path d="M 750 439.65625 C 711.910156 439.65625 681.035156 470.53125 681.035156 508.621094 C 681.035156 546.710938 711.910156 577.585938 750 577.585938 C 788.089844 577.585938 818.964844 546.710938 818.964844 508.621094 C 818.964844 470.53125 788.089844 439.65625 750 439.65625 Z M 750 439.65625" clip-rule="nonzero"/></clipPath><clipPath id="e20d483aba"><path d="M 0.0351562 0.65625 L 137.964844 0.65625 L 137.964844 138.585938 L 0.0351562 138.585938 Z M 0.0351562 0.65625" clip-rule="nonzero"/></clipPath><clipPath id="10739e743e"><path d="M 69 0.65625 C 30.910156 0.65625 0.0351562 31.53125 0.0351562 69.621094 C 0.0351562 107.710938 30.910156 138.585938 69 138.585938 C 107.089844 138.585938 137.964844 107.710938 137.964844 69.621094 C 137.964844 31.53125 107.089844 0.65625 69 0.65625 Z M 69 0.65625" clip-rule="nonzero"/></clipPath><clipPath id="19d7c92b91"><rect x="0" width="138" y="0" height="139"/></clipPath><clipPath id="86450398f1"><path d="M 850 512.070312 L 987.929688 512.070312 L 987.929688 650 L 850 650 Z M 850 512.070312" clip-rule="nonzero"/></clipPath><clipPath id="b805988ee9"><path d="M 918.964844 512.070312 C 880.875 512.070312 850 542.945312 850 581.035156 C 850 619.121094 880.875 650 918.964844 650 C 957.054688 650 987.929688 619.121094 987.929688 581.035156 C 987.929688 542.945312 957.054688 512.070312 918.964844 512.070312 Z M 918.964844 512.070312" clip-rule="nonzero"/></clipPath><clipPath id="8833f8e29e"><path d="M 0 0.0703125 L 137.929688 0.0703125 L 137.929688 138 L 0 138 Z M 0 0.0703125" clip-rule="nonzero"/></clipPath><clipPath id="0ceed99912"><path d="M 68.964844 0.0703125 C 30.875 0.0703125 0 30.945312 0 69.035156 C 0 107.121094 30.875 138 68.964844 138 C 107.054688 138 137.929688 107.121094 137.929688 69.035156 C 137.929688 30.945312 107.054688 0.0703125 68.964844 0.0703125 Z M 68.964844 0.0703125" clip-rule="nonzero"/></clipPath><clipPath id="52e431777b"><rect x="0" width="138" y="0" height="138"/></clipPath><clipPath id="245e0c60a8"><path d="M 966.65625 483.894531 L 1052.863281 483.894531 L 1052.863281 570.101562 L 966.65625 570.101562 Z M 966.65625 483.894531" clip-rule="nonzero"/></clipPath><clipPath id="ec268067f7"><path d="M 1009.757812 483.894531 C 985.953125 483.894531 966.65625 503.195312 966.65625 527 C 966.65625 550.804688 985.953125 570.101562 1009.757812 570.101562 C 1033.5625 570.101562 1052.863281 550.804688 1052.863281 527 C 1052.863281 503.195312 1033.5625 483.894531 1009.757812 483.894531 Z M 1009.757812 483.894531" clip-rule="nonzero"/></clipPath><clipPath id="5e7e98b672"><path d="M 0.65625 0.894531 L 86.863281 0.894531 L 86.863281 87.101562 L 0.65625 87.101562 Z M 0.65625 0.894531" clip-rule="nonzero"/></clipPath><clipPath id="566fc74d2f"><path d="M 43.757812 0.894531 C 19.953125 0.894531 0.65625 20.195312 0.65625 44 C 0.65625 67.804688 19.953125 87.101562 43.757812 87.101562 C 67.5625 87.101562 86.863281 67.804688 86.863281 44 C 86.863281 20.195312 67.5625 0.894531 43.757812 0.894531 Z M 43.757812 0.894531" clip-rule="nonzero"/></clipPath><clipPath id="969188f2ae"><rect x="0" width="87" y="0" height="88"/></clipPath><clipPath id="3284f816c9"><path d="M 901.136719 723.550781 L 987.34375 723.550781 L 987.34375 809.757812 L 901.136719 809.757812 Z M 901.136719 723.550781" clip-rule="nonzero"/></clipPath><clipPath id="498bf6a418"><path d="M 944.242188 723.550781 C 920.4375 723.550781 901.136719 742.851562 901.136719 766.65625 C 901.136719 790.460938 920.4375 809.757812 944.242188 809.757812 C 968.046875 809.757812 987.34375 790.460938 987.34375 766.65625 C 987.34375 742.851562 968.046875 723.550781 944.242188 723.550781 Z M 944.242188 723.550781" clip-rule="nonzero"/></clipPath><clipPath id="1242f3f23a"><path d="M 0.136719 0.550781 L 86.34375 0.550781 L 86.34375 86.757812 L 0.136719 86.757812 Z M 0.136719 0.550781" clip-rule="nonzero"/></clipPath><clipPath id="c28cfba0bb"><path d="M 43.242188 0.550781 C 19.4375 0.550781 0.136719 19.851562 0.136719 43.65625 C 0.136719 67.460938 19.4375 86.757812 43.242188 86.757812 C 67.046875 86.757812 86.34375 67.460938 86.34375 43.65625 C 86.34375 19.851562 67.046875 0.550781 43.242188 0.550781 Z M 43.242188 0.550781" clip-rule="nonzero"/></clipPath><clipPath id="14eb66d14f"><rect x="0" width="87" y="0" height="87"/></clipPath><clipPath id="4c5768ef81"><path d="M 725.277344 901.136719 L 811.484375 901.136719 L 811.484375 987.34375 L 725.277344 987.34375 Z M 725.277344 901.136719" clip-rule="nonzero"/></clipPath><clipPath id="6d0a8cfdbe"><path d="M 768.378906 901.136719 C 744.574219 901.136719 725.277344 920.4375 725.277344 944.242188 C 725.277344 968.046875 744.574219 987.34375 768.378906 987.34375 C 792.183594 987.34375 811.484375 968.046875 811.484375 944.242188 C 811.484375 920.4375 792.183594 901.136719 768.378906 901.136719 Z M 768.378906 901.136719" clip-rule="nonzero"/></clipPath><clipPath id="bbfcf959e5"><path d="M 0.277344 0.136719 L 86.484375 0.136719 L 86.484375 86.34375 L 0.277344 86.34375 Z M 0.277344 0.136719" clip-rule="nonzero"/></clipPath><clipPath id="dc8acc820c"><path d="M 43.378906 0.136719 C 19.574219 0.136719 0.277344 19.4375 0.277344 43.242188 C 0.277344 67.046875 19.574219 86.34375 43.378906 86.34375 C 67.183594 86.34375 86.484375 67.046875 86.484375 43.242188 C 86.484375 19.4375 67.183594 0.136719 43.378906 0.136719 Z M 43.378906 0.136719" clip-rule="nonzero"/></clipPath><clipPath id="180907bdb3"><rect x="0" width="87" y="0" height="87"/></clipPath><clipPath id="967c60bb78"><path d="M 483.898438 966.65625 L 570.101562 966.65625 L 570.101562 1052.863281 L 483.898438 1052.863281 Z M 483.898438 966.65625" clip-rule="nonzero"/></clipPath><clipPath id="c71262387c"><path d="M 527 966.65625 C 503.195312 966.65625 483.898438 985.953125 483.898438 1009.757812 C 483.898438 1033.5625 503.195312 1052.863281 527 1052.863281 C 550.804688 1052.863281 570.101562 1033.5625 570.101562 1009.757812 C 570.101562 985.953125 550.804688 966.65625 527 966.65625 Z M 527 966.65625" clip-rule="nonzero"/></clipPath><clipPath id="63246d3beb"><path d="M 0.898438 0.65625 L 87.101562 0.65625 L 87.101562 86.863281 L 0.898438 86.863281 Z M 0.898438 0.65625" clip-rule="nonzero"/></clipPath><clipPath id="6fa5ced8cb"><path d="M 44 0.65625 C 20.195312 0.65625 0.898438 19.953125 0.898438 43.757812 C 0.898438 67.5625 20.195312 86.863281 44 86.863281 C 67.804688 86.863281 87.101562 67.5625 87.101562 43.757812 C 87.101562 19.953125 67.804688 0.65625 44 0.65625 Z M 44 0.65625" clip-rule="nonzero"/></clipPath><clipPath id="fb36f50244"><rect x="0" width="88" y="0" height="87"/></clipPath><clipPath id="8812e7dc05"><path d="M 244.242188 901.136719 L 330.449219 901.136719 L 330.449219 987.34375 L 244.242188 987.34375 Z M 244.242188 901.136719" clip-rule="nonzero"/></clipPath><clipPath id="65894b09d6"><path d="M 287.34375 901.136719 C 263.539062 901.136719 244.242188 920.4375 244.242188 944.242188 C 244.242188 968.046875 263.539062 987.34375 287.34375 987.34375 C 311.148438 987.34375 330.449219 968.046875 330.449219 944.242188 C 330.449219 920.4375 311.148438 901.136719 287.34375 901.136719 Z M 287.34375 901.136719" clip-rule="nonzero"/></clipPath><clipPath id="6e9a817271"><path d="M 0.242188 0.136719 L 86.449219 0.136719 L 86.449219 86.34375 L 0.242188 86.34375 Z M 0.242188 0.136719" clip-rule="nonzero"/></clipPath><clipPath id="6e08e218eb"><path d="M 43.34375 0.136719 C 19.539062 0.136719 0.242188 19.4375 0.242188 43.242188 C 0.242188 67.046875 19.539062 86.34375 43.34375 86.34375 C 67.148438 86.34375 86.449219 67.046875 86.449219 43.242188 C 86.449219 19.4375 67.148438 0.136719 43.34375 0.136719 Z M 43.34375 0.136719" clip-rule="nonzero"/></clipPath><clipPath id="64eb52a1ce"><rect x="0" width="87" y="0" height="87"/></clipPath><clipPath id="71909d983b"><path d="M 66.65625 725.277344 L 152.863281 725.277344 L 152.863281 811.484375 L 66.65625 811.484375 Z M 66.65625 725.277344" clip-rule="nonzero"/></clipPath><clipPath id="48e4404d8a"><path d="M 109.757812 725.277344 C 85.953125 725.277344 66.65625 744.574219 66.65625 768.378906 C 66.65625 792.183594 85.953125 811.484375 109.757812 811.484375 C 133.5625 811.484375 152.863281 792.183594 152.863281 768.378906 C 152.863281 744.574219 133.5625 725.277344 109.757812 725.277344 Z M 109.757812 725.277344" clip-rule="nonzero"/></clipPath><clipPath id="5af35bf714"><path d="M 0.65625 0.277344 L 86.863281 0.277344 L 86.863281 86.484375 L 0.65625 86.484375 Z M 0.65625 0.277344" clip-rule="nonzero"/></clipPath><clipPath id="38a51e9fd8"><path d="M 43.757812 0.277344 C 19.953125 0.277344 0.65625 19.574219 0.65625 43.378906 C 0.65625 67.183594 19.953125 86.484375 43.757812 86.484375 C 67.5625 86.484375 86.863281 67.183594 86.863281 43.378906 C 86.863281 19.574219 67.5625 0.277344 43.757812 0.277344 Z M 43.757812 0.277344" clip-rule="nonzero"/></clipPath><clipPath id="37f68ead22"><rect x="0" width="87" y="0" height="87"/></clipPath><clipPath id="28e43b6e44"><path d="M 1.136719 483.894531 L 87.34375 483.894531 L 87.34375 570.101562 L 1.136719 570.101562 Z M 1.136719 483.894531" clip-rule="nonzero"/></clipPath><clipPath id="e17895cd58"><path d="M 44.242188 483.894531 C 20.4375 483.894531 1.136719 503.195312 1.136719 527 C 1.136719 550.804688 20.4375 570.101562 44.242188 570.101562 C 68.046875 570.101562 87.34375 550.804688 87.34375 527 C 87.34375 503.195312 68.046875 483.894531 44.242188 483.894531 Z M 44.242188 483.894531" clip-rule="nonzero"/></clipPath><clipPath id="d38676293e"><path d="M 0.136719 0.894531 L 86.34375 0.894531 L 86.34375 87.101562 L 0.136719 87.101562 Z M 0.136719 0.894531" clip-rule="nonzero"/></clipPath><clipPath id="1672616a3c"><path d="M 43.242188 0.894531 C 19.4375 0.894531 0.136719 20.195312 0.136719 44 C 0.136719 67.804688 19.4375 87.101562 43.242188 87.101562 C 67.046875 87.101562 86.34375 67.804688 86.34375 44 C 86.34375 20.195312 67.046875 0.894531 43.242188 0.894531 Z M 43.242188 0.894531" clip-rule="nonzero"/></clipPath><clipPath id="492f434cc0"><rect x="0" width="87" y="0" height="88"/></clipPath><clipPath id="86f5fff8fa"><path d="M 66.65625 244.242188 L 152.863281 244.242188 L 152.863281 330.449219 L 66.65625 330.449219 Z M 66.65625 244.242188" clip-rule="nonzero"/></clipPath><clipPath id="af0b13ca26"><path d="M 109.757812 244.242188 C 85.953125 244.242188 66.65625 263.539062 66.65625 287.34375 C 66.65625 311.148438 85.953125 330.449219 109.757812 330.449219 C 133.5625 330.449219 152.863281 311.148438 152.863281 287.34375 C 152.863281 263.539062 133.5625 244.242188 109.757812 244.242188 Z M 109.757812 244.242188" clip-rule="nonzero"/></clipPath><clipPath id="8430114f74"><path d="M 0.65625 0.242188 L 86.863281 0.242188 L 86.863281 86.449219 L 0.65625 86.449219 Z M 0.65625 0.242188" clip-rule="nonzero"/></clipPath><clipPath id="f39a480eaa"><path d="M 43.757812 0.242188 C 19.953125 0.242188 0.65625 19.539062 0.65625 43.34375 C 0.65625 67.148438 19.953125 86.449219 43.757812 86.449219 C 67.5625 86.449219 86.863281 67.148438 86.863281 43.34375 C 86.863281 19.539062 67.5625 0.242188 43.757812 0.242188 Z M 43.757812 0.242188" clip-rule="nonzero"/></clipPath><clipPath id="a24c4e7d26"><rect x="0" width="87" y="0" height="87"/></clipPath><clipPath id="011fc5d9f2"><path d="M 242.515625 66.65625 L 328.722656 66.65625 L 328.722656 152.863281 L 242.515625 152.863281 Z M 242.515625 66.65625" clip-rule="nonzero"/></clipPath><clipPath id="e0fa322fa2"><path d="M 285.621094 66.65625 C 261.816406 66.65625 242.515625 85.953125 242.515625 109.757812 C 242.515625 133.5625 261.816406 152.863281 285.621094 152.863281 C 309.425781 152.863281 328.722656 133.5625 328.722656 109.757812 C 328.722656 85.953125 309.425781 66.65625 285.621094 66.65625 Z M 285.621094 66.65625" clip-rule="nonzero"/></clipPath><clipPath id="46f2834112"><path d="M 0.515625 0.65625 L 86.722656 0.65625 L 86.722656 86.863281 L 0.515625 86.863281 Z M 0.515625 0.65625" clip-rule="nonzero"/></clipPath><clipPath id="4493b65656"><path d="M 43.621094 0.65625 C 19.816406 0.65625 0.515625 19.953125 0.515625 43.757812 C 0.515625 67.5625 19.816406 86.863281 43.621094 86.863281 C 67.425781 86.863281 86.722656 67.5625 86.722656 43.757812 C 86.722656 19.953125 67.425781 0.65625 43.621094 0.65625 Z M 43.621094 0.65625" clip-rule="nonzero"/></clipPath><clipPath id="9a6ac0a486"><rect x="0" width="87" y="0" height="87"/></clipPath><clipPath id="98caa410d5"><path d="M 483.898438 1.136719 L 570.101562 1.136719 L 570.101562 87.34375 L 483.898438 87.34375 Z M 483.898438 1.136719" clip-rule="nonzero"/></clipPath><clipPath id="24eaea86ae"><path d="M 527 1.136719 C 503.195312 1.136719 483.898438 20.4375 483.898438 44.242188 C 483.898438 68.046875 503.195312 87.34375 527 87.34375 C 550.804688 87.34375 570.101562 68.046875 570.101562 44.242188 C 570.101562 20.4375 550.804688 1.136719 527 1.136719 Z M 527 1.136719" clip-rule="nonzero"/></clipPath><clipPath id="73c1ee17c3"><path d="M 0.898438 0.136719 L 87.101562 0.136719 L 87.101562 86.34375 L 0.898438 86.34375 Z M 0.898438 0.136719" clip-rule="nonzero"/></clipPath><clipPath id="63493b8aa6"><path d="M 44 0.136719 C 20.195312 0.136719 0.898438 19.4375 0.898438 43.242188 C 0.898438 67.046875 20.195312 86.34375 44 86.34375 C 67.804688 86.34375 87.101562 67.046875 87.101562 43.242188 C 87.101562 19.4375 67.804688 0.136719 44 0.136719 Z M 44 0.136719" clip-rule="nonzero"/></clipPath><clipPath id="b9cbcc25b8"><rect x="0" width="88" y="0" height="87"/></clipPath><clipPath id="cb50be20a3"><path d="M 723.550781 66.65625 L 809.757812 66.65625 L 809.757812 152.863281 L 723.550781 152.863281 Z M 723.550781 66.65625" clip-rule="nonzero"/></clipPath><clipPath id="8951fb8993"><path d="M 766.65625 66.65625 C 742.851562 66.65625 723.550781 85.953125 723.550781 109.757812 C 723.550781 133.5625 742.851562 152.863281 766.65625 152.863281 C 790.460938 152.863281 809.757812 133.5625 809.757812 109.757812 C 809.757812 85.953125 790.460938 66.65625 766.65625 66.65625 Z M 766.65625 66.65625" clip-rule="nonzero"/></clipPath><clipPath id="4f6742c483"><path d="M 0.550781 0.65625 L 86.757812 0.65625 L 86.757812 86.863281 L 0.550781 86.863281 Z M 0.550781 0.65625" clip-rule="nonzero"/></clipPath><clipPath id="3d15ef99c1"><path d="M 43.65625 0.65625 C 19.851562 0.65625 0.550781 19.953125 0.550781 43.757812 C 0.550781 67.5625 19.851562 86.863281 43.65625 86.863281 C 67.460938 86.863281 86.757812 67.5625 86.757812 43.757812 C 86.757812 19.953125 67.460938 0.65625 43.65625 0.65625 Z M 43.65625 0.65625" clip-rule="nonzero"/></clipPath><clipPath id="4f63480523"><rect x="0" width="87" y="0" height="87"/></clipPath><clipPath id="980da53e08"><path d="M 901.136719 242.515625 L 987.34375 242.515625 L 987.34375 328.722656 L 901.136719 328.722656 Z M 901.136719 242.515625" clip-rule="nonzero"/></clipPath><clipPath id="8676d970cc"><path d="M 944.242188 242.515625 C 920.4375 242.515625 901.136719 261.816406 901.136719 285.621094 C 901.136719 309.425781 920.4375 328.722656 944.242188 328.722656 C 968.046875 328.722656 987.34375 309.425781 987.34375 285.621094 C 987.34375 261.816406 968.046875 242.515625 944.242188 242.515625 Z M 944.242188 242.515625" clip-rule="nonzero"/></clipPath><clipPath id="299f52d21c"><path d="M 0.136719 0.515625 L 86.34375 0.515625 L 86.34375 86.722656 L 0.136719 86.722656 Z M 0.136719 0.515625" clip-rule="nonzero"/></clipPath><clipPath id="5985effdd5"><path d="M 43.242188 0.515625 C 19.4375 0.515625 0.136719 19.816406 0.136719 43.621094 C 0.136719 67.425781 19.4375 86.722656 43.242188 86.722656 C 67.046875 86.722656 86.34375 67.425781 86.34375 43.621094 C 86.34375 19.816406 67.046875 0.515625 43.242188 0.515625 Z M 43.242188 0.515625" clip-rule="nonzero"/></clipPath><clipPath id="e010577e79"><rect x="0" width="87" y="0" height="87"/></clipPath><clipPath id="656f79cc72"><rect x="0" width="1054" y="0" height="1054"/></clipPath></defs><g transform="matrix(1, 0, 0, 1, 0, 0.000000000000112861)"><g clip-path="url(#23e0092fc1)"><g clip-path="url(#a46b98f0af)"><g clip-path="url(#fff2e981eb)"><g transform="matrix(1, 0, 0, 1, 1448, 724)"><g clip-path="url(#35479c85a1)"><g clip-path="url(#6c3289d3da)"><g clip-path="url(#a4ff50d452)"><path fill="#61c2a2" d="M 0.277344 0.136719 L 52 0.136719 L 52 51.863281 L 0.277344 51.863281 Z M 0.277344 0.136719" fill-opacity="1" fill-rule="nonzero"/></g></g></g></g></g></g><g clip-path="url(#426c5639e8)"><g clip-path="url(#14020f4a2e)"><g transform="matrix(1, 0, 0, 1, 1393, 1000)"><g clip-path="url(#ef92f61d7c)"><g clip-path="url(#175191ea5d)"><g clip-path="url(#1386a24c23)"><path fill="#61c2a2" d="M 0.101562 0 L 51.828125 0 L 51.828125 51.722656 L 0.101562 51.722656 Z M 0.101562 0" fill-opacity="1" fill-rule="nonzero"/></g></g></g></g></g></g><g clip-path="url(#5163242f36)"><g clip-path="url(#76a69f39ff)"><g transform="matrix(1, 0, 0, 1, 1234, 1234)"><g clip-path="url(#664280f0cc)"><g clip-path="url(#b0c35f61f9)"><g clip-path="url(#f60355e062)"><path fill="#61c2a2" d="M 0.484375 0.484375 L 52.207031 0.484375 L 52.207031 52.207031 L 0.484375 52.207031 Z M 0.484375 0.484375" fill-opacity="1" fill-rule="nonzero"/></g></g></g></g></g></g><g clip-path="url(#011d4371c1)"><g clip-path="url(#44158fb70b)"><g transform="matrix(1, 0, 0, 1, 1000, 1393)"><g clip-path="url(#006cd604b4)"><g clip-path="url(#926570aa61)"><g clip-path="url(#a257970b03)"><path fill="#61c2a2" d="M 0 0.101562 L 51.722656 0.101562 L 51.722656 51.828125 L 0 51.828125 Z M 0 0.101562" fill-opacity="1" fill-rule="nonzero"/></g></g></g></g></g></g><g clip-path="url(#4d5f92808c)"><g clip-path="url(#ec4c70455e)"><g transform="matrix(1, 0, 0, 1, 724, 1448)"><g clip-path="url(#c42916c395)"><g clip-path="url(#888a5fa90d)"><g clip-path="url(#812ed2fae7)"><path fill="#61c2a2" d="M 0.136719 0.277344 L 51.863281 0.277344 L 51.863281 52 L 0.136719 52 Z M 0.136719 0.277344" fill-opacity="1" fill-rule="nonzero"/></g></g></g></g></g></g><g clip-path="url(#b35768e8cf)"><g clip-path="url(#8994112a01)"><g transform="matrix(1, 0, 0, 1, 448, 1393)"><g clip-path="url(#31cfdfacb1)"><g clip-path="url(#efd15f5698)"><g clip-path="url(#2b50043d64)"><path fill="#61c2a2" d="M 0.277344 0.101562 L 52 0.101562 L 52 51.828125 L 0.277344 51.828125 Z M 0.277344 0.101562" fill-opacity="1" fill-rule="nonzero"/></g></g></g></g></g></g><g clip-path="url(#5cc369b78b)"><g clip-path="url(#941c8faddf)"><g transform="matrix(1, 0, 0, 1, 213, 1234)"><g clip-path="url(#13ace68435)"><g clip-path="url(#b55dad27a6)"><g clip-path="url(#ee854f77b1)"><path fill="#61c2a2" d="M 0.792969 0.484375 L 52.515625 0.484375 L 52.515625 52.207031 L 0.792969 52.207031 Z M 0.792969 0.484375" fill-opacity="1" fill-rule="nonzero"/></g></g></g></g></g></g><g clip-path="url(#7167b7c5f6)"><g clip-path="url(#5077f57065)"><g transform="matrix(1, 0, 0, 1, 55, 1000)"><g clip-path="url(#5aa0d0a95b)"><g clip-path="url(#a11ee1182a)"><g clip-path="url(#b458ac9f50)"><path fill="#61c2a2" d="M 0.171875 0 L 51.898438 0 L 51.898438 51.722656 L 0.171875 51.722656 Z M 0.171875 0" fill-opacity="1" fill-rule="nonzero"/></g></g></g></g></g></g><g clip-path="url(#3f01260288)"><g clip-path="url(#54c4596159)"><g transform="matrix(1, 0, 0, 1, 0, 724)"><g clip-path="url(#4d49397e31)"><g clip-path="url(#c32f7c5ed6)"><g clip-path="url(#25f2ecdbfd)"><path fill="#61c2a2" d="M 0 0.136719 L 51.722656 0.136719 L 51.722656 51.863281 L 0 51.863281 Z M 0 0.136719" fill-opacity="1" fill-rule="nonzero"/></g></g></g></g></g></g><g clip-path="url(#bacd0cbfca)"><g clip-path="url(#3d4df5062d)"><g transform="matrix(1, 0, 0, 1, 55, 448)"><g clip-path="url(#908b6dc2d6)"><g clip-path="url(#69dd8345f0)"><g clip-path="url(#7f08cf93d2)"><path fill="#61c2a2" d="M 0.171875 0.277344 L 51.898438 0.277344 L 51.898438 52 L 0.171875 52 Z M 0.171875 0.277344" fill-opacity="1" fill-rule="nonzero"/></g></g></g></g></g></g><g clip-path="url(#25bf64faf0)"><g clip-path="url(#b15e5e6885)"><g transform="matrix(1, 0, 0, 1, 213, 213)"><g clip-path="url(#a91d79c8d2)"><g clip-path="url(#809488bcc3)"><g clip-path="url(#134288cc9c)"><path fill="#61c2a2" d="M 0.792969 0.792969 L 52.515625 0.792969 L 52.515625 52.515625 L 0.792969 52.515625 Z M 0.792969 0.792969" fill-opacity="1" fill-rule="nonzero"/></g></g></g></g></g></g><g clip-path="url(#0ce8fcad17)"><g clip-path="url(#102e8055b3)"><g transform="matrix(1, 0, 0, 1, 448, 55)"><g clip-path="url(#009341b2f4)"><g clip-path="url(#368057edae)"><g clip-path="url(#6fde6fd03b)"><path fill="#61c2a2" d="M 0.277344 0.171875 L 52 0.171875 L 52 51.898438 L 0.277344 51.898438 Z M 0.277344 0.171875" fill-opacity="1" fill-rule="nonzero"/></g></g></g></g></g></g><g clip-path="url(#66c5bdb6d4)"><g clip-path="url(#5e5a2531a5)"><g transform="matrix(1, 0, 0, 1, 724, 0.000000000000112861)"><g clip-path="url(#ee2417babf)"><g clip-path="url(#0e607e6304)"><g clip-path="url(#18e997065e)"><path fill="#61c2a2" d="M 0.136719 0 L 51.863281 0 L 51.863281 51.722656 L 0.136719 51.722656 Z M 0.136719 0" fill-opacity="1" fill-rule="nonzero"/></g></g></g></g></g></g><g clip-path="url(#fe937c4cc8)"><g clip-path="url(#840447aa3e)"><g transform="matrix(1, 0, 0, 1, 1000, 55)"><g clip-path="url(#7b8e377101)"><g clip-path="url(#63d2cce49a)"><g clip-path="url(#196de6d7d1)"><path fill="#61c2a2" d="M 0 0.171875 L 51.722656 0.171875 L 51.722656 51.898438 L 0 51.898438 Z M 0 0.171875" fill-opacity="1" fill-rule="nonzero"/></g></g></g></g></g></g><g clip-path="url(#ce09250dd1)"><g clip-path="url(#9f2015f418)"><g transform="matrix(1, 0, 0, 1, 1234, 213)"><g clip-path="url(#80245a2ca6)"><g clip-path="url(#9c56d7abaf)"><g clip-path="url(#0a9ff6b272)"><path fill="#61c2a2" d="M 0.484375 0.792969 L 52.207031 0.792969 L 52.207031 52.515625 L 0.484375 52.515625 Z M 0.484375 0.792969" fill-opacity="1" fill-rule="nonzero"/></g></g></g></g></g></g><g clip-path="url(#d3cc1421ca)"><g clip-path="url(#dc3d9e9993)"><g transform="matrix(1, 0, 0, 1, 1393, 448)"><g clip-path="url(#2c805d5489)"><g clip-path="url(#6ad57a402d)"><g clip-path="url(#cd734976b6)"><path fill="#61c2a2" d="M 0.101562 0.277344 L 51.828125 0.277344 L 51.828125 52 L 0.101562 52 Z M 0.101562 0.277344" fill-opacity="1" fill-rule="nonzero"/></g></g></g></g></g></g></g></g><g clip-path="url(#91a40b3f39)"><g clip-path="url(#df61becfab)"><g transform="matrix(1, 0, 0, 1, 646, 646)"><g clip-path="url(#66602a42e8)"><g clip-path="url(#5d5c6fe61c)"><g clip-path="url(#b7b2e62346)"><path fill="#007868" d="M 0.550781 0.550781 L 207.449219 0.550781 L 207.449219 207.449219 L 0.550781 207.449219 Z M 0.550781 0.550781" fill-opacity="1" fill-rule="nonzero"/></g></g></g></g></g></g><g clip-path="url(#a75f614ebe)"><g clip-path="url(#d31f7c2304)"><g transform="matrix(1, 0, 0, 1, 922, 681)"><g clip-path="url(#66edc0f09b)"><g clip-path="url(#c572638cd9)"><g clip-path="url(#266e1d22e8)"><path fill="#007868" d="M 0.414062 0.0351562 L 138.34375 0.0351562 L 138.34375 137.964844 L 0.414062 137.964844 Z M 0.414062 0.0351562" fill-opacity="1" fill-rule="nonzero"/></g></g></g></g></g></g><g clip-path="url(#6e2d37e162)"><g clip-path="url(#26c2fef836)"><g transform="matrix(1, 0, 0, 1, 850, 850)"><g clip-path="url(#ccbbf0431f)"><g clip-path="url(#8e4320ffec)"><g clip-path="url(#8c9b8ef5f4)"><path fill="#007868" d="M 0 0 L 137.929688 0 L 137.929688 137.929688 L 0 137.929688 Z M 0 0" fill-opacity="1" fill-rule="nonzero"/></g></g></g></g></g></g><g clip-path="url(#203c79cf92)"><g clip-path="url(#643b1c95f9)"><g transform="matrix(1, 0, 0, 1, 681, 922)"><g clip-path="url(#bef0706f27)"><g clip-path="url(#b9d3964607)"><g clip-path="url(#055427da8a)"><path fill="#007868" d="M 0.0351562 0.414062 L 137.964844 0.414062 L 137.964844 138.34375 L 0.0351562 138.34375 Z M 0.0351562 0.414062" fill-opacity="1" fill-rule="nonzero"/></g></g></g></g></g></g><g clip-path="url(#4292ae115c)"><g clip-path="url(#fdce88e3e7)"><g transform="matrix(1, 0, 0, 1, 512, 850)"><g clip-path="url(#4ff4922eb9)"><g clip-path="url(#8d096eb49a)"><g clip-path="url(#468d4b9e3c)"><path fill="#007868" d="M 0.0703125 0 L 138 0 L 138 137.929688 L 0.0703125 137.929688 Z M 0.0703125 0" fill-opacity="1" fill-rule="nonzero"/></g></g></g></g></g></g><g clip-path="url(#1fdfea66c9)"><g clip-path="url(#431be0595b)"><g transform="matrix(1, 0, 0, 1, 439, 681)"><g clip-path="url(#45c88ba4ef)"><g clip-path="url(#ad08b431d0)"><g clip-path="url(#77381c8bdf)"><path fill="#007868" d="M 0.65625 0.0351562 L 138.585938 0.0351562 L 138.585938 137.964844 L 0.65625 137.964844 Z M 0.65625 0.0351562" fill-opacity="1" fill-rule="nonzero"/></g></g></g></g></g></g><g clip-path="url(#1c6510f157)"><g clip-path="url(#0262ff2287)"><g transform="matrix(1, 0, 0, 1, 512, 512)"><g clip-path="url(#e9630090bd)"><g clip-path="url(#90c68fa7e2)"><g clip-path="url(#19480f2b95)"><path fill="#007868" d="M 0.0703125 0.0703125 L 138 0.0703125 L 138 138 L 0.0703125 138 Z M 0.0703125 0.0703125" fill-opacity="1" fill-rule="nonzero"/></g></g></g></g></g></g><g clip-path="url(#0f4aac1410)"><g clip-path="url(#b215481548)"><g transform="matrix(1, 0, 0, 1, 681, 439)"><g clip-path="url(#19d7c92b91)"><g clip-path="url(#e20d483aba)"><g clip-path="url(#10739e743e)"><path fill="#007868" d="M 0.0351562 0.65625 L 137.964844 0.65625 L 137.964844 138.585938 L 0.0351562 138.585938 Z M 0.0351562 0.65625" fill-opacity="1" fill-rule="nonzero"/></g></g></g></g></g></g><g clip-path="url(#86450398f1)"><g clip-path="url(#b805988ee9)"><g transform="matrix(1, 0, 0, 1, 850, 512)"><g clip-path="url(#52e431777b)"><g clip-path="url(#8833f8e29e)"><g clip-path="url(#0ceed99912)"><path fill="#007868" d="M 0 0.0703125 L 137.929688 0.0703125 L 137.929688 138 L 0 138 Z M 0 0.0703125" fill-opacity="1" fill-rule="nonzero"/></g></g></g></g></g></g><g transform="matrix(1, 0, 0, 1, 223, 223)"><g clip-path="url(#656f79cc72)"><g clip-path="url(#245e0c60a8)"><g clip-path="url(#ec268067f7)"><g transform="matrix(1, 0, 0, 1, 966, 483)"><g clip-path="url(#969188f2ae)"><g clip-path="url(#5e7e98b672)"><g clip-path="url(#566fc74d2f)"><path fill="#66c8ba" d="M 0.65625 0.894531 L 86.863281 0.894531 L 86.863281 87.101562 L 0.65625 87.101562 Z M 0.65625 0.894531" fill-opacity="1" fill-rule="nonzero"/></g></g></g></g></g></g><g clip-path="url(#3284f816c9)"><g clip-path="url(#498bf6a418)"><g transform="matrix(1, 0, 0, 1, 901, 723)"><g clip-path="url(#14eb66d14f)"><g clip-path="url(#1242f3f23a)"><g clip-path="url(#c28cfba0bb)"><path fill="#66c8ba" d="M 0.136719 0.550781 L 86.34375 0.550781 L 86.34375 86.757812 L 0.136719 86.757812 Z M 0.136719 0.550781" fill-opacity="1" fill-rule="nonzero"/></g></g></g></g></g></g><g clip-path="url(#4c5768ef81)"><g clip-path="url(#6d0a8cfdbe)"><g transform="matrix(1, 0, 0, 1, 725, 901)"><g clip-path="url(#180907bdb3)"><g clip-path="url(#bbfcf959e5)"><g clip-path="url(#dc8acc820c)"><path fill="#66c8ba" d="M 0.277344 0.136719 L 86.484375 0.136719 L 86.484375 86.34375 L 0.277344 86.34375 Z M 0.277344 0.136719" fill-opacity="1" fill-rule="nonzero"/></g></g></g></g></g></g><g clip-path="url(#967c60bb78)"><g clip-path="url(#c71262387c)"><g transform="matrix(1, 0, 0, 1, 483, 966)"><g clip-path="url(#fb36f50244)"><g clip-path="url(#63246d3beb)"><g clip-path="url(#6fa5ced8cb)"><path fill="#66c8ba" d="M 0.898438 0.65625 L 87.101562 0.65625 L 87.101562 86.863281 L 0.898438 86.863281 Z M 0.898438 0.65625" fill-opacity="1" fill-rule="nonzero"/></g></g></g></g></g></g><g clip-path="url(#8812e7dc05)"><g clip-path="url(#65894b09d6)"><g transform="matrix(1, 0, 0, 1, 244, 901)"><g clip-path="url(#64eb52a1ce)"><g clip-path="url(#6e9a817271)"><g clip-path="url(#6e08e218eb)"><path fill="#66c8ba" d="M 0.242188 0.136719 L 86.449219 0.136719 L 86.449219 86.34375 L 0.242188 86.34375 Z M 0.242188 0.136719" fill-opacity="1" fill-rule="nonzero"/></g></g></g></g></g></g><g clip-path="url(#71909d983b)"><g clip-path="url(#48e4404d8a)"><g transform="matrix(1, 0, 0, 1, 66, 725)"><g clip-path="url(#37f68ead22)"><g clip-path="url(#5af35bf714)"><g clip-path="url(#38a51e9fd8)"><path fill="#66c8ba" d="M 0.65625 0.277344 L 86.863281 0.277344 L 86.863281 86.484375 L 0.65625 86.484375 Z M 0.65625 0.277344" fill-opacity="1" fill-rule="nonzero"/></g></g></g></g></g></g><g clip-path="url(#28e43b6e44)"><g clip-path="url(#e17895cd58)"><g transform="matrix(1, 0, 0, 1, 1, 483)"><g clip-path="url(#492f434cc0)"><g clip-path="url(#d38676293e)"><g clip-path="url(#1672616a3c)"><path fill="#66c8ba" d="M 0.136719 0.894531 L 86.34375 0.894531 L 86.34375 87.101562 L 0.136719 87.101562 Z M 0.136719 0.894531" fill-opacity="1" fill-rule="nonzero"/></g></g></g></g></g></g><g clip-path="url(#86f5fff8fa)"><g clip-path="url(#af0b13ca26)"><g transform="matrix(1, 0, 0, 1, 66, 244)"><g clip-path="url(#a24c4e7d26)"><g clip-path="url(#8430114f74)"><g clip-path="url(#f39a480eaa)"><path fill="#66c8ba" d="M 0.65625 0.242188 L 86.863281 0.242188 L 86.863281 86.449219 L 0.65625 86.449219 Z M 0.65625 0.242188" fill-opacity="1" fill-rule="nonzero"/></g></g></g></g></g></g><g clip-path="url(#011fc5d9f2)"><g clip-path="url(#e0fa322fa2)"><g transform="matrix(1, 0, 0, 1, 242, 66)"><g clip-path="url(#9a6ac0a486)"><g clip-path="url(#46f2834112)"><g clip-path="url(#4493b65656)"><path fill="#66c8ba" d="M 0.515625 0.65625 L 86.722656 0.65625 L 86.722656 86.863281 L 0.515625 86.863281 Z M 0.515625 0.65625" fill-opacity="1" fill-rule="nonzero"/></g></g></g></g></g></g><g clip-path="url(#98caa410d5)"><g clip-path="url(#24eaea86ae)"><g transform="matrix(1, 0, 0, 1, 483, 1)"><g clip-path="url(#b9cbcc25b8)"><g clip-path="url(#73c1ee17c3)"><g clip-path="url(#63493b8aa6)"><path fill="#66c8ba" d="M 0.898438 0.136719 L 87.101562 0.136719 L 87.101562 86.34375 L 0.898438 86.34375 Z M 0.898438 0.136719" fill-opacity="1" fill-rule="nonzero"/></g></g></g></g></g></g><g clip-path="url(#cb50be20a3)"><g clip-path="url(#8951fb8993)"><g transform="matrix(1, 0, 0, 1, 723, 66)"><g clip-path="url(#4f63480523)"><g clip-path="url(#4f6742c483)"><g clip-path="url(#3d15ef99c1)"><path fill="#66c8ba" d="M 0.550781 0.65625 L 86.757812 0.65625 L 86.757812 86.863281 L 0.550781 86.863281 Z M 0.550781 0.65625" fill-opacity="1" fill-rule="nonzero"/></g></g></g></g></g></g><g clip-path="url(#980da53e08)"><g clip-path="url(#8676d970cc)"><g transform="matrix(1, 0, 0, 1, 901, 242)"><g clip-path="url(#e010577e79)"><g clip-path="url(#299f52d21c)"><g clip-path="url(#5985effdd5)"><path fill="#66c8ba" d="M 0.136719 0.515625 L 86.34375 0.515625 L 86.34375 86.722656 L 0.136719 86.722656 Z M 0.136719 0.515625" fill-opacity="1" fill-rule="nonzero"/></g></g></g></g></g></g></g></g></svg>