<svg xmlns="http://www.w3.org/2000/svg" xmlns:xlink="http://www.w3.org/1999/xlink" width="2000" viewBox="0 0 1500 1499.999933" height="2000" preserveAspectRatio="xMidYMid meet"><defs><clipPath id="2e91ea9ec7"><path d="M 1476.273438 738.136719 L 1500 738.136719 L 1500 761.863281 L 1476.273438 761.863281 Z M 1476.273438 738.136719" clip-rule="nonzero"/></clipPath><clipPath id="f8d4c1885e"><path d="M 1488.136719 738.136719 C 1481.585938 738.136719 1476.273438 743.449219 1476.273438 750 C 1476.273438 756.550781 1481.585938 761.863281 1488.136719 761.863281 C 1494.6875 761.863281 1500 756.550781 1500 750 C 1500 743.449219 1494.6875 738.136719 1488.136719 738.136719 Z M 1488.136719 738.136719" clip-rule="nonzero"/></clipPath><clipPath id="7cc60e0349"><path d="M 0.273438 0.136719 L 24 0.136719 L 24 23.863281 L 0.273438 23.863281 Z M 0.273438 0.136719" clip-rule="nonzero"/></clipPath><clipPath id="e35ebc86b2"><path d="M 12.136719 0.136719 C 5.585938 0.136719 0.273438 5.449219 0.273438 12 C 0.273438 18.550781 5.585938 23.863281 12.136719 23.863281 C 18.6875 23.863281 24 18.550781 24 12 C 24 5.449219 18.6875 0.136719 12.136719 0.136719 Z M 12.136719 0.136719" clip-rule="nonzero"/></clipPath><clipPath id="592330703f"><rect x="0" width="24" y="0" height="24"/></clipPath><clipPath id="442209bf77"><path d="M 1439.367188 966.167969 L 1463.09375 966.167969 L 1463.09375 989.894531 L 1439.367188 989.894531 Z M 1439.367188 966.167969" clip-rule="nonzero"/></clipPath><clipPath id="ed07dd3bff"><path d="M 1451.230469 966.167969 C 1444.679688 966.167969 1439.367188 971.480469 1439.367188 978.03125 C 1439.367188 984.582031 1444.679688 989.894531 1451.230469 989.894531 C 1457.78125 989.894531 1463.09375 984.582031 1463.09375 978.03125 C 1463.09375 971.480469 1457.78125 966.167969 1451.230469 966.167969 Z M 1451.230469 966.167969" clip-rule="nonzero"/></clipPath><clipPath id="3c6a52121c"><path d="M 0.367188 0.167969 L 24.09375 0.167969 L 24.09375 23.894531 L 0.367188 23.894531 Z M 0.367188 0.167969" clip-rule="nonzero"/></clipPath><clipPath id="02e70547d2"><path d="M 12.230469 0.167969 C 5.679688 0.167969 0.367188 5.480469 0.367188 12.03125 C 0.367188 18.582031 5.679688 23.894531 12.230469 23.894531 C 18.78125 23.894531 24.09375 18.582031 24.09375 12.03125 C 24.09375 5.480469 18.78125 0.167969 12.230469 0.167969 Z M 12.230469 0.167969" clip-rule="nonzero"/></clipPath><clipPath id="119806cf1b"><rect x="0" width="25" y="0" height="24"/></clipPath><clipPath id="4a591731cb"><path d="M 1335.238281 1171.792969 L 1358.964844 1171.792969 L 1358.964844 1195.519531 L 1335.238281 1195.519531 Z M 1335.238281 1171.792969" clip-rule="nonzero"/></clipPath><clipPath id="79b4af7566"><path d="M 1347.101562 1171.792969 C 1340.546875 1171.792969 1335.238281 1177.105469 1335.238281 1183.65625 C 1335.238281 1190.207031 1340.546875 1195.519531 1347.101562 1195.519531 C 1353.652344 1195.519531 1358.964844 1190.207031 1358.964844 1183.65625 C 1358.964844 1177.105469 1353.652344 1171.792969 1347.101562 1171.792969 Z M 1347.101562 1171.792969" clip-rule="nonzero"/></clipPath><clipPath id="3b0124680b"><path d="M 0.238281 0.792969 L 23.964844 0.792969 L 23.964844 24.519531 L 0.238281 24.519531 Z M 0.238281 0.792969" clip-rule="nonzero"/></clipPath><clipPath id="3e38277c8a"><path d="M 12.101562 0.792969 C 5.546875 0.792969 0.238281 6.105469 0.238281 12.65625 C 0.238281 19.207031 5.546875 24.519531 12.101562 24.519531 C 18.652344 24.519531 23.964844 19.207031 23.964844 12.65625 C 23.964844 6.105469 18.652344 0.792969 12.101562 0.792969 Z M 12.101562 0.792969" clip-rule="nonzero"/></clipPath><clipPath id="460dc31dbf"><rect x="0" width="24" y="0" height="25"/></clipPath><clipPath id="a4fff7b9ef"><path d="M 1171.792969 1335.238281 L 1195.519531 1335.238281 L 1195.519531 1358.964844 L 1171.792969 1358.964844 Z M 1171.792969 1335.238281" clip-rule="nonzero"/></clipPath><clipPath id="fd3b8c37df"><path d="M 1183.65625 1335.238281 C 1177.105469 1335.238281 1171.792969 1340.546875 1171.792969 1347.101562 C 1171.792969 1353.652344 1177.105469 1358.964844 1183.65625 1358.964844 C 1190.207031 1358.964844 1195.519531 1353.652344 1195.519531 1347.101562 C 1195.519531 1340.546875 1190.207031 1335.238281 1183.65625 1335.238281 Z M 1183.65625 1335.238281" clip-rule="nonzero"/></clipPath><clipPath id="c4f39ed481"><path d="M 0.792969 0.238281 L 24.519531 0.238281 L 24.519531 23.964844 L 0.792969 23.964844 Z M 0.792969 0.238281" clip-rule="nonzero"/></clipPath><clipPath id="fd782a7bb9"><path d="M 12.65625 0.238281 C 6.105469 0.238281 0.792969 5.546875 0.792969 12.101562 C 0.792969 18.652344 6.105469 23.964844 12.65625 23.964844 C 19.207031 23.964844 24.519531 18.652344 24.519531 12.101562 C 24.519531 5.546875 19.207031 0.238281 12.65625 0.238281 Z M 12.65625 0.238281" clip-rule="nonzero"/></clipPath><clipPath id="a0c3a6a32f"><rect x="0" width="25" y="0" height="24"/></clipPath><clipPath id="72725e1bcc"><path d="M 966.167969 1439.367188 L 989.894531 1439.367188 L 989.894531 1463.09375 L 966.167969 1463.09375 Z M 966.167969 1439.367188" clip-rule="nonzero"/></clipPath><clipPath id="481e4e4d62"><path d="M 978.03125 1439.367188 C 971.480469 1439.367188 966.167969 1444.679688 966.167969 1451.230469 C 966.167969 1457.78125 971.480469 1463.09375 978.03125 1463.09375 C 984.582031 1463.09375 989.894531 1457.78125 989.894531 1451.230469 C 989.894531 1444.679688 984.582031 1439.367188 978.03125 1439.367188 Z M 978.03125 1439.367188" clip-rule="nonzero"/></clipPath><clipPath id="0fec5db49b"><path d="M 0.167969 0.367188 L 23.894531 0.367188 L 23.894531 24.09375 L 0.167969 24.09375 Z M 0.167969 0.367188" clip-rule="nonzero"/></clipPath><clipPath id="c0b78d09dd"><path d="M 12.03125 0.367188 C 5.480469 0.367188 0.167969 5.679688 0.167969 12.230469 C 0.167969 18.78125 5.480469 24.09375 12.03125 24.09375 C 18.582031 24.09375 23.894531 18.78125 23.894531 12.230469 C 23.894531 5.679688 18.582031 0.367188 12.03125 0.367188 Z M 12.03125 0.367188" clip-rule="nonzero"/></clipPath><clipPath id="cc96464a4d"><rect x="0" width="24" y="0" height="25"/></clipPath><clipPath id="51ae60f4c2"><path d="M 738.136719 1476.273438 L 761.863281 1476.273438 L 761.863281 1500 L 738.136719 1500 Z M 738.136719 1476.273438" clip-rule="nonzero"/></clipPath><clipPath id="44d5de3912"><path d="M 750 1476.273438 C 743.449219 1476.273438 738.136719 1481.585938 738.136719 1488.136719 C 738.136719 1494.6875 743.449219 1500 750 1500 C 756.550781 1500 761.863281 1494.6875 761.863281 1488.136719 C 761.863281 1481.585938 756.550781 1476.273438 750 1476.273438 Z M 750 1476.273438" clip-rule="nonzero"/></clipPath><clipPath id="62dda7aad3"><path d="M 0.136719 0.273438 L 23.863281 0.273438 L 23.863281 24 L 0.136719 24 Z M 0.136719 0.273438" clip-rule="nonzero"/></clipPath><clipPath id="1428a0958d"><path d="M 12 0.273438 C 5.449219 0.273438 0.136719 5.585938 0.136719 12.136719 C 0.136719 18.6875 5.449219 24 12 24 C 18.550781 24 23.863281 18.6875 23.863281 12.136719 C 23.863281 5.585938 18.550781 0.273438 12 0.273438 Z M 12 0.273438" clip-rule="nonzero"/></clipPath><clipPath id="ecbb76f79b"><rect x="0" width="24" y="0" height="24"/></clipPath><clipPath id="d6940d1257"><path d="M 510.105469 1439.367188 L 533.832031 1439.367188 L 533.832031 1463.09375 L 510.105469 1463.09375 Z M 510.105469 1439.367188" clip-rule="nonzero"/></clipPath><clipPath id="f808a15364"><path d="M 521.96875 1439.367188 C 515.417969 1439.367188 510.105469 1444.679688 510.105469 1451.230469 C 510.105469 1457.78125 515.417969 1463.09375 521.96875 1463.09375 C 528.519531 1463.09375 533.832031 1457.78125 533.832031 1451.230469 C 533.832031 1444.679688 528.519531 1439.367188 521.96875 1439.367188 Z M 521.96875 1439.367188" clip-rule="nonzero"/></clipPath><clipPath id="b191039efd"><path d="M 0.105469 0.367188 L 23.832031 0.367188 L 23.832031 24.09375 L 0.105469 24.09375 Z M 0.105469 0.367188" clip-rule="nonzero"/></clipPath><clipPath id="c6e6fa9272"><path d="M 11.96875 0.367188 C 5.417969 0.367188 0.105469 5.679688 0.105469 12.230469 C 0.105469 18.78125 5.417969 24.09375 11.96875 24.09375 C 18.519531 24.09375 23.832031 18.78125 23.832031 12.230469 C 23.832031 5.679688 18.519531 0.367188 11.96875 0.367188 Z M 11.96875 0.367188" clip-rule="nonzero"/></clipPath><clipPath id="2fea909b71"><rect x="0" width="24" y="0" height="25"/></clipPath><clipPath id="3b3c596265"><path d="M 304.480469 1335.238281 L 328.207031 1335.238281 L 328.207031 1358.964844 L 304.480469 1358.964844 Z M 304.480469 1335.238281" clip-rule="nonzero"/></clipPath><clipPath id="bf439be5fb"><path d="M 316.34375 1335.238281 C 309.792969 1335.238281 304.480469 1340.546875 304.480469 1347.101562 C 304.480469 1353.652344 309.792969 1358.964844 316.34375 1358.964844 C 322.894531 1358.964844 328.207031 1353.652344 328.207031 1347.101562 C 328.207031 1340.546875 322.894531 1335.238281 316.34375 1335.238281 Z M 316.34375 1335.238281" clip-rule="nonzero"/></clipPath><clipPath id="4160cac7c0"><path d="M 0.480469 0.238281 L 24.207031 0.238281 L 24.207031 23.964844 L 0.480469 23.964844 Z M 0.480469 0.238281" clip-rule="nonzero"/></clipPath><clipPath id="7d8c49cc69"><path d="M 12.34375 0.238281 C 5.792969 0.238281 0.480469 5.546875 0.480469 12.101562 C 0.480469 18.652344 5.792969 23.964844 12.34375 23.964844 C 18.894531 23.964844 24.207031 18.652344 24.207031 12.101562 C 24.207031 5.546875 18.894531 0.238281 12.34375 0.238281 Z M 12.34375 0.238281" clip-rule="nonzero"/></clipPath><clipPath id="7d0cc3462c"><rect x="0" width="25" y="0" height="24"/></clipPath><clipPath id="3af82b2cc8"><path d="M 141.035156 1171.792969 L 164.761719 1171.792969 L 164.761719 1195.519531 L 141.035156 1195.519531 Z M 141.035156 1171.792969" clip-rule="nonzero"/></clipPath><clipPath id="d5816e08da"><path d="M 152.898438 1171.792969 C 146.347656 1171.792969 141.035156 1177.105469 141.035156 1183.65625 C 141.035156 1190.207031 146.347656 1195.519531 152.898438 1195.519531 C 159.453125 1195.519531 164.761719 1190.207031 164.761719 1183.65625 C 164.761719 1177.105469 159.453125 1171.792969 152.898438 1171.792969 Z M 152.898438 1171.792969" clip-rule="nonzero"/></clipPath><clipPath id="b2e723262f"><path d="M 0.0351562 0.792969 L 23.761719 0.792969 L 23.761719 24.519531 L 0.0351562 24.519531 Z M 0.0351562 0.792969" clip-rule="nonzero"/></clipPath><clipPath id="3d0bac74f2"><path d="M 11.898438 0.792969 C 5.347656 0.792969 0.0351562 6.105469 0.0351562 12.65625 C 0.0351562 19.207031 5.347656 24.519531 11.898438 24.519531 C 18.453125 24.519531 23.761719 19.207031 23.761719 12.65625 C 23.761719 6.105469 18.453125 0.792969 11.898438 0.792969 Z M 11.898438 0.792969" clip-rule="nonzero"/></clipPath><clipPath id="3ce1ce5d75"><rect x="0" width="24" y="0" height="25"/></clipPath><clipPath id="14e5f62178"><path d="M 36.90625 966.167969 L 60.632812 966.167969 L 60.632812 989.894531 L 36.90625 989.894531 Z M 36.90625 966.167969" clip-rule="nonzero"/></clipPath><clipPath id="8f5ee19a09"><path d="M 48.769531 966.167969 C 42.21875 966.167969 36.90625 971.480469 36.90625 978.03125 C 36.90625 984.582031 42.21875 989.894531 48.769531 989.894531 C 55.320312 989.894531 60.632812 984.582031 60.632812 978.03125 C 60.632812 971.480469 55.320312 966.167969 48.769531 966.167969 Z M 48.769531 966.167969" clip-rule="nonzero"/></clipPath><clipPath id="7598aa07b2"><path d="M 0.90625 0.167969 L 24.632812 0.167969 L 24.632812 23.894531 L 0.90625 23.894531 Z M 0.90625 0.167969" clip-rule="nonzero"/></clipPath><clipPath id="030de00dce"><path d="M 12.769531 0.167969 C 6.21875 0.167969 0.90625 5.480469 0.90625 12.03125 C 0.90625 18.582031 6.21875 23.894531 12.769531 23.894531 C 19.320312 23.894531 24.632812 18.582031 24.632812 12.03125 C 24.632812 5.480469 19.320312 0.167969 12.769531 0.167969 Z M 12.769531 0.167969" clip-rule="nonzero"/></clipPath><clipPath id="2aff9d28a0"><rect x="0" width="25" y="0" height="24"/></clipPath><clipPath id="dc3b587f2e"><path d="M 0 738.136719 L 23.726562 738.136719 L 23.726562 761.863281 L 0 761.863281 Z M 0 738.136719" clip-rule="nonzero"/></clipPath><clipPath id="56f4422833"><path d="M 11.863281 738.136719 C 5.3125 738.136719 0 743.449219 0 750 C 0 756.550781 5.3125 761.863281 11.863281 761.863281 C 18.414062 761.863281 23.726562 756.550781 23.726562 750 C 23.726562 743.449219 18.414062 738.136719 11.863281 738.136719 Z M 11.863281 738.136719" clip-rule="nonzero"/></clipPath><clipPath id="e0fd80b838"><path d="M 0 0.136719 L 23.726562 0.136719 L 23.726562 23.863281 L 0 23.863281 Z M 0 0.136719" clip-rule="nonzero"/></clipPath><clipPath id="5713ce14c4"><path d="M 11.863281 0.136719 C 5.3125 0.136719 0 5.449219 0 12 C 0 18.550781 5.3125 23.863281 11.863281 23.863281 C 18.414062 23.863281 23.726562 18.550781 23.726562 12 C 23.726562 5.449219 18.414062 0.136719 11.863281 0.136719 Z M 11.863281 0.136719" clip-rule="nonzero"/></clipPath><clipPath id="7303550360"><rect x="0" width="24" y="0" height="24"/></clipPath><clipPath id="8d0b9d5cf5"><path d="M 36.90625 510.105469 L 60.632812 510.105469 L 60.632812 533.832031 L 36.90625 533.832031 Z M 36.90625 510.105469" clip-rule="nonzero"/></clipPath><clipPath id="68bd1f7dd6"><path d="M 48.769531 510.105469 C 42.21875 510.105469 36.90625 515.417969 36.90625 521.96875 C 36.90625 528.519531 42.21875 533.832031 48.769531 533.832031 C 55.320312 533.832031 60.632812 528.519531 60.632812 521.96875 C 60.632812 515.417969 55.320312 510.105469 48.769531 510.105469 Z M 48.769531 510.105469" clip-rule="nonzero"/></clipPath><clipPath id="b128cfe063"><path d="M 0.90625 0.105469 L 24.632812 0.105469 L 24.632812 23.832031 L 0.90625 23.832031 Z M 0.90625 0.105469" clip-rule="nonzero"/></clipPath><clipPath id="4e0c2668f9"><path d="M 12.769531 0.105469 C 6.21875 0.105469 0.90625 5.417969 0.90625 11.96875 C 0.90625 18.519531 6.21875 23.832031 12.769531 23.832031 C 19.320312 23.832031 24.632812 18.519531 24.632812 11.96875 C 24.632812 5.417969 19.320312 0.105469 12.769531 0.105469 Z M 12.769531 0.105469" clip-rule="nonzero"/></clipPath><clipPath id="1f2efa9fa6"><rect x="0" width="25" y="0" height="24"/></clipPath><clipPath id="e1e1598aca"><path d="M 141.035156 304.480469 L 164.761719 304.480469 L 164.761719 328.207031 L 141.035156 328.207031 Z M 141.035156 304.480469" clip-rule="nonzero"/></clipPath><clipPath id="386e46bbc6"><path d="M 152.898438 304.480469 C 146.347656 304.480469 141.035156 309.792969 141.035156 316.34375 C 141.035156 322.894531 146.347656 328.207031 152.898438 328.207031 C 159.453125 328.207031 164.761719 322.894531 164.761719 316.34375 C 164.761719 309.792969 159.453125 304.480469 152.898438 304.480469 Z M 152.898438 304.480469" clip-rule="nonzero"/></clipPath><clipPath id="2ad02c8c12"><path d="M 0.0351562 0.480469 L 23.761719 0.480469 L 23.761719 24.207031 L 0.0351562 24.207031 Z M 0.0351562 0.480469" clip-rule="nonzero"/></clipPath><clipPath id="d8795123d2"><path d="M 11.898438 0.480469 C 5.347656 0.480469 0.0351562 5.792969 0.0351562 12.34375 C 0.0351562 18.894531 5.347656 24.207031 11.898438 24.207031 C 18.453125 24.207031 23.761719 18.894531 23.761719 12.34375 C 23.761719 5.792969 18.453125 0.480469 11.898438 0.480469 Z M 11.898438 0.480469" clip-rule="nonzero"/></clipPath><clipPath id="8722ddf551"><rect x="0" width="24" y="0" height="25"/></clipPath><clipPath id="d6eb558520"><path d="M 304.480469 141.035156 L 328.207031 141.035156 L 328.207031 164.761719 L 304.480469 164.761719 Z M 304.480469 141.035156" clip-rule="nonzero"/></clipPath><clipPath id="be3a307d1c"><path d="M 316.34375 141.035156 C 309.792969 141.035156 304.480469 146.347656 304.480469 152.898438 C 304.480469 159.453125 309.792969 164.761719 316.34375 164.761719 C 322.894531 164.761719 328.207031 159.453125 328.207031 152.898438 C 328.207031 146.347656 322.894531 141.035156 316.34375 141.035156 Z M 316.34375 141.035156" clip-rule="nonzero"/></clipPath><clipPath id="1ee3322293"><path d="M 0.480469 0.0351562 L 24.207031 0.0351562 L 24.207031 23.761719 L 0.480469 23.761719 Z M 0.480469 0.0351562" clip-rule="nonzero"/></clipPath><clipPath id="1c6e348d90"><path d="M 12.34375 0.0351562 C 5.792969 0.0351562 0.480469 5.347656 0.480469 11.898438 C 0.480469 18.453125 5.792969 23.761719 12.34375 23.761719 C 18.894531 23.761719 24.207031 18.453125 24.207031 11.898438 C 24.207031 5.347656 18.894531 0.0351562 12.34375 0.0351562 Z M 12.34375 0.0351562" clip-rule="nonzero"/></clipPath><clipPath id="9013887015"><rect x="0" width="25" y="0" height="24"/></clipPath><clipPath id="b7f6d95286"><path d="M 510.105469 36.90625 L 533.832031 36.90625 L 533.832031 60.632812 L 510.105469 60.632812 Z M 510.105469 36.90625" clip-rule="nonzero"/></clipPath><clipPath id="4922255083"><path d="M 521.96875 36.90625 C 515.417969 36.90625 510.105469 42.21875 510.105469 48.769531 C 510.105469 55.320312 515.417969 60.632812 521.96875 60.632812 C 528.519531 60.632812 533.832031 55.320312 533.832031 48.769531 C 533.832031 42.21875 528.519531 36.90625 521.96875 36.90625 Z M 521.96875 36.90625" clip-rule="nonzero"/></clipPath><clipPath id="6e5df60b6d"><path d="M 0.105469 0.90625 L 23.832031 0.90625 L 23.832031 24.632812 L 0.105469 24.632812 Z M 0.105469 0.90625" clip-rule="nonzero"/></clipPath><clipPath id="f62b08cb58"><path d="M 11.96875 0.90625 C 5.417969 0.90625 0.105469 6.21875 0.105469 12.769531 C 0.105469 19.320312 5.417969 24.632812 11.96875 24.632812 C 18.519531 24.632812 23.832031 19.320312 23.832031 12.769531 C 23.832031 6.21875 18.519531 0.90625 11.96875 0.90625 Z M 11.96875 0.90625" clip-rule="nonzero"/></clipPath><clipPath id="8389bf4167"><rect x="0" width="24" y="0" height="25"/></clipPath><clipPath id="4de71aa2fe"><path d="M 738.136719 0 L 761.863281 0 L 761.863281 23.726562 L 738.136719 23.726562 Z M 738.136719 0" clip-rule="nonzero"/></clipPath><clipPath id="7c6156ad31"><path d="M 750 0 C 743.449219 0 738.136719 5.3125 738.136719 11.863281 C 738.136719 18.414062 743.449219 23.726562 750 23.726562 C 756.550781 23.726562 761.863281 18.414062 761.863281 11.863281 C 761.863281 5.3125 756.550781 0 750 0 Z M 750 0" clip-rule="nonzero"/></clipPath><clipPath id="d1c417df22"><path d="M 0.136719 0 L 23.863281 0 L 23.863281 23.726562 L 0.136719 23.726562 Z M 0.136719 0" clip-rule="nonzero"/></clipPath><clipPath id="153fc2a6a6"><path d="M 12 0 C 5.449219 0 0.136719 5.3125 0.136719 11.863281 C 0.136719 18.414062 5.449219 23.726562 12 23.726562 C 18.550781 23.726562 23.863281 18.414062 23.863281 11.863281 C 23.863281 5.3125 18.550781 0 12 0 Z M 12 0" clip-rule="nonzero"/></clipPath><clipPath id="26072cb9f5"><rect x="0" width="24" y="0" height="24"/></clipPath><clipPath id="d1a6532a7c"><path d="M 966.167969 36.90625 L 989.894531 36.90625 L 989.894531 60.632812 L 966.167969 60.632812 Z M 966.167969 36.90625" clip-rule="nonzero"/></clipPath><clipPath id="92c4a2ac4e"><path d="M 978.03125 36.90625 C 971.480469 36.90625 966.167969 42.21875 966.167969 48.769531 C 966.167969 55.320312 971.480469 60.632812 978.03125 60.632812 C 984.582031 60.632812 989.894531 55.320312 989.894531 48.769531 C 989.894531 42.21875 984.582031 36.90625 978.03125 36.90625 Z M 978.03125 36.90625" clip-rule="nonzero"/></clipPath><clipPath id="e3e910cb84"><path d="M 0.167969 0.90625 L 23.894531 0.90625 L 23.894531 24.632812 L 0.167969 24.632812 Z M 0.167969 0.90625" clip-rule="nonzero"/></clipPath><clipPath id="56e09615ed"><path d="M 12.03125 0.90625 C 5.480469 0.90625 0.167969 6.21875 0.167969 12.769531 C 0.167969 19.320312 5.480469 24.632812 12.03125 24.632812 C 18.582031 24.632812 23.894531 19.320312 23.894531 12.769531 C 23.894531 6.21875 18.582031 0.90625 12.03125 0.90625 Z M 12.03125 0.90625" clip-rule="nonzero"/></clipPath><clipPath id="2c95cd9be5"><rect x="0" width="24" y="0" height="25"/></clipPath><clipPath id="e95f49409d"><path d="M 1171.792969 141.035156 L 1195.519531 141.035156 L 1195.519531 164.761719 L 1171.792969 164.761719 Z M 1171.792969 141.035156" clip-rule="nonzero"/></clipPath><clipPath id="830a205d19"><path d="M 1183.65625 141.035156 C 1177.105469 141.035156 1171.792969 146.347656 1171.792969 152.898438 C 1171.792969 159.453125 1177.105469 164.761719 1183.65625 164.761719 C 1190.207031 164.761719 1195.519531 159.453125 1195.519531 152.898438 C 1195.519531 146.347656 1190.207031 141.035156 1183.65625 141.035156 Z M 1183.65625 141.035156" clip-rule="nonzero"/></clipPath><clipPath id="2285713096"><path d="M 0.792969 0.0351562 L 24.519531 0.0351562 L 24.519531 23.761719 L 0.792969 23.761719 Z M 0.792969 0.0351562" clip-rule="nonzero"/></clipPath><clipPath id="accbf3565d"><path d="M 12.65625 0.0351562 C 6.105469 0.0351562 0.792969 5.347656 0.792969 11.898438 C 0.792969 18.453125 6.105469 23.761719 12.65625 23.761719 C 19.207031 23.761719 24.519531 18.453125 24.519531 11.898438 C 24.519531 5.347656 19.207031 0.0351562 12.65625 0.0351562 Z M 12.65625 0.0351562" clip-rule="nonzero"/></clipPath><clipPath id="81967e9fc1"><rect x="0" width="25" y="0" height="24"/></clipPath><clipPath id="e18c6f562d"><path d="M 1335.238281 304.480469 L 1358.964844 304.480469 L 1358.964844 328.207031 L 1335.238281 328.207031 Z M 1335.238281 304.480469" clip-rule="nonzero"/></clipPath><clipPath id="f644b50bf0"><path d="M 1347.101562 304.480469 C 1340.546875 304.480469 1335.238281 309.792969 1335.238281 316.34375 C 1335.238281 322.894531 1340.546875 328.207031 1347.101562 328.207031 C 1353.652344 328.207031 1358.964844 322.894531 1358.964844 316.34375 C 1358.964844 309.792969 1353.652344 304.480469 1347.101562 304.480469 Z M 1347.101562 304.480469" clip-rule="nonzero"/></clipPath><clipPath id="a7af2ce09b"><path d="M 0.238281 0.480469 L 23.964844 0.480469 L 23.964844 24.207031 L 0.238281 24.207031 Z M 0.238281 0.480469" clip-rule="nonzero"/></clipPath><clipPath id="89c2214eb5"><path d="M 12.101562 0.480469 C 5.546875 0.480469 0.238281 5.792969 0.238281 12.34375 C 0.238281 18.894531 5.546875 24.207031 12.101562 24.207031 C 18.652344 24.207031 23.964844 18.894531 23.964844 12.34375 C 23.964844 5.792969 18.652344 0.480469 12.101562 0.480469 Z M 12.101562 0.480469" clip-rule="nonzero"/></clipPath><clipPath id="0ddd893825"><rect x="0" width="24" y="0" height="25"/></clipPath><clipPath id="c848a4b9e9"><path d="M 1439.367188 510.105469 L 1463.09375 510.105469 L 1463.09375 533.832031 L 1439.367188 533.832031 Z M 1439.367188 510.105469" clip-rule="nonzero"/></clipPath><clipPath id="b9f8b623bf"><path d="M 1451.230469 510.105469 C 1444.679688 510.105469 1439.367188 515.417969 1439.367188 521.96875 C 1439.367188 528.519531 1444.679688 533.832031 1451.230469 533.832031 C 1457.78125 533.832031 1463.09375 528.519531 1463.09375 521.96875 C 1463.09375 515.417969 1457.78125 510.105469 1451.230469 510.105469 Z M 1451.230469 510.105469" clip-rule="nonzero"/></clipPath><clipPath id="d8ccad77c4"><path d="M 0.367188 0.105469 L 24.09375 0.105469 L 24.09375 23.832031 L 0.367188 23.832031 Z M 0.367188 0.105469" clip-rule="nonzero"/></clipPath><clipPath id="b73b51a04e"><path d="M 12.230469 0.105469 C 5.679688 0.105469 0.367188 5.417969 0.367188 11.96875 C 0.367188 18.519531 5.679688 23.832031 12.230469 23.832031 C 18.78125 23.832031 24.09375 18.519531 24.09375 11.96875 C 24.09375 5.417969 18.78125 0.105469 12.230469 0.105469 Z M 12.230469 0.105469" clip-rule="nonzero"/></clipPath><clipPath id="cef13a2550"><rect x="0" width="25" y="0" height="24"/></clipPath><clipPath id="2cd69ca360"><rect x="0" width="1500" y="0" height="1500"/></clipPath><clipPath id="60cfe0e8a3"><path d="M 1107.832031 554.226562 L 1147.375 554.226562 L 1147.375 593.769531 L 1107.832031 593.769531 Z M 1107.832031 554.226562" clip-rule="nonzero"/></clipPath><clipPath id="fbd7a3921c"><path d="M 1127.601562 554.226562 C 1116.683594 554.226562 1107.832031 563.082031 1107.832031 574 C 1107.832031 584.917969 1116.683594 593.769531 1127.601562 593.769531 C 1138.523438 593.769531 1147.375 584.917969 1147.375 574 C 1147.375 563.082031 1138.523438 554.226562 1127.601562 554.226562 Z M 1127.601562 554.226562" clip-rule="nonzero"/></clipPath><clipPath id="4e89a8d273"><path d="M 0.832031 0.226562 L 40.375 0.226562 L 40.375 39.769531 L 0.832031 39.769531 Z M 0.832031 0.226562" clip-rule="nonzero"/></clipPath><clipPath id="b3765a9cd7"><path d="M 20.601562 0.226562 C 9.683594 0.226562 0.832031 9.082031 0.832031 20 C 0.832031 30.917969 9.683594 39.769531 20.601562 39.769531 C 31.523438 39.769531 40.375 30.917969 40.375 20 C 40.375 9.082031 31.523438 0.226562 20.601562 0.226562 Z M 20.601562 0.226562" clip-rule="nonzero"/></clipPath><clipPath id="a14516da6e"><rect x="0" width="41" y="0" height="40"/></clipPath><clipPath id="5b09212d53"><path d="M 1065.652344 765.125 L 1105.195312 765.125 L 1105.195312 804.667969 L 1065.652344 804.667969 Z M 1065.652344 765.125" clip-rule="nonzero"/></clipPath><clipPath id="8f65d5dde9"><path d="M 1085.421875 765.125 C 1074.503906 765.125 1065.652344 773.976562 1065.652344 784.894531 C 1065.652344 795.816406 1074.503906 804.667969 1085.421875 804.667969 C 1096.34375 804.667969 1105.195312 795.816406 1105.195312 784.894531 C 1105.195312 773.976562 1096.34375 765.125 1085.421875 765.125 Z M 1085.421875 765.125" clip-rule="nonzero"/></clipPath><clipPath id="2e50f7aca5"><path d="M 0.652344 0.125 L 40.195312 0.125 L 40.195312 39.667969 L 0.652344 39.667969 Z M 0.652344 0.125" clip-rule="nonzero"/></clipPath><clipPath id="caee4aa1ec"><path d="M 20.421875 0.125 C 9.503906 0.125 0.652344 8.976562 0.652344 19.894531 C 0.652344 30.816406 9.503906 39.667969 20.421875 39.667969 C 31.34375 39.667969 40.195312 30.816406 40.195312 19.894531 C 40.195312 8.976562 31.34375 0.125 20.421875 0.125 Z M 20.421875 0.125" clip-rule="nonzero"/></clipPath><clipPath id="0add673cd6"><rect x="0" width="41" y="0" height="40"/></clipPath><clipPath id="f827feafe8"><path d="M 944.386719 944.386719 L 983.929688 944.386719 L 983.929688 983.929688 L 944.386719 983.929688 Z M 944.386719 944.386719" clip-rule="nonzero"/></clipPath><clipPath id="e81a598fd2"><path d="M 964.15625 944.386719 C 953.238281 944.386719 944.386719 953.238281 944.386719 964.15625 C 944.386719 975.078125 953.238281 983.929688 964.15625 983.929688 C 975.078125 983.929688 983.929688 975.078125 983.929688 964.15625 C 983.929688 953.238281 975.078125 944.386719 964.15625 944.386719 Z M 964.15625 944.386719" clip-rule="nonzero"/></clipPath><clipPath id="c351198e26"><path d="M 0.386719 0.386719 L 39.929688 0.386719 L 39.929688 39.929688 L 0.386719 39.929688 Z M 0.386719 0.386719" clip-rule="nonzero"/></clipPath><clipPath id="8d566f628a"><path d="M 20.15625 0.386719 C 9.238281 0.386719 0.386719 9.238281 0.386719 20.15625 C 0.386719 31.078125 9.238281 39.929688 20.15625 39.929688 C 31.078125 39.929688 39.929688 31.078125 39.929688 20.15625 C 39.929688 9.238281 31.078125 0.386719 20.15625 0.386719 Z M 20.15625 0.386719" clip-rule="nonzero"/></clipPath><clipPath id="558bfc971d"><rect x="0" width="40" y="0" height="40"/></clipPath><clipPath id="1f540464c1"><path d="M 765.125 1065.652344 L 804.667969 1065.652344 L 804.667969 1105.195312 L 765.125 1105.195312 Z M 765.125 1065.652344" clip-rule="nonzero"/></clipPath><clipPath id="2cae53eeef"><path d="M 784.894531 1065.652344 C 773.976562 1065.652344 765.125 1074.503906 765.125 1085.421875 C 765.125 1096.34375 773.976562 1105.195312 784.894531 1105.195312 C 795.816406 1105.195312 804.667969 1096.34375 804.667969 1085.421875 C 804.667969 1074.503906 795.816406 1065.652344 784.894531 1065.652344 Z M 784.894531 1065.652344" clip-rule="nonzero"/></clipPath><clipPath id="10b66d8cbb"><path d="M 0.125 0.652344 L 39.667969 0.652344 L 39.667969 40.195312 L 0.125 40.195312 Z M 0.125 0.652344" clip-rule="nonzero"/></clipPath><clipPath id="1a03433aa1"><path d="M 19.894531 0.652344 C 8.976562 0.652344 0.125 9.503906 0.125 20.421875 C 0.125 31.34375 8.976562 40.195312 19.894531 40.195312 C 30.816406 40.195312 39.667969 31.34375 39.667969 20.421875 C 39.667969 9.503906 30.816406 0.652344 19.894531 0.652344 Z M 19.894531 0.652344" clip-rule="nonzero"/></clipPath><clipPath id="f5adb68dff"><rect x="0" width="40" y="0" height="41"/></clipPath><clipPath id="9e0f2b5a01"><path d="M 554.226562 1107.832031 L 593.773438 1107.832031 L 593.773438 1147.375 L 554.226562 1147.375 Z M 554.226562 1107.832031" clip-rule="nonzero"/></clipPath><clipPath id="1072ce121c"><path d="M 574 1107.832031 C 563.082031 1107.832031 554.226562 1116.683594 554.226562 1127.601562 C 554.226562 1138.523438 563.082031 1147.375 574 1147.375 C 584.917969 1147.375 593.769531 1138.523438 593.769531 1127.601562 C 593.769531 1116.683594 584.917969 1107.832031 574 1107.832031 Z M 574 1107.832031" clip-rule="nonzero"/></clipPath><clipPath id="d208ca0864"><path d="M 0.226562 0.832031 L 39.773438 0.832031 L 39.773438 40.375 L 0.226562 40.375 Z M 0.226562 0.832031" clip-rule="nonzero"/></clipPath><clipPath id="deafe81cec"><path d="M 20 0.832031 C 9.082031 0.832031 0.226562 9.683594 0.226562 20.601562 C 0.226562 31.523438 9.082031 40.375 20 40.375 C 30.917969 40.375 39.769531 31.523438 39.769531 20.601562 C 39.769531 9.683594 30.917969 0.832031 20 0.832031 Z M 20 0.832031" clip-rule="nonzero"/></clipPath><clipPath id="4a3edc50bd"><rect x="0" width="40" y="0" height="41"/></clipPath><clipPath id="2454fac287"><path d="M 343.332031 1065.652344 L 382.875 1065.652344 L 382.875 1105.195312 L 343.332031 1105.195312 Z M 343.332031 1065.652344" clip-rule="nonzero"/></clipPath><clipPath id="240ea36705"><path d="M 363.105469 1065.652344 C 352.183594 1065.652344 343.332031 1074.503906 343.332031 1085.421875 C 343.332031 1096.34375 352.183594 1105.195312 363.105469 1105.195312 C 374.023438 1105.195312 382.875 1096.34375 382.875 1085.421875 C 382.875 1074.503906 374.023438 1065.652344 363.105469 1065.652344 Z M 363.105469 1065.652344" clip-rule="nonzero"/></clipPath><clipPath id="57b4832c47"><path d="M 0.332031 0.652344 L 39.875 0.652344 L 39.875 40.195312 L 0.332031 40.195312 Z M 0.332031 0.652344" clip-rule="nonzero"/></clipPath><clipPath id="d45cd99f4f"><path d="M 20.105469 0.652344 C 9.183594 0.652344 0.332031 9.503906 0.332031 20.421875 C 0.332031 31.34375 9.183594 40.195312 20.105469 40.195312 C 31.023438 40.195312 39.875 31.34375 39.875 20.421875 C 39.875 9.503906 31.023438 0.652344 20.105469 0.652344 Z M 20.105469 0.652344" clip-rule="nonzero"/></clipPath><clipPath id="54d76e6225"><rect x="0" width="40" y="0" height="41"/></clipPath><clipPath id="a8e5117e58"><path d="M 164.070312 944.386719 L 203.613281 944.386719 L 203.613281 983.929688 L 164.070312 983.929688 Z M 164.070312 944.386719" clip-rule="nonzero"/></clipPath><clipPath id="a2cb036b0c"><path d="M 183.84375 944.386719 C 172.921875 944.386719 164.070312 953.238281 164.070312 964.15625 C 164.070312 975.078125 172.921875 983.929688 183.84375 983.929688 C 194.761719 983.929688 203.613281 975.078125 203.613281 964.15625 C 203.613281 953.238281 194.761719 944.386719 183.84375 944.386719 Z M 183.84375 944.386719" clip-rule="nonzero"/></clipPath><clipPath id="8f19450f49"><path d="M 0.0703125 0.386719 L 39.613281 0.386719 L 39.613281 39.929688 L 0.0703125 39.929688 Z M 0.0703125 0.386719" clip-rule="nonzero"/></clipPath><clipPath id="828a7929b3"><path d="M 19.84375 0.386719 C 8.921875 0.386719 0.0703125 9.238281 0.0703125 20.15625 C 0.0703125 31.078125 8.921875 39.929688 19.84375 39.929688 C 30.761719 39.929688 39.613281 31.078125 39.613281 20.15625 C 39.613281 9.238281 30.761719 0.386719 19.84375 0.386719 Z M 19.84375 0.386719" clip-rule="nonzero"/></clipPath><clipPath id="de91663899"><rect x="0" width="40" y="0" height="40"/></clipPath><clipPath id="66d05414da"><path d="M 42.804688 765.125 L 82.347656 765.125 L 82.347656 804.667969 L 42.804688 804.667969 Z M 42.804688 765.125" clip-rule="nonzero"/></clipPath><clipPath id="c0166e6d38"><path d="M 62.578125 765.125 C 51.65625 765.125 42.804688 773.976562 42.804688 784.894531 C 42.804688 795.816406 51.65625 804.667969 62.578125 804.667969 C 73.496094 804.667969 82.347656 795.816406 82.347656 784.894531 C 82.347656 773.976562 73.496094 765.125 62.578125 765.125 Z M 62.578125 765.125" clip-rule="nonzero"/></clipPath><clipPath id="080030f81f"><path d="M 0.804688 0.125 L 40.347656 0.125 L 40.347656 39.667969 L 0.804688 39.667969 Z M 0.804688 0.125" clip-rule="nonzero"/></clipPath><clipPath id="aa14517182"><path d="M 20.578125 0.125 C 9.65625 0.125 0.804688 8.976562 0.804688 19.894531 C 0.804688 30.816406 9.65625 39.667969 20.578125 39.667969 C 31.496094 39.667969 40.347656 30.816406 40.347656 19.894531 C 40.347656 8.976562 31.496094 0.125 20.578125 0.125 Z M 20.578125 0.125" clip-rule="nonzero"/></clipPath><clipPath id="a31bcbbe84"><rect x="0" width="41" y="0" height="40"/></clipPath><clipPath id="9e6db47d3b"><path d="M 0.625 554.226562 L 40.167969 554.226562 L 40.167969 593.769531 L 0.625 593.769531 Z M 0.625 554.226562" clip-rule="nonzero"/></clipPath><clipPath id="786e18abf2"><path d="M 20.398438 554.226562 C 9.476562 554.226562 0.625 563.082031 0.625 574 C 0.625 584.917969 9.476562 593.769531 20.398438 593.769531 C 31.316406 593.769531 40.167969 584.917969 40.167969 574 C 40.167969 563.082031 31.316406 554.226562 20.398438 554.226562 Z M 20.398438 554.226562" clip-rule="nonzero"/></clipPath><clipPath id="4899ccacf7"><path d="M 0.625 0.226562 L 40.167969 0.226562 L 40.167969 39.769531 L 0.625 39.769531 Z M 0.625 0.226562" clip-rule="nonzero"/></clipPath><clipPath id="35f9ebf3d4"><path d="M 20.398438 0.226562 C 9.476562 0.226562 0.625 9.082031 0.625 20 C 0.625 30.917969 9.476562 39.769531 20.398438 39.769531 C 31.316406 39.769531 40.167969 30.917969 40.167969 20 C 40.167969 9.082031 31.316406 0.226562 20.398438 0.226562 Z M 20.398438 0.226562" clip-rule="nonzero"/></clipPath><clipPath id="39228a57cb"><rect x="0" width="41" y="0" height="40"/></clipPath><clipPath id="a444cca452"><path d="M 42.804688 343.332031 L 82.347656 343.332031 L 82.347656 382.875 L 42.804688 382.875 Z M 42.804688 343.332031" clip-rule="nonzero"/></clipPath><clipPath id="2cd0ebc7eb"><path d="M 62.578125 343.332031 C 51.65625 343.332031 42.804688 352.183594 42.804688 363.105469 C 42.804688 374.023438 51.65625 382.875 62.578125 382.875 C 73.496094 382.875 82.347656 374.023438 82.347656 363.105469 C 82.347656 352.183594 73.496094 343.332031 62.578125 343.332031 Z M 62.578125 343.332031" clip-rule="nonzero"/></clipPath><clipPath id="1cb6fa036c"><path d="M 0.804688 0.332031 L 40.347656 0.332031 L 40.347656 39.875 L 0.804688 39.875 Z M 0.804688 0.332031" clip-rule="nonzero"/></clipPath><clipPath id="621ab95c42"><path d="M 20.578125 0.332031 C 9.65625 0.332031 0.804688 9.183594 0.804688 20.105469 C 0.804688 31.023438 9.65625 39.875 20.578125 39.875 C 31.496094 39.875 40.347656 31.023438 40.347656 20.105469 C 40.347656 9.183594 31.496094 0.332031 20.578125 0.332031 Z M 20.578125 0.332031" clip-rule="nonzero"/></clipPath><clipPath id="36a72ef1f8"><rect x="0" width="41" y="0" height="40"/></clipPath><clipPath id="18942bc381"><path d="M 164.070312 164.070312 L 203.613281 164.070312 L 203.613281 203.613281 L 164.070312 203.613281 Z M 164.070312 164.070312" clip-rule="nonzero"/></clipPath><clipPath id="9ada782155"><path d="M 183.84375 164.070312 C 172.921875 164.070312 164.070312 172.921875 164.070312 183.839844 C 164.070312 194.761719 172.921875 203.613281 183.84375 203.613281 C 194.761719 203.613281 203.613281 194.761719 203.613281 183.839844 C 203.613281 172.921875 194.761719 164.070312 183.84375 164.070312 Z M 183.84375 164.070312" clip-rule="nonzero"/></clipPath><clipPath id="33952e6327"><path d="M 0.0703125 0.0703125 L 39.613281 0.0703125 L 39.613281 39.613281 L 0.0703125 39.613281 Z M 0.0703125 0.0703125" clip-rule="nonzero"/></clipPath><clipPath id="1cf5dffb48"><path d="M 19.84375 0.0703125 C 8.921875 0.0703125 0.0703125 8.921875 0.0703125 19.839844 C 0.0703125 30.761719 8.921875 39.613281 19.84375 39.613281 C 30.761719 39.613281 39.613281 30.761719 39.613281 19.839844 C 39.613281 8.921875 30.761719 0.0703125 19.84375 0.0703125 Z M 19.84375 0.0703125" clip-rule="nonzero"/></clipPath><clipPath id="ecc2b4b305"><rect x="0" width="40" y="0" height="40"/></clipPath><clipPath id="a40a1ae7b0"><path d="M 343.332031 42.804688 L 382.875 42.804688 L 382.875 82.347656 L 343.332031 82.347656 Z M 343.332031 42.804688" clip-rule="nonzero"/></clipPath><clipPath id="129d0286b6"><path d="M 363.105469 42.804688 C 352.183594 42.804688 343.332031 51.65625 343.332031 62.578125 C 343.332031 73.496094 352.183594 82.347656 363.105469 82.347656 C 374.023438 82.347656 382.875 73.496094 382.875 62.578125 C 382.875 51.65625 374.023438 42.804688 363.105469 42.804688 Z M 363.105469 42.804688" clip-rule="nonzero"/></clipPath><clipPath id="36a4acba62"><path d="M 0.332031 0.804688 L 39.875 0.804688 L 39.875 40.347656 L 0.332031 40.347656 Z M 0.332031 0.804688" clip-rule="nonzero"/></clipPath><clipPath id="917c59e01c"><path d="M 20.105469 0.804688 C 9.183594 0.804688 0.332031 9.65625 0.332031 20.578125 C 0.332031 31.496094 9.183594 40.347656 20.105469 40.347656 C 31.023438 40.347656 39.875 31.496094 39.875 20.578125 C 39.875 9.65625 31.023438 0.804688 20.105469 0.804688 Z M 20.105469 0.804688" clip-rule="nonzero"/></clipPath><clipPath id="23aff0b849"><rect x="0" width="40" y="0" height="41"/></clipPath><clipPath id="9dbc7b9044"><path d="M 554.226562 0.625 L 593.773438 0.625 L 593.773438 40.167969 L 554.226562 40.167969 Z M 554.226562 0.625" clip-rule="nonzero"/></clipPath><clipPath id="beaa1d5e7c"><path d="M 574 0.625 C 563.082031 0.625 554.226562 9.476562 554.226562 20.398438 C 554.226562 31.316406 563.082031 40.167969 574 40.167969 C 584.917969 40.167969 593.769531 31.316406 593.769531 20.398438 C 593.769531 9.476562 584.917969 0.625 574 0.625 Z M 574 0.625" clip-rule="nonzero"/></clipPath><clipPath id="a25ae71689"><path d="M 0.226562 0.625 L 39.773438 0.625 L 39.773438 40.167969 L 0.226562 40.167969 Z M 0.226562 0.625" clip-rule="nonzero"/></clipPath><clipPath id="f2adb469d6"><path d="M 20 0.625 C 9.082031 0.625 0.226562 9.476562 0.226562 20.398438 C 0.226562 31.316406 9.082031 40.167969 20 40.167969 C 30.917969 40.167969 39.769531 31.316406 39.769531 20.398438 C 39.769531 9.476562 30.917969 0.625 20 0.625 Z M 20 0.625" clip-rule="nonzero"/></clipPath><clipPath id="5630e18e62"><rect x="0" width="40" y="0" height="41"/></clipPath><clipPath id="f03430d083"><path d="M 765.125 42.804688 L 804.667969 42.804688 L 804.667969 82.347656 L 765.125 82.347656 Z M 765.125 42.804688" clip-rule="nonzero"/></clipPath><clipPath id="847dc743b9"><path d="M 784.894531 42.804688 C 773.976562 42.804688 765.125 51.65625 765.125 62.578125 C 765.125 73.496094 773.976562 82.347656 784.894531 82.347656 C 795.816406 82.347656 804.667969 73.496094 804.667969 62.578125 C 804.667969 51.65625 795.816406 42.804688 784.894531 42.804688 Z M 784.894531 42.804688" clip-rule="nonzero"/></clipPath><clipPath id="0ec3b9d2bd"><path d="M 0.125 0.804688 L 39.667969 0.804688 L 39.667969 40.347656 L 0.125 40.347656 Z M 0.125 0.804688" clip-rule="nonzero"/></clipPath><clipPath id="2662d25a80"><path d="M 19.894531 0.804688 C 8.976562 0.804688 0.125 9.65625 0.125 20.578125 C 0.125 31.496094 8.976562 40.347656 19.894531 40.347656 C 30.816406 40.347656 39.667969 31.496094 39.667969 20.578125 C 39.667969 9.65625 30.816406 0.804688 19.894531 0.804688 Z M 19.894531 0.804688" clip-rule="nonzero"/></clipPath><clipPath id="9944777b95"><rect x="0" width="40" y="0" height="41"/></clipPath><clipPath id="dab18fe7ca"><path d="M 944.386719 164.070312 L 983.929688 164.070312 L 983.929688 203.613281 L 944.386719 203.613281 Z M 944.386719 164.070312" clip-rule="nonzero"/></clipPath><clipPath id="54edd71b79"><path d="M 964.15625 164.070312 C 953.238281 164.070312 944.386719 172.921875 944.386719 183.839844 C 944.386719 194.761719 953.238281 203.613281 964.15625 203.613281 C 975.078125 203.613281 983.929688 194.761719 983.929688 183.839844 C 983.929688 172.921875 975.078125 164.070312 964.15625 164.070312 Z M 964.15625 164.070312" clip-rule="nonzero"/></clipPath><clipPath id="13713abfd9"><path d="M 0.386719 0.0703125 L 39.929688 0.0703125 L 39.929688 39.613281 L 0.386719 39.613281 Z M 0.386719 0.0703125" clip-rule="nonzero"/></clipPath><clipPath id="a90b96cebf"><path d="M 20.15625 0.0703125 C 9.238281 0.0703125 0.386719 8.921875 0.386719 19.839844 C 0.386719 30.761719 9.238281 39.613281 20.15625 39.613281 C 31.078125 39.613281 39.929688 30.761719 39.929688 19.839844 C 39.929688 8.921875 31.078125 0.0703125 20.15625 0.0703125 Z M 20.15625 0.0703125" clip-rule="nonzero"/></clipPath><clipPath id="cfcfd0c2db"><rect x="0" width="40" y="0" height="40"/></clipPath><clipPath id="0d76a63e31"><path d="M 1065.652344 343.332031 L 1105.195312 343.332031 L 1105.195312 382.875 L 1065.652344 382.875 Z M 1065.652344 343.332031" clip-rule="nonzero"/></clipPath><clipPath id="ca7bd7c1d5"><path d="M 1085.421875 343.332031 C 1074.503906 343.332031 1065.652344 352.183594 1065.652344 363.105469 C 1065.652344 374.023438 1074.503906 382.875 1085.421875 382.875 C 1096.34375 382.875 1105.195312 374.023438 1105.195312 363.105469 C 1105.195312 352.183594 1096.34375 343.332031 1085.421875 343.332031 Z M 1085.421875 343.332031" clip-rule="nonzero"/></clipPath><clipPath id="4b54ab0038"><path d="M 0.652344 0.332031 L 40.195312 0.332031 L 40.195312 39.875 L 0.652344 39.875 Z M 0.652344 0.332031" clip-rule="nonzero"/></clipPath><clipPath id="d31adbc728"><path d="M 20.421875 0.332031 C 9.503906 0.332031 0.652344 9.183594 0.652344 20.105469 C 0.652344 31.023438 9.503906 39.875 20.421875 39.875 C 31.34375 39.875 40.195312 31.023438 40.195312 20.105469 C 40.195312 9.183594 31.34375 0.332031 20.421875 0.332031 Z M 20.421875 0.332031" clip-rule="nonzero"/></clipPath><clipPath id="fb95fcad18"><rect x="0" width="41" y="0" height="40"/></clipPath><clipPath id="7da91956c1"><rect x="0" width="1148" y="0" height="1148"/></clipPath><clipPath id="679f146580"><path d="M 670.914062 670.914062 L 829.085938 670.914062 L 829.085938 829.085938 L 670.914062 829.085938 Z M 670.914062 670.914062" clip-rule="nonzero"/></clipPath><clipPath id="a87895a8fd"><path d="M 750 670.914062 C 706.320312 670.914062 670.914062 706.320312 670.914062 750 C 670.914062 793.679688 706.320312 829.085938 750 829.085938 C 793.679688 829.085938 829.085938 793.679688 829.085938 750 C 829.085938 706.320312 793.679688 670.914062 750 670.914062 Z M 750 670.914062" clip-rule="nonzero"/></clipPath><clipPath id="cb664f177d"><path d="M 0.914062 0.914062 L 159.085938 0.914062 L 159.085938 159.085938 L 0.914062 159.085938 Z M 0.914062 0.914062" clip-rule="nonzero"/></clipPath><clipPath id="33245d782a"><path d="M 80 0.914062 C 36.320312 0.914062 0.914062 36.320312 0.914062 80 C 0.914062 123.679688 36.320312 159.085938 80 159.085938 C 123.679688 159.085938 159.085938 123.679688 159.085938 80 C 159.085938 36.320312 123.679688 0.914062 80 0.914062 Z M 80 0.914062" clip-rule="nonzero"/></clipPath><clipPath id="747854d3fb"><rect x="0" width="160" y="0" height="160"/></clipPath><clipPath id="82d57edb30"><path d="M 881.808594 697.277344 L 987.257812 697.277344 L 987.257812 802.722656 L 881.808594 802.722656 Z M 881.808594 697.277344" clip-rule="nonzero"/></clipPath><clipPath id="430a4c4ad8"><path d="M 934.535156 697.277344 C 905.414062 697.277344 881.808594 720.882812 881.808594 750 C 881.808594 779.117188 905.414062 802.722656 934.535156 802.722656 C 963.652344 802.722656 987.257812 779.117188 987.257812 750 C 987.257812 720.882812 963.652344 697.277344 934.535156 697.277344 Z M 934.535156 697.277344" clip-rule="nonzero"/></clipPath><clipPath id="feae3f8805"><path d="M 0.808594 0.277344 L 106.257812 0.277344 L 106.257812 105.722656 L 0.808594 105.722656 Z M 0.808594 0.277344" clip-rule="nonzero"/></clipPath><clipPath id="4498810a2b"><path d="M 53.535156 0.277344 C 24.414062 0.277344 0.808594 23.882812 0.808594 53 C 0.808594 82.117188 24.414062 105.722656 53.535156 105.722656 C 82.652344 105.722656 106.257812 82.117188 106.257812 53 C 106.257812 23.882812 82.652344 0.277344 53.535156 0.277344 Z M 53.535156 0.277344" clip-rule="nonzero"/></clipPath><clipPath id="f77b255455"><rect x="0" width="107" y="0" height="106"/></clipPath><clipPath id="4288ef4753"><path d="M 826.449219 826.449219 L 931.898438 826.449219 L 931.898438 931.898438 L 826.449219 931.898438 Z M 826.449219 826.449219" clip-rule="nonzero"/></clipPath><clipPath id="5214d48389"><path d="M 879.175781 826.449219 C 850.054688 826.449219 826.449219 850.054688 826.449219 879.175781 C 826.449219 908.292969 850.054688 931.898438 879.175781 931.898438 C 908.292969 931.898438 931.898438 908.292969 931.898438 879.175781 C 931.898438 850.054688 908.292969 826.449219 879.175781 826.449219 Z M 879.175781 826.449219" clip-rule="nonzero"/></clipPath><clipPath id="31bc7a79b7"><path d="M 0.449219 0.449219 L 105.898438 0.449219 L 105.898438 105.898438 L 0.449219 105.898438 Z M 0.449219 0.449219" clip-rule="nonzero"/></clipPath><clipPath id="37fcf72ccc"><path d="M 53.175781 0.449219 C 24.054688 0.449219 0.449219 24.054688 0.449219 53.175781 C 0.449219 82.292969 24.054688 105.898438 53.175781 105.898438 C 82.292969 105.898438 105.898438 82.292969 105.898438 53.175781 C 105.898438 24.054688 82.292969 0.449219 53.175781 0.449219 Z M 53.175781 0.449219" clip-rule="nonzero"/></clipPath><clipPath id="df1b684742"><rect x="0" width="106" y="0" height="106"/></clipPath><clipPath id="7eecd0cdd2"><path d="M 697.277344 881.808594 L 802.722656 881.808594 L 802.722656 987.257812 L 697.277344 987.257812 Z M 697.277344 881.808594" clip-rule="nonzero"/></clipPath><clipPath id="f855fa1499"><path d="M 750 881.808594 C 720.882812 881.808594 697.277344 905.414062 697.277344 934.535156 C 697.277344 963.652344 720.882812 987.257812 750 987.257812 C 779.117188 987.257812 802.722656 963.652344 802.722656 934.535156 C 802.722656 905.414062 779.117188 881.808594 750 881.808594 Z M 750 881.808594" clip-rule="nonzero"/></clipPath><clipPath id="414875a1da"><path d="M 0.277344 0.808594 L 105.722656 0.808594 L 105.722656 106.257812 L 0.277344 106.257812 Z M 0.277344 0.808594" clip-rule="nonzero"/></clipPath><clipPath id="34ea331267"><path d="M 53 0.808594 C 23.882812 0.808594 0.277344 24.414062 0.277344 53.535156 C 0.277344 82.652344 23.882812 106.257812 53 106.257812 C 82.117188 106.257812 105.722656 82.652344 105.722656 53.535156 C 105.722656 24.414062 82.117188 0.808594 53 0.808594 Z M 53 0.808594" clip-rule="nonzero"/></clipPath><clipPath id="5192992c0f"><rect x="0" width="106" y="0" height="107"/></clipPath><clipPath id="3ed83e4099"><path d="M 568.101562 826.449219 L 673.550781 826.449219 L 673.550781 931.898438 L 568.101562 931.898438 Z M 568.101562 826.449219" clip-rule="nonzero"/></clipPath><clipPath id="5e0e75d2df"><path d="M 620.824219 826.449219 C 591.707031 826.449219 568.101562 850.054688 568.101562 879.175781 C 568.101562 908.292969 591.707031 931.898438 620.824219 931.898438 C 649.945312 931.898438 673.550781 908.292969 673.550781 879.175781 C 673.550781 850.054688 649.945312 826.449219 620.824219 826.449219 Z M 620.824219 826.449219" clip-rule="nonzero"/></clipPath><clipPath id="4302e49dac"><path d="M 0.101562 0.449219 L 105.550781 0.449219 L 105.550781 105.898438 L 0.101562 105.898438 Z M 0.101562 0.449219" clip-rule="nonzero"/></clipPath><clipPath id="6453cdf477"><path d="M 52.824219 0.449219 C 23.707031 0.449219 0.101562 24.054688 0.101562 53.175781 C 0.101562 82.292969 23.707031 105.898438 52.824219 105.898438 C 81.945312 105.898438 105.550781 82.292969 105.550781 53.175781 C 105.550781 24.054688 81.945312 0.449219 52.824219 0.449219 Z M 52.824219 0.449219" clip-rule="nonzero"/></clipPath><clipPath id="155039e78b"><rect x="0" width="106" y="0" height="106"/></clipPath><clipPath id="5ae7f7e659"><path d="M 512.742188 697.277344 L 618.191406 697.277344 L 618.191406 802.722656 L 512.742188 802.722656 Z M 512.742188 697.277344" clip-rule="nonzero"/></clipPath><clipPath id="3f67ee2631"><path d="M 565.464844 697.277344 C 536.347656 697.277344 512.742188 720.882812 512.742188 750 C 512.742188 779.117188 536.347656 802.722656 565.464844 802.722656 C 594.585938 802.722656 618.191406 779.117188 618.191406 750 C 618.191406 720.882812 594.585938 697.277344 565.464844 697.277344 Z M 565.464844 697.277344" clip-rule="nonzero"/></clipPath><clipPath id="3179fe38de"><path d="M 0.742188 0.277344 L 106.191406 0.277344 L 106.191406 105.722656 L 0.742188 105.722656 Z M 0.742188 0.277344" clip-rule="nonzero"/></clipPath><clipPath id="0e71a2bf4a"><path d="M 53.464844 0.277344 C 24.347656 0.277344 0.742188 23.882812 0.742188 53 C 0.742188 82.117188 24.347656 105.722656 53.464844 105.722656 C 82.585938 105.722656 106.191406 82.117188 106.191406 53 C 106.191406 23.882812 82.585938 0.277344 53.464844 0.277344 Z M 53.464844 0.277344" clip-rule="nonzero"/></clipPath><clipPath id="f81d9950c7"><rect x="0" width="107" y="0" height="106"/></clipPath><clipPath id="54e8731da6"><path d="M 568.101562 568.101562 L 673.550781 568.101562 L 673.550781 673.550781 L 568.101562 673.550781 Z M 568.101562 568.101562" clip-rule="nonzero"/></clipPath><clipPath id="4454e98a0e"><path d="M 620.824219 568.101562 C 591.707031 568.101562 568.101562 591.707031 568.101562 620.824219 C 568.101562 649.945312 591.707031 673.550781 620.824219 673.550781 C 649.945312 673.550781 673.550781 649.945312 673.550781 620.824219 C 673.550781 591.707031 649.945312 568.101562 620.824219 568.101562 Z M 620.824219 568.101562" clip-rule="nonzero"/></clipPath><clipPath id="56a6143d88"><path d="M 0.101562 0.101562 L 105.550781 0.101562 L 105.550781 105.550781 L 0.101562 105.550781 Z M 0.101562 0.101562" clip-rule="nonzero"/></clipPath><clipPath id="666f7d8f5e"><path d="M 52.824219 0.101562 C 23.707031 0.101562 0.101562 23.707031 0.101562 52.824219 C 0.101562 81.945312 23.707031 105.550781 52.824219 105.550781 C 81.945312 105.550781 105.550781 81.945312 105.550781 52.824219 C 105.550781 23.707031 81.945312 0.101562 52.824219 0.101562 Z M 52.824219 0.101562" clip-rule="nonzero"/></clipPath><clipPath id="0242d77e40"><rect x="0" width="106" y="0" height="106"/></clipPath><clipPath id="a86ba7280a"><path d="M 697.277344 512.742188 L 802.722656 512.742188 L 802.722656 618.191406 L 697.277344 618.191406 Z M 697.277344 512.742188" clip-rule="nonzero"/></clipPath><clipPath id="b25a8bed6a"><path d="M 750 512.742188 C 720.882812 512.742188 697.277344 536.347656 697.277344 565.464844 C 697.277344 594.585938 720.882812 618.191406 750 618.191406 C 779.117188 618.191406 802.722656 594.585938 802.722656 565.464844 C 802.722656 536.347656 779.117188 512.742188 750 512.742188 Z M 750 512.742188" clip-rule="nonzero"/></clipPath><clipPath id="ad36eb860d"><path d="M 0.277344 0.742188 L 105.722656 0.742188 L 105.722656 106.191406 L 0.277344 106.191406 Z M 0.277344 0.742188" clip-rule="nonzero"/></clipPath><clipPath id="41e4dd12ea"><path d="M 53 0.742188 C 23.882812 0.742188 0.277344 24.347656 0.277344 53.464844 C 0.277344 82.585938 23.882812 106.191406 53 106.191406 C 82.117188 106.191406 105.722656 82.585938 105.722656 53.464844 C 105.722656 24.347656 82.117188 0.742188 53 0.742188 Z M 53 0.742188" clip-rule="nonzero"/></clipPath><clipPath id="82e3e0629f"><rect x="0" width="106" y="0" height="107"/></clipPath><clipPath id="f8a957061b"><path d="M 826.449219 568.101562 L 931.898438 568.101562 L 931.898438 673.550781 L 826.449219 673.550781 Z M 826.449219 568.101562" clip-rule="nonzero"/></clipPath><clipPath id="f1bca40857"><path d="M 879.175781 568.101562 C 850.054688 568.101562 826.449219 591.707031 826.449219 620.824219 C 826.449219 649.945312 850.054688 673.550781 879.175781 673.550781 C 908.292969 673.550781 931.898438 649.945312 931.898438 620.824219 C 931.898438 591.707031 908.292969 568.101562 879.175781 568.101562 Z M 879.175781 568.101562" clip-rule="nonzero"/></clipPath><clipPath id="d9214bef02"><path d="M 0.449219 0.101562 L 105.898438 0.101562 L 105.898438 105.550781 L 0.449219 105.550781 Z M 0.449219 0.101562" clip-rule="nonzero"/></clipPath><clipPath id="ba1bcee098"><path d="M 53.175781 0.101562 C 24.054688 0.101562 0.449219 23.707031 0.449219 52.824219 C 0.449219 81.945312 24.054688 105.550781 53.175781 105.550781 C 82.292969 105.550781 105.898438 81.945312 105.898438 52.824219 C 105.898438 23.707031 82.292969 0.101562 53.175781 0.101562 Z M 53.175781 0.101562" clip-rule="nonzero"/></clipPath><clipPath id="3a87b531d1"><rect x="0" width="106" y="0" height="106"/></clipPath><clipPath id="f3e56f0888"><path d="M 739.117188 370.046875 L 805.019531 370.046875 L 805.019531 435.953125 L 739.117188 435.953125 Z M 739.117188 370.046875" clip-rule="nonzero"/></clipPath><clipPath id="4ee6bca5a3"><path d="M 772.070312 370.046875 C 753.871094 370.046875 739.117188 384.800781 739.117188 403 C 739.117188 421.199219 753.871094 435.953125 772.070312 435.953125 C 790.269531 435.953125 805.019531 421.199219 805.019531 403 C 805.019531 384.800781 790.269531 370.046875 772.070312 370.046875 Z M 772.070312 370.046875" clip-rule="nonzero"/></clipPath><clipPath id="7ae26f5f30"><path d="M 0.117188 0.046875 L 66.019531 0.046875 L 66.019531 65.953125 L 0.117188 65.953125 Z M 0.117188 0.046875" clip-rule="nonzero"/></clipPath><clipPath id="eeefc47dc5"><path d="M 33.070312 0.046875 C 14.871094 0.046875 0.117188 14.800781 0.117188 33 C 0.117188 51.199219 14.871094 65.953125 33.070312 65.953125 C 51.269531 65.953125 66.019531 51.199219 66.019531 33 C 66.019531 14.800781 51.269531 0.046875 33.070312 0.046875 Z M 33.070312 0.046875" clip-rule="nonzero"/></clipPath><clipPath id="7bffe967bb"><rect x="0" width="67" y="0" height="66"/></clipPath><clipPath id="b737f4cd16"><path d="M 689.027344 553.261719 L 754.933594 553.261719 L 754.933594 619.167969 L 689.027344 619.167969 Z M 689.027344 553.261719" clip-rule="nonzero"/></clipPath><clipPath id="95d650eceb"><path d="M 721.980469 553.261719 C 703.78125 553.261719 689.027344 568.015625 689.027344 586.214844 C 689.027344 604.414062 703.78125 619.167969 721.980469 619.167969 C 740.179688 619.167969 754.933594 604.414062 754.933594 586.214844 C 754.933594 568.015625 740.179688 553.261719 721.980469 553.261719 Z M 721.980469 553.261719" clip-rule="nonzero"/></clipPath><clipPath id="3222a5bab0"><path d="M 0.0273438 0.261719 L 65.933594 0.261719 L 65.933594 66.167969 L 0.0273438 66.167969 Z M 0.0273438 0.261719" clip-rule="nonzero"/></clipPath><clipPath id="20bfdb096c"><path d="M 32.980469 0.261719 C 14.78125 0.261719 0.0273438 15.015625 0.0273438 33.214844 C 0.0273438 51.414062 14.78125 66.167969 32.980469 66.167969 C 51.179688 66.167969 65.933594 51.414062 65.933594 33.214844 C 65.933594 15.015625 51.179688 0.261719 32.980469 0.261719 Z M 32.980469 0.261719" clip-rule="nonzero"/></clipPath><clipPath id="613a2142cf"><rect x="0" width="66" y="0" height="67"/></clipPath><clipPath id="718b7fa8f4"><path d="M 554.582031 689.027344 L 620.488281 689.027344 L 620.488281 754.933594 L 554.582031 754.933594 Z M 554.582031 689.027344" clip-rule="nonzero"/></clipPath><clipPath id="382f3262f6"><path d="M 587.535156 689.027344 C 569.335938 689.027344 554.582031 703.78125 554.582031 721.980469 C 554.582031 740.179688 569.335938 754.933594 587.535156 754.933594 C 605.734375 754.933594 620.488281 740.179688 620.488281 721.980469 C 620.488281 703.78125 605.734375 689.027344 587.535156 689.027344 Z M 587.535156 689.027344" clip-rule="nonzero"/></clipPath><clipPath id="edcf10ed98"><path d="M 0.582031 0.0273438 L 66.488281 0.0273438 L 66.488281 65.933594 L 0.582031 65.933594 Z M 0.582031 0.0273438" clip-rule="nonzero"/></clipPath><clipPath id="1cd92b5e02"><path d="M 33.535156 0.0273438 C 15.335938 0.0273438 0.582031 14.78125 0.582031 32.980469 C 0.582031 51.179688 15.335938 65.933594 33.535156 65.933594 C 51.734375 65.933594 66.488281 51.179688 66.488281 32.980469 C 66.488281 14.78125 51.734375 0.0273438 33.535156 0.0273438 Z M 33.535156 0.0273438" clip-rule="nonzero"/></clipPath><clipPath id="33fb65cac5"><rect x="0" width="67" y="0" height="66"/></clipPath><clipPath id="057e49e062"><path d="M 370.046875 739.117188 L 435.953125 739.117188 L 435.953125 805.019531 L 370.046875 805.019531 Z M 370.046875 739.117188" clip-rule="nonzero"/></clipPath><clipPath id="6c17f327d8"><path d="M 403 739.117188 C 384.800781 739.117188 370.046875 753.871094 370.046875 772.070312 C 370.046875 790.269531 384.800781 805.019531 403 805.019531 C 421.199219 805.019531 435.953125 790.269531 435.953125 772.070312 C 435.953125 753.871094 421.199219 739.117188 403 739.117188 Z M 403 739.117188" clip-rule="nonzero"/></clipPath><clipPath id="93780e5eec"><path d="M 0.046875 0.117188 L 65.953125 0.117188 L 65.953125 66.019531 L 0.046875 66.019531 Z M 0.046875 0.117188" clip-rule="nonzero"/></clipPath><clipPath id="47665ab5a6"><path d="M 33 0.117188 C 14.800781 0.117188 0.046875 14.871094 0.046875 33.070312 C 0.046875 51.269531 14.800781 66.019531 33 66.019531 C 51.199219 66.019531 65.953125 51.269531 65.953125 33.070312 C 65.953125 14.871094 51.199219 0.117188 33 0.117188 Z M 33 0.117188" clip-rule="nonzero"/></clipPath><clipPath id="b341162257"><rect x="0" width="66" y="0" height="67"/></clipPath><clipPath id="04a03b6fdd"><path d="M 186.832031 689.027344 L 252.738281 689.027344 L 252.738281 754.933594 L 186.832031 754.933594 Z M 186.832031 689.027344" clip-rule="nonzero"/></clipPath><clipPath id="a65f518f5f"><path d="M 219.785156 689.027344 C 201.585938 689.027344 186.832031 703.78125 186.832031 721.980469 C 186.832031 740.179688 201.585938 754.933594 219.785156 754.933594 C 237.984375 754.933594 252.738281 740.179688 252.738281 721.980469 C 252.738281 703.78125 237.984375 689.027344 219.785156 689.027344 Z M 219.785156 689.027344" clip-rule="nonzero"/></clipPath><clipPath id="6cdfa0f79c"><path d="M 0.832031 0.0273438 L 66.738281 0.0273438 L 66.738281 65.933594 L 0.832031 65.933594 Z M 0.832031 0.0273438" clip-rule="nonzero"/></clipPath><clipPath id="68f47f2a26"><path d="M 33.785156 0.0273438 C 15.585938 0.0273438 0.832031 14.78125 0.832031 32.980469 C 0.832031 51.179688 15.585938 65.933594 33.785156 65.933594 C 51.984375 65.933594 66.738281 51.179688 66.738281 32.980469 C 66.738281 14.78125 51.984375 0.0273438 33.785156 0.0273438 Z M 33.785156 0.0273438" clip-rule="nonzero"/></clipPath><clipPath id="9e7c762cb0"><rect x="0" width="67" y="0" height="66"/></clipPath><clipPath id="3da2cda13b"><path d="M 51.066406 554.582031 L 116.972656 554.582031 L 116.972656 620.488281 L 51.066406 620.488281 Z M 51.066406 554.582031" clip-rule="nonzero"/></clipPath><clipPath id="a39ec19211"><path d="M 84.019531 554.582031 C 65.820312 554.582031 51.066406 569.335938 51.066406 587.535156 C 51.066406 605.734375 65.820312 620.488281 84.019531 620.488281 C 102.21875 620.488281 116.972656 605.734375 116.972656 587.535156 C 116.972656 569.335938 102.21875 554.582031 84.019531 554.582031 Z M 84.019531 554.582031" clip-rule="nonzero"/></clipPath><clipPath id="88884f3131"><path d="M 0.0664062 0.582031 L 65.972656 0.582031 L 65.972656 66.488281 L 0.0664062 66.488281 Z M 0.0664062 0.582031" clip-rule="nonzero"/></clipPath><clipPath id="36edc4ea64"><path d="M 33.019531 0.582031 C 14.820312 0.582031 0.0664062 15.335938 0.0664062 33.535156 C 0.0664062 51.734375 14.820312 66.488281 33.019531 66.488281 C 51.21875 66.488281 65.972656 51.734375 65.972656 33.535156 C 65.972656 15.335938 51.21875 0.582031 33.019531 0.582031 Z M 33.019531 0.582031" clip-rule="nonzero"/></clipPath><clipPath id="ee5c236aab"><rect x="0" width="66" y="0" height="67"/></clipPath><clipPath id="a95dcabd02"><path d="M 0.980469 370.046875 L 66.882812 370.046875 L 66.882812 435.953125 L 0.980469 435.953125 Z M 0.980469 370.046875" clip-rule="nonzero"/></clipPath><clipPath id="d96e535617"><path d="M 33.929688 370.046875 C 15.730469 370.046875 0.980469 384.800781 0.980469 403 C 0.980469 421.199219 15.730469 435.953125 33.929688 435.953125 C 52.128906 435.953125 66.882812 421.199219 66.882812 403 C 66.882812 384.800781 52.128906 370.046875 33.929688 370.046875 Z M 33.929688 370.046875" clip-rule="nonzero"/></clipPath><clipPath id="0cf9018cf6"><path d="M 0.980469 0.046875 L 66.882812 0.046875 L 66.882812 65.953125 L 0.980469 65.953125 Z M 0.980469 0.046875" clip-rule="nonzero"/></clipPath><clipPath id="7dd31821a2"><path d="M 33.929688 0.046875 C 15.730469 0.046875 0.980469 14.800781 0.980469 33 C 0.980469 51.199219 15.730469 65.953125 33.929688 65.953125 C 52.128906 65.953125 66.882812 51.199219 66.882812 33 C 66.882812 14.800781 52.128906 0.046875 33.929688 0.046875 Z M 33.929688 0.046875" clip-rule="nonzero"/></clipPath><clipPath id="7730ce2d22"><rect x="0" width="67" y="0" height="66"/></clipPath><clipPath id="32475b6842"><path d="M 51.066406 186.832031 L 116.972656 186.832031 L 116.972656 252.738281 L 51.066406 252.738281 Z M 51.066406 186.832031" clip-rule="nonzero"/></clipPath><clipPath id="15d467f50b"><path d="M 84.019531 186.832031 C 65.820312 186.832031 51.066406 201.585938 51.066406 219.785156 C 51.066406 237.984375 65.820312 252.738281 84.019531 252.738281 C 102.21875 252.738281 116.972656 237.984375 116.972656 219.785156 C 116.972656 201.585938 102.21875 186.832031 84.019531 186.832031 Z M 84.019531 186.832031" clip-rule="nonzero"/></clipPath><clipPath id="4890c15e0d"><path d="M 0.0664062 0.832031 L 65.972656 0.832031 L 65.972656 66.738281 L 0.0664062 66.738281 Z M 0.0664062 0.832031" clip-rule="nonzero"/></clipPath><clipPath id="b94945bc95"><path d="M 33.019531 0.832031 C 14.820312 0.832031 0.0664062 15.585938 0.0664062 33.785156 C 0.0664062 51.984375 14.820312 66.738281 33.019531 66.738281 C 51.21875 66.738281 65.972656 51.984375 65.972656 33.785156 C 65.972656 15.585938 51.21875 0.832031 33.019531 0.832031 Z M 33.019531 0.832031" clip-rule="nonzero"/></clipPath><clipPath id="57bb679f0a"><rect x="0" width="66" y="0" height="67"/></clipPath><clipPath id="65a12cf35d"><path d="M 185.511719 51.066406 L 251.417969 51.066406 L 251.417969 116.972656 L 185.511719 116.972656 Z M 185.511719 51.066406" clip-rule="nonzero"/></clipPath><clipPath id="fb72fc6991"><path d="M 218.464844 51.066406 C 200.265625 51.066406 185.511719 65.820312 185.511719 84.019531 C 185.511719 102.21875 200.265625 116.972656 218.464844 116.972656 C 236.664062 116.972656 251.417969 102.21875 251.417969 84.019531 C 251.417969 65.820312 236.664062 51.066406 218.464844 51.066406 Z M 218.464844 51.066406" clip-rule="nonzero"/></clipPath><clipPath id="d5edfe1dc6"><path d="M 0.511719 0.0664062 L 66.417969 0.0664062 L 66.417969 65.972656 L 0.511719 65.972656 Z M 0.511719 0.0664062" clip-rule="nonzero"/></clipPath><clipPath id="438622d4ce"><path d="M 33.464844 0.0664062 C 15.265625 0.0664062 0.511719 14.820312 0.511719 33.019531 C 0.511719 51.21875 15.265625 65.972656 33.464844 65.972656 C 51.664062 65.972656 66.417969 51.21875 66.417969 33.019531 C 66.417969 14.820312 51.664062 0.0664062 33.464844 0.0664062 Z M 33.464844 0.0664062" clip-rule="nonzero"/></clipPath><clipPath id="fc9367d353"><rect x="0" width="67" y="0" height="66"/></clipPath><clipPath id="896f54b30e"><path d="M 370.046875 0.980469 L 435.953125 0.980469 L 435.953125 66.882812 L 370.046875 66.882812 Z M 370.046875 0.980469" clip-rule="nonzero"/></clipPath><clipPath id="e1f9ee61bc"><path d="M 403 0.980469 C 384.800781 0.980469 370.046875 15.730469 370.046875 33.929688 C 370.046875 52.128906 384.800781 66.882812 403 66.882812 C 421.199219 66.882812 435.953125 52.128906 435.953125 33.929688 C 435.953125 15.730469 421.199219 0.980469 403 0.980469 Z M 403 0.980469" clip-rule="nonzero"/></clipPath><clipPath id="f5fc539090"><path d="M 0.046875 0.980469 L 65.953125 0.980469 L 65.953125 66.882812 L 0.046875 66.882812 Z M 0.046875 0.980469" clip-rule="nonzero"/></clipPath><clipPath id="d8ed7ffecc"><path d="M 33 0.980469 C 14.800781 0.980469 0.046875 15.730469 0.046875 33.929688 C 0.046875 52.128906 14.800781 66.882812 33 66.882812 C 51.199219 66.882812 65.953125 52.128906 65.953125 33.929688 C 65.953125 15.730469 51.199219 0.980469 33 0.980469 Z M 33 0.980469" clip-rule="nonzero"/></clipPath><clipPath id="b8ea45c680"><rect x="0" width="66" y="0" height="67"/></clipPath><clipPath id="ac4e26efb2"><path d="M 553.265625 51.066406 L 619.167969 51.066406 L 619.167969 116.972656 L 553.265625 116.972656 Z M 553.265625 51.066406" clip-rule="nonzero"/></clipPath><clipPath id="4fd7598702"><path d="M 586.214844 51.066406 C 568.015625 51.066406 553.265625 65.820312 553.265625 84.019531 C 553.265625 102.21875 568.015625 116.972656 586.214844 116.972656 C 604.414062 116.972656 619.167969 102.21875 619.167969 84.019531 C 619.167969 65.820312 604.414062 51.066406 586.214844 51.066406 Z M 586.214844 51.066406" clip-rule="nonzero"/></clipPath><clipPath id="4a1f4adacf"><path d="M 0.265625 0.0664062 L 66.167969 0.0664062 L 66.167969 65.972656 L 0.265625 65.972656 Z M 0.265625 0.0664062" clip-rule="nonzero"/></clipPath><clipPath id="86cf4393e0"><path d="M 33.214844 0.0664062 C 15.015625 0.0664062 0.265625 14.820312 0.265625 33.019531 C 0.265625 51.21875 15.015625 65.972656 33.214844 65.972656 C 51.414062 65.972656 66.167969 51.21875 66.167969 33.019531 C 66.167969 14.820312 51.414062 0.0664062 33.214844 0.0664062 Z M 33.214844 0.0664062" clip-rule="nonzero"/></clipPath><clipPath id="c383c59938"><rect x="0" width="67" y="0" height="66"/></clipPath><clipPath id="5f956f751c"><path d="M 689.027344 185.511719 L 754.933594 185.511719 L 754.933594 251.417969 L 689.027344 251.417969 Z M 689.027344 185.511719" clip-rule="nonzero"/></clipPath><clipPath id="266e3e6f89"><path d="M 721.980469 185.511719 C 703.78125 185.511719 689.027344 200.265625 689.027344 218.464844 C 689.027344 236.664062 703.78125 251.417969 721.980469 251.417969 C 740.179688 251.417969 754.933594 236.664062 754.933594 218.464844 C 754.933594 200.265625 740.179688 185.511719 721.980469 185.511719 Z M 721.980469 185.511719" clip-rule="nonzero"/></clipPath><clipPath id="d9e8fe9481"><path d="M 0.0273438 0.511719 L 65.933594 0.511719 L 65.933594 66.417969 L 0.0273438 66.417969 Z M 0.0273438 0.511719" clip-rule="nonzero"/></clipPath><clipPath id="3c632cba8b"><path d="M 32.980469 0.511719 C 14.78125 0.511719 0.0273438 15.265625 0.0273438 33.464844 C 0.0273438 51.664062 14.78125 66.417969 32.980469 66.417969 C 51.179688 66.417969 65.933594 51.664062 65.933594 33.464844 C 65.933594 15.265625 51.179688 0.511719 32.980469 0.511719 Z M 32.980469 0.511719" clip-rule="nonzero"/></clipPath><clipPath id="f3f14927f6"><rect x="0" width="66" y="0" height="67"/></clipPath><clipPath id="dc9056e840"><rect x="0" width="806" y="0" height="806"/></clipPath></defs><g transform="matrix(1, 0, 0, 1, 0, 0.000000000000112861)"><g clip-path="url(#2cd69ca360)"><g clip-path="url(#2e91ea9ec7)"><g clip-path="url(#f8d4c1885e)"><g transform="matrix(1, 0, 0, 1, 1476, 738)"><g clip-path="url(#592330703f)"><g clip-path="url(#7cc60e0349)"><g clip-path="url(#e35ebc86b2)"><path fill="#1ab8c3" d="M 0.273438 0.136719 L 24 0.136719 L 24 23.863281 L 0.273438 23.863281 Z M 0.273438 0.136719" fill-opacity="1" fill-rule="nonzero"/></g></g></g></g></g></g><g clip-path="url(#442209bf77)"><g clip-path="url(#ed07dd3bff)"><g transform="matrix(1, 0, 0, 1, 1439, 966)"><g clip-path="url(#119806cf1b)"><g clip-path="url(#3c6a52121c)"><g clip-path="url(#02e70547d2)"><path fill="#1ab8c3" d="M 0.367188 0.167969 L 24.09375 0.167969 L 24.09375 23.894531 L 0.367188 23.894531 Z M 0.367188 0.167969" fill-opacity="1" fill-rule="nonzero"/></g></g></g></g></g></g><g clip-path="url(#4a591731cb)"><g clip-path="url(#79b4af7566)"><g transform="matrix(1, 0, 0, 1, 1335, 1171)"><g clip-path="url(#460dc31dbf)"><g clip-path="url(#3b0124680b)"><g clip-path="url(#3e38277c8a)"><path fill="#1ab8c3" d="M 0.238281 0.792969 L 23.964844 0.792969 L 23.964844 24.519531 L 0.238281 24.519531 Z M 0.238281 0.792969" fill-opacity="1" fill-rule="nonzero"/></g></g></g></g></g></g><g clip-path="url(#a4fff7b9ef)"><g clip-path="url(#fd3b8c37df)"><g transform="matrix(1, 0, 0, 1, 1171, 1335)"><g clip-path="url(#a0c3a6a32f)"><g clip-path="url(#c4f39ed481)"><g clip-path="url(#fd782a7bb9)"><path fill="#1ab8c3" d="M 0.792969 0.238281 L 24.519531 0.238281 L 24.519531 23.964844 L 0.792969 23.964844 Z M 0.792969 0.238281" fill-opacity="1" fill-rule="nonzero"/></g></g></g></g></g></g><g clip-path="url(#72725e1bcc)"><g clip-path="url(#481e4e4d62)"><g transform="matrix(1, 0, 0, 1, 966, 1439)"><g clip-path="url(#cc96464a4d)"><g clip-path="url(#0fec5db49b)"><g clip-path="url(#c0b78d09dd)"><path fill="#1ab8c3" d="M 0.167969 0.367188 L 23.894531 0.367188 L 23.894531 24.09375 L 0.167969 24.09375 Z M 0.167969 0.367188" fill-opacity="1" fill-rule="nonzero"/></g></g></g></g></g></g><g clip-path="url(#51ae60f4c2)"><g clip-path="url(#44d5de3912)"><g transform="matrix(1, 0, 0, 1, 738, 1476)"><g clip-path="url(#ecbb76f79b)"><g clip-path="url(#62dda7aad3)"><g clip-path="url(#1428a0958d)"><path fill="#1ab8c3" d="M 0.136719 0.273438 L 23.863281 0.273438 L 23.863281 24 L 0.136719 24 Z M 0.136719 0.273438" fill-opacity="1" fill-rule="nonzero"/></g></g></g></g></g></g><g clip-path="url(#d6940d1257)"><g clip-path="url(#f808a15364)"><g transform="matrix(1, 0, 0, 1, 510, 1439)"><g clip-path="url(#2fea909b71)"><g clip-path="url(#b191039efd)"><g clip-path="url(#c6e6fa9272)"><path fill="#1ab8c3" d="M 0.105469 0.367188 L 23.832031 0.367188 L 23.832031 24.09375 L 0.105469 24.09375 Z M 0.105469 0.367188" fill-opacity="1" fill-rule="nonzero"/></g></g></g></g></g></g><g clip-path="url(#3b3c596265)"><g clip-path="url(#bf439be5fb)"><g transform="matrix(1, 0, 0, 1, 304, 1335)"><g clip-path="url(#7d0cc3462c)"><g clip-path="url(#4160cac7c0)"><g clip-path="url(#7d8c49cc69)"><path fill="#1ab8c3" d="M 0.480469 0.238281 L 24.207031 0.238281 L 24.207031 23.964844 L 0.480469 23.964844 Z M 0.480469 0.238281" fill-opacity="1" fill-rule="nonzero"/></g></g></g></g></g></g><g clip-path="url(#3af82b2cc8)"><g clip-path="url(#d5816e08da)"><g transform="matrix(1, 0, 0, 1, 141, 1171)"><g clip-path="url(#3ce1ce5d75)"><g clip-path="url(#b2e723262f)"><g clip-path="url(#3d0bac74f2)"><path fill="#1ab8c3" d="M 0.0351562 0.792969 L 23.761719 0.792969 L 23.761719 24.519531 L 0.0351562 24.519531 Z M 0.0351562 0.792969" fill-opacity="1" fill-rule="nonzero"/></g></g></g></g></g></g><g clip-path="url(#14e5f62178)"><g clip-path="url(#8f5ee19a09)"><g transform="matrix(1, 0, 0, 1, 36, 966)"><g clip-path="url(#2aff9d28a0)"><g clip-path="url(#7598aa07b2)"><g clip-path="url(#030de00dce)"><path fill="#1ab8c3" d="M 0.90625 0.167969 L 24.632812 0.167969 L 24.632812 23.894531 L 0.90625 23.894531 Z M 0.90625 0.167969" fill-opacity="1" fill-rule="nonzero"/></g></g></g></g></g></g><g clip-path="url(#dc3b587f2e)"><g clip-path="url(#56f4422833)"><g transform="matrix(1, 0, 0, 1, 0, 738)"><g clip-path="url(#7303550360)"><g clip-path="url(#e0fd80b838)"><g clip-path="url(#5713ce14c4)"><path fill="#1ab8c3" d="M 0 0.136719 L 23.726562 0.136719 L 23.726562 23.863281 L 0 23.863281 Z M 0 0.136719" fill-opacity="1" fill-rule="nonzero"/></g></g></g></g></g></g><g clip-path="url(#8d0b9d5cf5)"><g clip-path="url(#68bd1f7dd6)"><g transform="matrix(1, 0, 0, 1, 36, 510)"><g clip-path="url(#1f2efa9fa6)"><g clip-path="url(#b128cfe063)"><g clip-path="url(#4e0c2668f9)"><path fill="#1ab8c3" d="M 0.90625 0.105469 L 24.632812 0.105469 L 24.632812 23.832031 L 0.90625 23.832031 Z M 0.90625 0.105469" fill-opacity="1" fill-rule="nonzero"/></g></g></g></g></g></g><g clip-path="url(#e1e1598aca)"><g clip-path="url(#386e46bbc6)"><g transform="matrix(1, 0, 0, 1, 141, 304)"><g clip-path="url(#8722ddf551)"><g clip-path="url(#2ad02c8c12)"><g clip-path="url(#d8795123d2)"><path fill="#1ab8c3" d="M 0.0351562 0.480469 L 23.761719 0.480469 L 23.761719 24.207031 L 0.0351562 24.207031 Z M 0.0351562 0.480469" fill-opacity="1" fill-rule="nonzero"/></g></g></g></g></g></g><g clip-path="url(#d6eb558520)"><g clip-path="url(#be3a307d1c)"><g transform="matrix(1, 0, 0, 1, 304, 141)"><g clip-path="url(#9013887015)"><g clip-path="url(#1ee3322293)"><g clip-path="url(#1c6e348d90)"><path fill="#1ab8c3" d="M 0.480469 0.0351562 L 24.207031 0.0351562 L 24.207031 23.761719 L 0.480469 23.761719 Z M 0.480469 0.0351562" fill-opacity="1" fill-rule="nonzero"/></g></g></g></g></g></g><g clip-path="url(#b7f6d95286)"><g clip-path="url(#4922255083)"><g transform="matrix(1, 0, 0, 1, 510, 36)"><g clip-path="url(#8389bf4167)"><g clip-path="url(#6e5df60b6d)"><g clip-path="url(#f62b08cb58)"><path fill="#1ab8c3" d="M 0.105469 0.90625 L 23.832031 0.90625 L 23.832031 24.632812 L 0.105469 24.632812 Z M 0.105469 0.90625" fill-opacity="1" fill-rule="nonzero"/></g></g></g></g></g></g><g clip-path="url(#4de71aa2fe)"><g clip-path="url(#7c6156ad31)"><g transform="matrix(1, 0, 0, 1, 738, 0.000000000000112861)"><g clip-path="url(#26072cb9f5)"><g clip-path="url(#d1c417df22)"><g clip-path="url(#153fc2a6a6)"><path fill="#1ab8c3" d="M 0.136719 0 L 23.863281 0 L 23.863281 23.726562 L 0.136719 23.726562 Z M 0.136719 0" fill-opacity="1" fill-rule="nonzero"/></g></g></g></g></g></g><g clip-path="url(#d1a6532a7c)"><g clip-path="url(#92c4a2ac4e)"><g transform="matrix(1, 0, 0, 1, 966, 36)"><g clip-path="url(#2c95cd9be5)"><g clip-path="url(#e3e910cb84)"><g clip-path="url(#56e09615ed)"><path fill="#1ab8c3" d="M 0.167969 0.90625 L 23.894531 0.90625 L 23.894531 24.632812 L 0.167969 24.632812 Z M 0.167969 0.90625" fill-opacity="1" fill-rule="nonzero"/></g></g></g></g></g></g><g clip-path="url(#e95f49409d)"><g clip-path="url(#830a205d19)"><g transform="matrix(1, 0, 0, 1, 1171, 141)"><g clip-path="url(#81967e9fc1)"><g clip-path="url(#2285713096)"><g clip-path="url(#accbf3565d)"><path fill="#1ab8c3" d="M 0.792969 0.0351562 L 24.519531 0.0351562 L 24.519531 23.761719 L 0.792969 23.761719 Z M 0.792969 0.0351562" fill-opacity="1" fill-rule="nonzero"/></g></g></g></g></g></g><g clip-path="url(#e18c6f562d)"><g clip-path="url(#f644b50bf0)"><g transform="matrix(1, 0, 0, 1, 1335, 304)"><g clip-path="url(#0ddd893825)"><g clip-path="url(#a7af2ce09b)"><g clip-path="url(#89c2214eb5)"><path fill="#1ab8c3" d="M 0.238281 0.480469 L 23.964844 0.480469 L 23.964844 24.207031 L 0.238281 24.207031 Z M 0.238281 0.480469" fill-opacity="1" fill-rule="nonzero"/></g></g></g></g></g></g><g clip-path="url(#c848a4b9e9)"><g clip-path="url(#b9f8b623bf)"><g transform="matrix(1, 0, 0, 1, 1439, 510)"><g clip-path="url(#cef13a2550)"><g clip-path="url(#d8ccad77c4)"><g clip-path="url(#b73b51a04e)"><path fill="#1ab8c3" d="M 0.367188 0.105469 L 24.09375 0.105469 L 24.09375 23.832031 L 0.367188 23.832031 Z M 0.367188 0.105469" fill-opacity="1" fill-rule="nonzero"/></g></g></g></g></g></g></g></g><g transform="matrix(1, 0, 0, 1, 176, 176)"><g clip-path="url(#7da91956c1)"><g clip-path="url(#60cfe0e8a3)"><g clip-path="url(#fbd7a3921c)"><g transform="matrix(1, 0, 0, 1, 1107, 554)"><g clip-path="url(#a14516da6e)"><g clip-path="url(#4e89a8d273)"><g clip-path="url(#b3765a9cd7)"><path fill="#61c2a2" d="M 0.832031 0.226562 L 40.375 0.226562 L 40.375 39.769531 L 0.832031 39.769531 Z M 0.832031 0.226562" fill-opacity="1" fill-rule="nonzero"/></g></g></g></g></g></g><g clip-path="url(#5b09212d53)"><g clip-path="url(#8f65d5dde9)"><g transform="matrix(1, 0, 0, 1, 1065, 765)"><g clip-path="url(#0add673cd6)"><g clip-path="url(#2e50f7aca5)"><g clip-path="url(#caee4aa1ec)"><path fill="#61c2a2" d="M 0.652344 0.125 L 40.195312 0.125 L 40.195312 39.667969 L 0.652344 39.667969 Z M 0.652344 0.125" fill-opacity="1" fill-rule="nonzero"/></g></g></g></g></g></g><g clip-path="url(#f827feafe8)"><g clip-path="url(#e81a598fd2)"><g transform="matrix(1, 0, 0, 1, 944, 944)"><g clip-path="url(#558bfc971d)"><g clip-path="url(#c351198e26)"><g clip-path="url(#8d566f628a)"><path fill="#61c2a2" d="M 0.386719 0.386719 L 39.929688 0.386719 L 39.929688 39.929688 L 0.386719 39.929688 Z M 0.386719 0.386719" fill-opacity="1" fill-rule="nonzero"/></g></g></g></g></g></g><g clip-path="url(#1f540464c1)"><g clip-path="url(#2cae53eeef)"><g transform="matrix(1, 0, 0, 1, 765, 1065)"><g clip-path="url(#f5adb68dff)"><g clip-path="url(#10b66d8cbb)"><g clip-path="url(#1a03433aa1)"><path fill="#61c2a2" d="M 0.125 0.652344 L 39.667969 0.652344 L 39.667969 40.195312 L 0.125 40.195312 Z M 0.125 0.652344" fill-opacity="1" fill-rule="nonzero"/></g></g></g></g></g></g><g clip-path="url(#9e0f2b5a01)"><g clip-path="url(#1072ce121c)"><g transform="matrix(1, 0, 0, 1, 554, 1107)"><g clip-path="url(#4a3edc50bd)"><g clip-path="url(#d208ca0864)"><g clip-path="url(#deafe81cec)"><path fill="#61c2a2" d="M 0.226562 0.832031 L 39.773438 0.832031 L 39.773438 40.375 L 0.226562 40.375 Z M 0.226562 0.832031" fill-opacity="1" fill-rule="nonzero"/></g></g></g></g></g></g><g clip-path="url(#2454fac287)"><g clip-path="url(#240ea36705)"><g transform="matrix(1, 0, 0, 1, 343, 1065)"><g clip-path="url(#54d76e6225)"><g clip-path="url(#57b4832c47)"><g clip-path="url(#d45cd99f4f)"><path fill="#61c2a2" d="M 0.332031 0.652344 L 39.875 0.652344 L 39.875 40.195312 L 0.332031 40.195312 Z M 0.332031 0.652344" fill-opacity="1" fill-rule="nonzero"/></g></g></g></g></g></g><g clip-path="url(#a8e5117e58)"><g clip-path="url(#a2cb036b0c)"><g transform="matrix(1, 0, 0, 1, 164, 944)"><g clip-path="url(#de91663899)"><g clip-path="url(#8f19450f49)"><g clip-path="url(#828a7929b3)"><path fill="#61c2a2" d="M 0.0703125 0.386719 L 39.613281 0.386719 L 39.613281 39.929688 L 0.0703125 39.929688 Z M 0.0703125 0.386719" fill-opacity="1" fill-rule="nonzero"/></g></g></g></g></g></g><g clip-path="url(#66d05414da)"><g clip-path="url(#c0166e6d38)"><g transform="matrix(1, 0, 0, 1, 42, 765)"><g clip-path="url(#a31bcbbe84)"><g clip-path="url(#080030f81f)"><g clip-path="url(#aa14517182)"><path fill="#61c2a2" d="M 0.804688 0.125 L 40.347656 0.125 L 40.347656 39.667969 L 0.804688 39.667969 Z M 0.804688 0.125" fill-opacity="1" fill-rule="nonzero"/></g></g></g></g></g></g><g clip-path="url(#9e6db47d3b)"><g clip-path="url(#786e18abf2)"><g transform="matrix(1, 0, 0, 1, 0, 554)"><g clip-path="url(#39228a57cb)"><g clip-path="url(#4899ccacf7)"><g clip-path="url(#35f9ebf3d4)"><path fill="#61c2a2" d="M 0.625 0.226562 L 40.167969 0.226562 L 40.167969 39.769531 L 0.625 39.769531 Z M 0.625 0.226562" fill-opacity="1" fill-rule="nonzero"/></g></g></g></g></g></g><g clip-path="url(#a444cca452)"><g clip-path="url(#2cd0ebc7eb)"><g transform="matrix(1, 0, 0, 1, 42, 343)"><g clip-path="url(#36a72ef1f8)"><g clip-path="url(#1cb6fa036c)"><g clip-path="url(#621ab95c42)"><path fill="#61c2a2" d="M 0.804688 0.332031 L 40.347656 0.332031 L 40.347656 39.875 L 0.804688 39.875 Z M 0.804688 0.332031" fill-opacity="1" fill-rule="nonzero"/></g></g></g></g></g></g><g clip-path="url(#18942bc381)"><g clip-path="url(#9ada782155)"><g transform="matrix(1, 0, 0, 1, 164, 164)"><g clip-path="url(#ecc2b4b305)"><g clip-path="url(#33952e6327)"><g clip-path="url(#1cf5dffb48)"><path fill="#61c2a2" d="M 0.0703125 0.0703125 L 39.613281 0.0703125 L 39.613281 39.613281 L 0.0703125 39.613281 Z M 0.0703125 0.0703125" fill-opacity="1" fill-rule="nonzero"/></g></g></g></g></g></g><g clip-path="url(#a40a1ae7b0)"><g clip-path="url(#129d0286b6)"><g transform="matrix(1, 0, 0, 1, 343, 42)"><g clip-path="url(#23aff0b849)"><g clip-path="url(#36a4acba62)"><g clip-path="url(#917c59e01c)"><path fill="#61c2a2" d="M 0.332031 0.804688 L 39.875 0.804688 L 39.875 40.347656 L 0.332031 40.347656 Z M 0.332031 0.804688" fill-opacity="1" fill-rule="nonzero"/></g></g></g></g></g></g><g clip-path="url(#9dbc7b9044)"><g clip-path="url(#beaa1d5e7c)"><g transform="matrix(1, 0, 0, 1, 554, 0.000000000000113687)"><g clip-path="url(#5630e18e62)"><g clip-path="url(#a25ae71689)"><g clip-path="url(#f2adb469d6)"><path fill="#61c2a2" d="M 0.226562 0.625 L 39.773438 0.625 L 39.773438 40.167969 L 0.226562 40.167969 Z M 0.226562 0.625" fill-opacity="1" fill-rule="nonzero"/></g></g></g></g></g></g><g clip-path="url(#f03430d083)"><g clip-path="url(#847dc743b9)"><g transform="matrix(1, 0, 0, 1, 765, 42)"><g clip-path="url(#9944777b95)"><g clip-path="url(#0ec3b9d2bd)"><g clip-path="url(#2662d25a80)"><path fill="#61c2a2" d="M 0.125 0.804688 L 39.667969 0.804688 L 39.667969 40.347656 L 0.125 40.347656 Z M 0.125 0.804688" fill-opacity="1" fill-rule="nonzero"/></g></g></g></g></g></g><g clip-path="url(#dab18fe7ca)"><g clip-path="url(#54edd71b79)"><g transform="matrix(1, 0, 0, 1, 944, 164)"><g clip-path="url(#cfcfd0c2db)"><g clip-path="url(#13713abfd9)"><g clip-path="url(#a90b96cebf)"><path fill="#61c2a2" d="M 0.386719 0.0703125 L 39.929688 0.0703125 L 39.929688 39.613281 L 0.386719 39.613281 Z M 0.386719 0.0703125" fill-opacity="1" fill-rule="nonzero"/></g></g></g></g></g></g><g clip-path="url(#0d76a63e31)"><g clip-path="url(#ca7bd7c1d5)"><g transform="matrix(1, 0, 0, 1, 1065, 343)"><g clip-path="url(#fb95fcad18)"><g clip-path="url(#4b54ab0038)"><g clip-path="url(#d31adbc728)"><path fill="#61c2a2" d="M 0.652344 0.332031 L 40.195312 0.332031 L 40.195312 39.875 L 0.652344 39.875 Z M 0.652344 0.332031" fill-opacity="1" fill-rule="nonzero"/></g></g></g></g></g></g></g></g><g clip-path="url(#679f146580)"><g clip-path="url(#a87895a8fd)"><g transform="matrix(1, 0, 0, 1, 670, 670)"><g clip-path="url(#747854d3fb)"><g clip-path="url(#cb664f177d)"><g clip-path="url(#33245d782a)"><path fill="#007868" d="M 0.914062 0.914062 L 159.085938 0.914062 L 159.085938 159.085938 L 0.914062 159.085938 Z M 0.914062 0.914062" fill-opacity="1" fill-rule="nonzero"/></g></g></g></g></g></g><g clip-path="url(#82d57edb30)"><g clip-path="url(#430a4c4ad8)"><g transform="matrix(1, 0, 0, 1, 881, 697)"><g clip-path="url(#f77b255455)"><g clip-path="url(#feae3f8805)"><g clip-path="url(#4498810a2b)"><path fill="#007868" d="M 0.808594 0.277344 L 106.257812 0.277344 L 106.257812 105.722656 L 0.808594 105.722656 Z M 0.808594 0.277344" fill-opacity="1" fill-rule="nonzero"/></g></g></g></g></g></g><g clip-path="url(#4288ef4753)"><g clip-path="url(#5214d48389)"><g transform="matrix(1, 0, 0, 1, 826, 826)"><g clip-path="url(#df1b684742)"><g clip-path="url(#31bc7a79b7)"><g clip-path="url(#37fcf72ccc)"><path fill="#007868" d="M 0.449219 0.449219 L 105.898438 0.449219 L 105.898438 105.898438 L 0.449219 105.898438 Z M 0.449219 0.449219" fill-opacity="1" fill-rule="nonzero"/></g></g></g></g></g></g><g clip-path="url(#7eecd0cdd2)"><g clip-path="url(#f855fa1499)"><g transform="matrix(1, 0, 0, 1, 697, 881)"><g clip-path="url(#5192992c0f)"><g clip-path="url(#414875a1da)"><g clip-path="url(#34ea331267)"><path fill="#007868" d="M 0.277344 0.808594 L 105.722656 0.808594 L 105.722656 106.257812 L 0.277344 106.257812 Z M 0.277344 0.808594" fill-opacity="1" fill-rule="nonzero"/></g></g></g></g></g></g><g clip-path="url(#3ed83e4099)"><g clip-path="url(#5e0e75d2df)"><g transform="matrix(1, 0, 0, 1, 568, 826)"><g clip-path="url(#155039e78b)"><g clip-path="url(#4302e49dac)"><g clip-path="url(#6453cdf477)"><path fill="#007868" d="M 0.101562 0.449219 L 105.550781 0.449219 L 105.550781 105.898438 L 0.101562 105.898438 Z M 0.101562 0.449219" fill-opacity="1" fill-rule="nonzero"/></g></g></g></g></g></g><g clip-path="url(#5ae7f7e659)"><g clip-path="url(#3f67ee2631)"><g transform="matrix(1, 0, 0, 1, 512, 697)"><g clip-path="url(#f81d9950c7)"><g clip-path="url(#3179fe38de)"><g clip-path="url(#0e71a2bf4a)"><path fill="#007868" d="M 0.742188 0.277344 L 106.191406 0.277344 L 106.191406 105.722656 L 0.742188 105.722656 Z M 0.742188 0.277344" fill-opacity="1" fill-rule="nonzero"/></g></g></g></g></g></g><g clip-path="url(#54e8731da6)"><g clip-path="url(#4454e98a0e)"><g transform="matrix(1, 0, 0, 1, 568, 568)"><g clip-path="url(#0242d77e40)"><g clip-path="url(#56a6143d88)"><g clip-path="url(#666f7d8f5e)"><path fill="#007868" d="M 0.101562 0.101562 L 105.550781 0.101562 L 105.550781 105.550781 L 0.101562 105.550781 Z M 0.101562 0.101562" fill-opacity="1" fill-rule="nonzero"/></g></g></g></g></g></g><g clip-path="url(#a86ba7280a)"><g clip-path="url(#b25a8bed6a)"><g transform="matrix(1, 0, 0, 1, 697, 512)"><g clip-path="url(#82e3e0629f)"><g clip-path="url(#ad36eb860d)"><g clip-path="url(#41e4dd12ea)"><path fill="#007868" d="M 0.277344 0.742188 L 105.722656 0.742188 L 105.722656 106.191406 L 0.277344 106.191406 Z M 0.277344 0.742188" fill-opacity="1" fill-rule="nonzero"/></g></g></g></g></g></g><g clip-path="url(#f8a957061b)"><g clip-path="url(#f1bca40857)"><g transform="matrix(1, 0, 0, 1, 826, 568)"><g clip-path="url(#3a87b531d1)"><g clip-path="url(#d9214bef02)"><g clip-path="url(#ba1bcee098)"><path fill="#007868" d="M 0.449219 0.101562 L 105.898438 0.101562 L 105.898438 105.550781 L 0.449219 105.550781 Z M 0.449219 0.101562" fill-opacity="1" fill-rule="nonzero"/></g></g></g></g></g></g><g transform="matrix(1, 0, 0, 1, 347, 347)"><g clip-path="url(#dc9056e840)"><g clip-path="url(#f3e56f0888)"><g clip-path="url(#4ee6bca5a3)"><g transform="matrix(1, 0, 0, 1, 739, 370)"><g clip-path="url(#7bffe967bb)"><g clip-path="url(#7ae26f5f30)"><g clip-path="url(#eeefc47dc5)"><path fill="#66c8ba" d="M 0.117188 0.046875 L 66.019531 0.046875 L 66.019531 65.953125 L 0.117188 65.953125 Z M 0.117188 0.046875" fill-opacity="1" fill-rule="nonzero"/></g></g></g></g></g></g><g clip-path="url(#b737f4cd16)"><g clip-path="url(#95d650eceb)"><g transform="matrix(1, 0, 0, 1, 689, 553)"><g clip-path="url(#613a2142cf)"><g clip-path="url(#3222a5bab0)"><g clip-path="url(#20bfdb096c)"><path fill="#66c8ba" d="M 0.0273438 0.261719 L 65.933594 0.261719 L 65.933594 66.167969 L 0.0273438 66.167969 Z M 0.0273438 0.261719" fill-opacity="1" fill-rule="nonzero"/></g></g></g></g></g></g><g clip-path="url(#718b7fa8f4)"><g clip-path="url(#382f3262f6)"><g transform="matrix(1, 0, 0, 1, 554, 689)"><g clip-path="url(#33fb65cac5)"><g clip-path="url(#edcf10ed98)"><g clip-path="url(#1cd92b5e02)"><path fill="#66c8ba" d="M 0.582031 0.0273438 L 66.488281 0.0273438 L 66.488281 65.933594 L 0.582031 65.933594 Z M 0.582031 0.0273438" fill-opacity="1" fill-rule="nonzero"/></g></g></g></g></g></g><g clip-path="url(#057e49e062)"><g clip-path="url(#6c17f327d8)"><g transform="matrix(1, 0, 0, 1, 370, 739)"><g clip-path="url(#b341162257)"><g clip-path="url(#93780e5eec)"><g clip-path="url(#47665ab5a6)"><path fill="#66c8ba" d="M 0.046875 0.117188 L 65.953125 0.117188 L 65.953125 66.019531 L 0.046875 66.019531 Z M 0.046875 0.117188" fill-opacity="1" fill-rule="nonzero"/></g></g></g></g></g></g><g clip-path="url(#04a03b6fdd)"><g clip-path="url(#a65f518f5f)"><g transform="matrix(1, 0, 0, 1, 186, 689)"><g clip-path="url(#9e7c762cb0)"><g clip-path="url(#6cdfa0f79c)"><g clip-path="url(#68f47f2a26)"><path fill="#66c8ba" d="M 0.832031 0.0273438 L 66.738281 0.0273438 L 66.738281 65.933594 L 0.832031 65.933594 Z M 0.832031 0.0273438" fill-opacity="1" fill-rule="nonzero"/></g></g></g></g></g></g><g clip-path="url(#3da2cda13b)"><g clip-path="url(#a39ec19211)"><g transform="matrix(1, 0, 0, 1, 51, 554)"><g clip-path="url(#ee5c236aab)"><g clip-path="url(#88884f3131)"><g clip-path="url(#36edc4ea64)"><path fill="#66c8ba" d="M 0.0664062 0.582031 L 65.972656 0.582031 L 65.972656 66.488281 L 0.0664062 66.488281 Z M 0.0664062 0.582031" fill-opacity="1" fill-rule="nonzero"/></g></g></g></g></g></g><g clip-path="url(#a95dcabd02)"><g clip-path="url(#d96e535617)"><g transform="matrix(1, 0, 0, 1, 0, 370)"><g clip-path="url(#7730ce2d22)"><g clip-path="url(#0cf9018cf6)"><g clip-path="url(#7dd31821a2)"><path fill="#66c8ba" d="M 0.980469 0.046875 L 66.882812 0.046875 L 66.882812 65.953125 L 0.980469 65.953125 Z M 0.980469 0.046875" fill-opacity="1" fill-rule="nonzero"/></g></g></g></g></g></g><g clip-path="url(#32475b6842)"><g clip-path="url(#15d467f50b)"><g transform="matrix(1, 0, 0, 1, 51, 186)"><g clip-path="url(#57bb679f0a)"><g clip-path="url(#4890c15e0d)"><g clip-path="url(#b94945bc95)"><path fill="#66c8ba" d="M 0.0664062 0.832031 L 65.972656 0.832031 L 65.972656 66.738281 L 0.0664062 66.738281 Z M 0.0664062 0.832031" fill-opacity="1" fill-rule="nonzero"/></g></g></g></g></g></g><g clip-path="url(#65a12cf35d)"><g clip-path="url(#fb72fc6991)"><g transform="matrix(1, 0, 0, 1, 185, 51)"><g clip-path="url(#fc9367d353)"><g clip-path="url(#d5edfe1dc6)"><g clip-path="url(#438622d4ce)"><path fill="#66c8ba" d="M 0.511719 0.0664062 L 66.417969 0.0664062 L 66.417969 65.972656 L 0.511719 65.972656 Z M 0.511719 0.0664062" fill-opacity="1" fill-rule="nonzero"/></g></g></g></g></g></g><g clip-path="url(#896f54b30e)"><g clip-path="url(#e1f9ee61bc)"><g transform="matrix(1, 0, 0, 1, 370, 0.000000000000113687)"><g clip-path="url(#b8ea45c680)"><g clip-path="url(#f5fc539090)"><g clip-path="url(#d8ed7ffecc)"><path fill="#66c8ba" d="M 0.046875 0.980469 L 65.953125 0.980469 L 65.953125 66.882812 L 0.046875 66.882812 Z M 0.046875 0.980469" fill-opacity="1" fill-rule="nonzero"/></g></g></g></g></g></g><g clip-path="url(#ac4e26efb2)"><g clip-path="url(#4fd7598702)"><g transform="matrix(1, 0, 0, 1, 553, 51)"><g clip-path="url(#c383c59938)"><g clip-path="url(#4a1f4adacf)"><g clip-path="url(#86cf4393e0)"><path fill="#66c8ba" d="M 0.265625 0.0664062 L 66.167969 0.0664062 L 66.167969 65.972656 L 0.265625 65.972656 Z M 0.265625 0.0664062" fill-opacity="1" fill-rule="nonzero"/></g></g></g></g></g></g><g clip-path="url(#5f956f751c)"><g clip-path="url(#266e3e6f89)"><g transform="matrix(1, 0, 0, 1, 689, 185)"><g clip-path="url(#f3f14927f6)"><g clip-path="url(#d9e8fe9481)"><g clip-path="url(#3c632cba8b)"><path fill="#66c8ba" d="M 0.0273438 0.511719 L 65.933594 0.511719 L 65.933594 66.417969 L 0.0273438 66.417969 Z M 0.0273438 0.511719" fill-opacity="1" fill-rule="nonzero"/></g></g></g></g></g></g></g></g></svg>